<?xml version="1.0" encoding="UTF-8" standalone="no"?>
<!-- Created with Inkscape (http://www.inkscape.org/) -->

<svg
   width="104.775mm"
   height="104.775mm"
   viewBox="0 0 104.775 104.775"
   version="1.1"
   id="svg1"
   xml:space="preserve"
   xmlns="http://www.w3.org/2000/svg"
   xmlns:svg="http://www.w3.org/2000/svg"><defs
     id="defs1" /><g
     id="layer1"
     transform="translate(-38.629166,48.947918)"><path
       style="fill:#000000"
       d="m 88.847655,54.305729 c -5.850434,-5.560913 -8.598123,-15.563106 -6.814426,-24.806012 0.681374,-3.530798 0.963515,-4.192125 1.691761,-3.965414 3.621314,1.127351 8.924683,1.362022 12.556637,0.555624 1.076718,-0.239063 2.008564,-0.383764 2.070769,-0.321558 0.06221,0.0622 0.350535,0.987035 0.640731,2.055178 0.683383,2.515364 0.962495,9.141138 0.508325,12.066993 -0.682529,4.396984 -2.331253,8.602225 -4.642473,11.84111 -1.163959,1.631142 -3.664185,4.095433 -4.155153,4.095433 -0.140586,0 -0.975863,-0.684609 -1.856171,-1.521354 z"
       id="path1" /><path
       style="fill:#000000"
       d="m 98.382136,-18.651891 c -0.06956,-0.06956 -1.070633,-0.364353 -2.224614,-0.655101 -3.311425,-0.834322 -8.725794,-0.656264 -12.041144,0.395987 -0.374242,0.11878 -0.538456,-0.06392 -0.767424,-0.853835 -1.182532,-4.0796 -1.429553,-10.939497 -0.53896,-14.96726 0.562472,-2.543818 1.525186,-5.384745 2.418245,-7.136134 1.375467,-2.697444 5.207452,-7.079683 6.190726,-7.079683 1.11161,0 5.000894,4.794076 6.439446,7.9375 1.871078,4.088547 2.795109,8.966598 2.606189,13.758334 -0.17792,4.512764 -1.345988,9.336668 -2.082464,8.600192 z"
       id="path13" /><path
       style="fill:#000000"
       d="m 77.513878,-18.148103 c -2.31195,-2.365 -6.247928,-5.141709 -9.716975,-6.855022 -2.395345,-1.183027 -3.280126,-1.75603 -3.47264,-2.248958 C 63.824972,-28.530501 63.5,-31.428381 63.5,-34.602285 c 0,-2.705071 0.105831,-3.54083 0.677542,-5.350616 0.372648,-1.17964 0.821362,-2.199989 0.997141,-2.267442 0.583466,-0.223897 4.482705,0.935042 6.500687,1.932146 2.294842,1.133903 5.261783,3.304252 6.501946,4.756243 0.82022,0.960319 0.848393,1.066904 0.649974,2.459037 -0.55923,3.92363 -0.159812,9.681274 0.981139,14.143203 0.376306,1.471622 0.371964,1.598091 -0.06585,1.918229 -0.257795,0.188504 -0.539325,0.342735 -0.625624,0.342735 -0.0863,0 -0.807682,-0.665709 -1.603077,-1.479353 z"
       id="path12" /><path
       style="fill:#000000"
       d="m 102.78407,-16.773115 c -0.48543,-0.354955 -0.48779,-0.422691 -0.0623,-1.785937 1.23292,-3.950483 1.68133,-8.590527 1.24854,-12.919655 l -0.29739,-2.974766 0.74949,-0.794313 c 3.05859,-3.241488 9.31721,-6.541485 12.42858,-6.55324 0.71794,-0.0027 0.88649,0.135119 1.23725,1.01177 1.11563,2.788216 1.37407,8.295694 0.57571,12.268458 l -0.46284,2.30316 -3.47189,1.713343 c -3.7882,1.869435 -6.29322,3.59945 -9.16561,6.329954 -1.02419,0.973596 -1.95503,1.770174 -2.06855,1.770174 -0.11351,0 -0.43345,-0.166026 -0.71096,-0.368948 z"
       id="path11" /><path
       style="fill:#000000"
       d="M 64.899343,-2.2454929 C 61.411745,-3.3941894 58.947557,-4.6979343 55.813122,-7.0528022 51.01325,-10.658895 47.43244,-15.617706 46.150264,-20.434211 c -0.657002,-2.468031 -0.573763,-2.737614 1.030641,-3.337898 5.205031,-1.947452 12.586988,-1.147804 19.09722,2.068699 1.74625,0.862768 3.881244,2.106063 4.744432,2.762877 1.968312,1.497723 4.648276,4.093198 4.648276,4.501734 0,0.169669 -0.483532,0.779137 -1.074515,1.354373 -1.391495,1.354417 -2.919092,3.3510025 -3.83672,5.0146343 -0.401333,0.7276042 -0.83483,1.5015105 -0.963326,1.7197917 -0.128497,0.2182812 -0.555928,1.39959 -0.949847,2.6251305 -0.393919,1.2255406 -0.835279,2.2599735 -0.9808,2.2987399 -0.145521,0.038766 -1.480348,-0.3299471 -2.966282,-0.8193633 z"
       id="path10" /><path
       style="fill:#000000"
       d="m 113.92497,-1.1034087 c -0.0605,-0.1934898 -0.36664,-1.2447684 -0.6803,-2.3361746 -0.79487,-2.7657493 -2.90478,-6.4683507 -4.98445,-8.7469867 l -1.75175,-1.919347 2.15289,-2.009021 c 5.42382,-5.061347 12.82733,-8.05681 19.92614,-8.062116 3.65895,-0.0027 7.67601,0.888988 8.01786,1.779836 0.23936,0.623776 -0.88707,4.316242 -1.98168,6.495947 -3.14208,6.256871 -9.87735,11.8756291 -16.9937,14.1766302 -2.79816,0.90476072 -3.57559,1.03511406 -3.70501,0.6212321 z"
       id="path9" /><path
       style="fill:#000000"
       d="M 50.28459,10.940916 C 48.199363,10.40053 44.30733,8.4751164 42.441892,7.061084 40.496081,5.5861282 38.629166,3.6094153 38.629166,3.0241215 c 0,-1.0574751 4.310492,-4.6275437 7.599794,-6.2943589 1.626256,-0.8240861 5.359559,-2.0800513 5.744166,-1.9324637 0.162516,0.062363 1.193449,0.7576477 2.290961,1.5450766 3.390227,2.4323766 7.319651,4.30758331 11.220288,5.354565 2.043088,0.5483914 2.116666,0.5954528 2.116666,1.3538294 0,0.7470031 -0.08468,0.8066237 -1.719791,1.2108779 -3.767186,0.9313732 -7.9575,2.8753924 -11.641667,5.4009378 -1.091406,0.7481734 -2.103437,1.4259184 -2.248958,1.5060994 -0.145521,0.08018 -0.913237,-0.02232 -1.706035,-0.227769 z"
       id="path8" /><path
       style="fill:#000000"
       d="M 128.93853,11.289131 C 125.63545,8.563663 119.5038,5.63659 115.0276,4.6484557 114.44313,4.5194319 114.3,4.3405654 114.3,3.7392005 c 0,-0.7181802 0.0942,-0.7735001 2.3151,-1.3598852 4.11608,-1.0867561 8.58203,-3.30144889 12.56885,-6.232967 l 0.99332,-0.730392 1.63594,0.4548332 c 2.28695,0.6358291 5.26084,2.0557297 7.18307,3.42960109 1.83035,1.30820203 4.40789,3.91973171 4.40789,4.46602181 0,0.3547225 -2.68572,3.147711 -3.97498,4.133745 -1.96852,1.5055353 -7.57136,4.0060926 -8.97619,4.0060926 -0.42161,0 -1.10312,-0.277703 -1.51447,-0.617119 z"
       id="path7" /><path
       style="fill:#000000"
       d="M 87.577083,22.323162 C 81.595512,21.176114 76.235735,17.008119 73.671239,11.509375 71.467403,6.7839515 71.223664,2.1688046 72.912273,-2.8614743 74.957799,-8.9549897 80.253449,-13.722542 86.80229,-15.366337 c 2.341319,-0.587683 6.891682,-0.461134 9.24146,0.257013 6.13412,1.87473 10.90567,6.2497354 12.96231,11.8850731 3.80012,10.4125651 -1.81283,21.6002469 -12.57838,25.0711329 -1.297171,0.418217 -7.43185,0.748345 -8.850597,0.47628 z"
       id="path6" /><path
       style="fill:#000000"
       d="m 49.596613,30.704136 c -2.249176,-0.48556 -4.089372,-1.120507 -4.116316,-1.420306 -0.13384,-1.489233 0.942959,-5.036699 2.222952,-7.323413 3.413246,-6.097785 9.639355,-11.090388 16.838153,-13.502207 2.550153,-0.8543796 3.420019,-0.9651143 3.57079,-0.4545642 0.944323,3.1977432 1.448273,4.5791052 2.177061,5.9674712 0.984779,1.876039 3.389058,5.167188 4.438254,6.0754 0.902041,0.78083 0.705225,1.146311 -1.759793,3.267888 -5.668153,4.878429 -11.719431,7.306556 -18.728131,7.514823 -1.964531,0.05838 -4.053868,0.0021 -4.64297,-0.125092 z"
       id="path5" /><path
       style="fill:#000000"
       d="m 123.59253,31.204034 c -3.7516,-0.667563 -8.97495,-2.87272 -12.15889,-5.133146 -1.91675,-1.360791 -5.07114,-4.323731 -5.07114,-4.763359 0,-0.162398 0.54505,-0.826074 1.21123,-1.474836 2.32966,-2.268771 4.76101,-6.478089 5.84718,-10.1230666 0.20825,-0.6988201 0.52978,-1.3285849 0.71452,-1.3994774 1.05118,-0.4033754 7.87196,2.528085 11.0471,4.747867 5.94923,4.159181 10.60605,10.810881 10.86631,15.521204 l 0.0793,1.434837 -1.5875,0.642925 c -1.39226,0.563856 -2.07558,0.6526 -5.55625,0.721602 -2.18281,0.04327 -4.60914,-0.03527 -5.39184,-0.17455 z"
       id="path4" /><path
       style="fill:#000000"
       d="m 64.071786,47.955729 c -1.175672,-2.98929 -1.53883,-6.874469 -1.007802,-10.781771 0.532925,-3.921255 0.690064,-4.269031 2.2184,-4.909721 4.103079,-1.720041 7.915314,-4.183816 10.974629,-7.092694 1.742216,-1.656545 2.14884,-1.923191 2.715788,-1.780896 0.36673,0.09204 0.666782,0.275554 0.666782,0.407801 0,0.132247 -0.293395,1.33677 -0.651988,2.676718 -0.943478,3.525468 -1.316289,8.130645 -0.962105,11.884474 l 0.286621,3.037765 -1.386785,1.293944 c -2.816608,2.628043 -6.490293,4.689347 -9.959619,5.58834 -2.187058,0.566723 -2.560042,0.52497 -2.893921,-0.32396 z"
       id="path3" /><path
       style="fill:#000000"
       d="m 113.77083,48.442534 c -3.59576,-1.178466 -7.28476,-3.400766 -9.56413,-5.761557 l -1.22975,-1.273685 0.26563,-1.852084 c 0.42614,-2.971187 0.0842,-9.048004 -0.69839,-12.413075 -0.49974,-2.148738 -0.59668,-2.97846 -0.37867,-3.241146 0.47291,-0.569815 0.95339,-0.414752 1.87546,0.605256 2.243,2.481233 6.12241,5.239193 10.37532,7.376049 l 3.15956,1.5875 0.35162,1.322916 c 0.1934,0.727605 0.42612,2.997013 0.51715,5.04313 0.16701,3.753803 0.0317,4.961236 -0.88059,7.855308 -0.37945,1.203782 -0.43709,1.256171 -1.36707,1.242542 -0.53401,-0.0078 -1.62577,-0.228845 -2.42614,-0.491154 z"
       id="path2" /></g></svg>
