<?xml version="1.0" encoding="UTF-8" standalone="no"?>
<!-- Created with Inkscape (http://www.inkscape.org/) -->

<svg
   width="72.495857mm"
   height="102.25042mm"
   viewBox="0 0 72.495857 102.25042"
   version="1.1"
   id="svg1"
   xml:space="preserve"
   xmlns="http://www.w3.org/2000/svg"
   xmlns:svg="http://www.w3.org/2000/svg"><defs
     id="defs1" /><g
     id="layer1"
     transform="translate(-61.506813,-300.06259)"><path
       style="fill:#fefefe"
       d="M 135.59017,350.05781 V 296.2151 H 97.754756 59.919336 v 53.84271 53.84271 h 37.83542 37.835414 z"
       id="path43" /><path
       style="fill:#f8a852"
       d="m 106.09948,323.26889 c 0.17827,-1.00232 3.29694,-24.81784 3.29694,-25.17687 0,-0.20509 3.51176,-0.28928 12.06685,-0.28928 9.54488,0 12.04028,0.0691 11.93974,0.33073 -0.0699,0.1819 -2.90467,6.07549 -6.29946,13.09687 l -6.17236,12.76615 h -7.48056 -7.48056 z"
       id="path52" /><path
       style="fill:#f8a852"
       d="m 68.121416,311.12281 c -3.41974,-7.0677 -6.25739,-12.95605 -6.3059,-13.08522 -0.0505,-0.1346 5.0504,-0.23485 11.94914,-0.23485 h 12.03733 l 0.15672,0.99219 c 0.0862,0.5457 0.81087,5.99281 1.61038,12.10468 0.79951,6.11188 1.52382,11.55899 1.60958,12.10469 l 0.15593,0.99219 -7.49773,-0.0117 -7.49774,-0.0117 z"
       id="path51" /><path
       style="fill:#f8a852"
       d="m 133.8458,353.62982 c 0,-2.40109 0.0401,-3.38336 0.0891,-2.18281 0.049,1.20055 0.049,3.16508 0,4.36563 -0.049,1.20054 -0.0891,0.21828 -0.0891,-2.18282 z"
       id="path50" /><path
       style="fill:#f8a852"
       d="m 95.279846,360.15336 c -0.0762,-0.31373 -0.22073,-1.31455 -0.32119,-2.22406 l -0.18267,-1.65364 h 2.89716 2.897154 l -0.19783,1.38906 c -0.10881,0.76398 -0.20653,1.65695 -0.21715,1.98437 -0.0177,0.54619 -0.14502,0.59532 -1.542424,0.59532 -0.8377,0 -1.89917,0.10785 -2.35881,0.23968 -0.73703,0.21137 -0.85208,0.17232 -0.97424,-0.33073 z"
       id="path49" /><path
       style="fill:#f8a852"
       d="m 105.16309,361.49742 c -0.3638,-0.16427 -0.70986,-0.33359 -0.76901,-0.37627 -0.0592,-0.0427 0.10777,-0.55506 0.37092,-1.13863 l 0.47846,-1.06103 h 1.83235 1.83236 l -1.24322,1.45521 c -1.31094,1.53447 -1.44879,1.59622 -2.50186,1.12072 z"
       id="path48" /><path
       style="fill:#f8a852"
       d="m 88.581486,361.49542 c -2.24713,-2.74325 -2.23143,-2.57407 -0.23887,-2.57407 h 1.7316 l 0.79756,1.57996 c 0.43866,0.86897 0.79756,1.63477 0.79756,1.70177 0,0.067 -0.34226,0.36553 -0.76057,0.66339 l -0.76056,0.54157 z"
       id="path47" /><path
       style="fill:#f8a852"
       d="m 111.30233,366.72293 c -0.46617,-0.66136 -0.84224,-1.28828 -0.83573,-1.39317 0.007,-0.10489 2.09926,-1.59168 4.65055,-3.30398 l 4.63871,-3.11328 6.72641,0.0706 6.72641,0.0706 -10.3326,4.36563 c -5.68293,2.40109 -10.42115,4.39724 -10.52939,4.43587 -0.10823,0.0386 -0.57819,-0.47085 -1.04436,-1.13221 z"
       id="path46" /><path
       style="fill:#f8a852"
       d="m 73.780236,363.99683 -11.67138,-4.94319 6.72496,-0.0706 6.72497,-0.0706 5.77764,3.9071 5.77763,3.9071 -0.62542,1.05588 c -0.34398,0.58073 -0.71802,1.07876 -0.83121,1.10673 -0.11319,0.028 -5.45792,-2.17358 -11.87719,-4.89234 z"
       id="path45" /><path
       style="fill:#f8a852"
       d="m 129.76934,396.09531 c -0.64268,-0.65484 -1.10898,-1.19063 -1.03622,-1.19063 0.0728,0 0.65812,0.53579 1.3008,1.19063 0.64268,0.65484 1.10898,1.19062 1.03622,1.19062 -0.0728,0 -0.65812,-0.53578 -1.3008,-1.19062 z"
       id="path44" /><path
       style="fill:#f8a852"
       d="m 133.8637,381.27864 c 2e-5,-10.76854 0.0328,-15.1353 0.0727,-9.7039 0.04,5.43139 0.04,14.24201 -5e-5,19.57916 -0.04,5.33715 -0.0727,0.89328 -0.0727,-9.87526 z"
       id="path41" /><path
       style="display:inline;fill:#fbd11e"
       d="m 94.579756,355.07346 c 0,-0.079 -0.47625,-3.71999 -1.05834,-8.09099 -0.58208,-4.371 -1.05833,-7.99726 -1.05833,-8.05836 0,-0.0611 2.32172,-0.11109 5.15937,-0.11109 4.196594,0 5.159384,0.0678 5.159384,0.36312 0,0.49794 -1.82642,14.40857 -2.01061,15.31344 l -0.1481,0.7276 h -3.021694 c -1.66193,0 -3.02168,-0.0647 -3.02168,-0.14372 z"
       id="path58" /><path
       style="display:inline;fill:#fbd11e"
       d="m 121.71278,357.63973 c 0.45527,-0.40445 11.73457,-7.9788 11.88157,-7.9788 0.0791,0 0.14374,1.84547 0.14374,4.10105 v 4.10104 h -6.13834 c -3.37608,0 -6.02522,-0.10048 -5.88697,-0.22329 z"
       id="path57" /><path
       style="display:inline;fill:#fbd11e"
       d="m 110.20698,348.66875 4.46884,-9.19428 5.18912,-0.0718 5.18913,-0.0718 -0.61893,0.77578 c -0.34041,0.42668 -3.77408,4.59028 -7.63039,9.25245 l -7.01145,8.47667 -2.02758,0.0136 -2.02758,0.0136 z"
       id="path56" /><path
       style="display:inline;fill:#fbd11e"
       d="m 81.825846,353.29895 c -2.09461,-2.51023 -5.56164,-6.67742 -7.70452,-9.26041 l -3.89613,-4.69636 h 5.18181 5.1818 l 2.79282,5.75469 c 1.53605,3.16508 3.54587,7.33227 4.46625,9.26042 l 1.67344,3.50573 h -1.94355 -1.94354 z"
       id="path55" /><path
       style="display:inline;fill:#fbd11e"
       d="m 61.506836,353.65039 v -4.21263 l 5.88698,3.97438 c 3.23784,2.18591 6.00009,4.08159 6.13833,4.21263 0.14945,0.14165 -2.23741,0.23825 -5.88698,0.23825 h -6.13833 z"
       id="path54" /><path
       style="display:inline;fill:#fbd11e"
       d="m 98.813086,379.99762 c -7.28646,-2.47426 -12.69761,-4.6226 -12.88712,-5.11645 -0.0818,-0.21315 -0.0118,-1.24216 0.15544,-2.2867 0.42274,-2.63964 1.83906,-5.42718 3.70171,-7.28555 5.30878,-5.29658 13.734904,-5.2646 18.951844,0.0719 2.50736,2.56484 3.8508,5.87006 3.82272,9.40493 l -0.0137,1.73035 -3.5226,2.64584 c -1.93742,1.4552 -3.74694,2.67316 -4.02115,2.70656 -0.2742,0.0334 -3.05839,-0.80851 -6.187094,-1.87092 z"
       id="path53" /><path
       style="display:inline;fill:#fbd11e"
       d="m 132.94434,399.47496 c -1.05597,-1.55082 -4.96344,-5.35998 -7.40834,-7.22194 -4.3903,-3.34354 -9.99817,-6.40046 -15.7427,-8.58153 -1.60073,-0.60776 -2.87479,-1.21619 -2.83123,-1.35206 0.0436,-0.13587 6.05621,-4.78912 13.36146,-10.34055 l 13.28227,-10.09351 0.0694,9.63049 c 0.0382,5.29677 0.0382,13.973 0,19.28051 l -0.0694,9.65001 z"
       id="path40" /><path
       style="display:inline;fill:#c2838f"
       d="m 86.154866,300.44838 c 0,-0.3638 0.06,-0.51263 0.13345,-0.33073 0.0734,0.1819 0.0734,0.47956 0,0.66146 -0.0734,0.1819 -0.13345,0.0331 -0.13345,-0.33073 z"
       id="path109" /><path
       style="display:inline;fill:#c2838f"
       d="m 108.88814,300.82321 c 0.0127,-0.30823 0.0754,-0.37092 0.15986,-0.15985 0.0764,0.19099 0.067,0.4192 -0.0209,0.50711 -0.0879,0.0879 -0.15046,-0.0683 -0.13897,-0.34726 z"
       id="path108" /><path
       style="display:inline;fill:#c2838f"
       d="m 86.398556,302.41071 c 0.0127,-0.30823 0.0754,-0.37092 0.15985,-0.15985 0.0764,0.19099 0.067,0.4192 -0.0209,0.50711 -0.0879,0.0879 -0.15046,-0.0683 -0.13897,-0.34726 z"
       id="path107" /><path
       style="display:inline;fill:#c2838f"
       d="m 108.62356,302.93988 c 0.0127,-0.30823 0.0754,-0.37092 0.15985,-0.15986 0.0764,0.191 0.067,0.4192 -0.0209,0.50712 -0.0879,0.0879 -0.15045,-0.0683 -0.13896,-0.34726 z"
       id="path106" /><path
       style="display:inline;fill:#c2838f"
       d="m 86.684026,304.41713 c 0,-0.3638 0.0601,-0.51263 0.13345,-0.33073 0.0734,0.1819 0.0734,0.47956 0,0.66146 -0.0734,0.1819 -0.13345,0.0331 -0.13345,-0.33073 z"
       id="path105" /><path
       style="display:inline;fill:#c2838f"
       d="m 108.37986,304.9463 c 0,-0.3638 0.0601,-0.51263 0.13346,-0.33073 0.0734,0.1819 0.0734,0.47956 0,0.66146 -0.0734,0.1819 -0.13346,0.0331 -0.13346,-0.33073 z"
       id="path104" /><path
       style="display:inline;fill:#c2838f"
       d="m 86.927726,306.37946 c 0.0127,-0.30823 0.0754,-0.37092 0.15985,-0.15985 0.0764,0.19099 0.067,0.4192 -0.0209,0.50711 -0.0879,0.0879 -0.15045,-0.0683 -0.13896,-0.34726 z"
       id="path103" /><path
       style="display:inline;fill:#c2838f"
       d="m 108.09439,306.90863 c 0.0127,-0.30823 0.0754,-0.37092 0.15986,-0.15986 0.0764,0.191 0.067,0.4192 -0.0209,0.50712 -0.0879,0.0879 -0.15046,-0.0683 -0.13897,-0.34726 z"
       id="path102" /><path
       style="display:inline;fill:#c2838f"
       d="m 87.192306,308.49613 c 0.0127,-0.30823 0.0754,-0.37092 0.15985,-0.15986 0.0764,0.191 0.067,0.4192 -0.0209,0.50712 -0.0879,0.0879 -0.15046,-0.0683 -0.13897,-0.34726 z"
       id="path101" /><path
       style="display:inline;fill:#c2838f"
       d="m 107.8507,308.91505 c 0,-0.3638 0.06,-0.51263 0.13345,-0.33073 0.0734,0.1819 0.0734,0.47956 0,0.66146 -0.0734,0.1819 -0.13345,0.0331 -0.13345,-0.33073 z"
       id="path100" /><path
       style="display:inline;fill:#c2838f"
       d="m 87.852956,305.01244 c -0.40624,-3.16507 -0.80088,-6.14164 -0.87698,-6.61458 l -0.13838,-0.85989 h 10.75025 c 9.582964,0 10.750244,0.045 10.750244,0.41453 0,0.228 -0.35719,3.09704 -0.79375,6.37564 -0.43656,3.27861 -0.79375,6.06863 -0.79375,6.20005 0,0.13756 -3.85235,0.23894 -9.079514,0.23894 h -9.07952 z"
       id="path99" /><path
       style="display:inline;fill:#c2838f"
       d="m 87.456886,310.34821 c 0.0127,-0.30823 0.0754,-0.37092 0.15986,-0.15985 0.0764,0.19099 0.067,0.4192 -0.0209,0.50711 -0.0879,0.0879 -0.15045,-0.0683 -0.13897,-0.34726 z"
       id="path98" /><path
       style="display:inline;fill:#c2838f"
       d="m 107.56523,310.87738 c 0.0127,-0.30823 0.0754,-0.37092 0.15985,-0.15986 0.0764,0.191 0.067,0.4192 -0.0209,0.50712 -0.0879,0.0879 -0.15045,-0.0683 -0.13896,-0.34726 z"
       id="path97" /><path
       style="display:inline;fill:#c2838f"
       d="m 87.721476,312.46488 c 0.0127,-0.30823 0.0754,-0.37092 0.15985,-0.15986 0.0764,0.191 0.067,0.4192 -0.0209,0.50712 -0.0879,0.0879 -0.15045,-0.0683 -0.13896,-0.34726 z"
       id="path96" /><path
       style="display:inline;fill:#c2838f"
       d="m 107.30064,312.99404 c 0.0127,-0.30822 0.0754,-0.37092 0.15986,-0.15985 0.0764,0.191 0.067,0.4192 -0.0209,0.50712 -0.0879,0.0879 -0.15046,-0.0684 -0.13897,-0.34727 z"
       id="path95" /><path
       style="display:inline;fill:#c2838f"
       d="m 88.006946,314.4713 c 0,-0.3638 0.06,-0.51263 0.13345,-0.33073 0.0734,0.1819 0.0734,0.47956 0,0.66146 -0.0734,0.1819 -0.13345,0.0331 -0.13345,-0.33073 z"
       id="path94" /><path
       style="display:inline;fill:#c2838f"
       d="m 107.03606,314.84613 c 0.0127,-0.30823 0.0754,-0.37092 0.15985,-0.15986 0.0764,0.191 0.067,0.4192 -0.0209,0.50712 -0.0879,0.0879 -0.15045,-0.0683 -0.13896,-0.34726 z"
       id="path93" /><path
       style="display:inline;fill:#c2838f"
       d="m 88.250636,316.43363 c 0.0127,-0.30823 0.0754,-0.37092 0.15986,-0.15986 0.0764,0.191 0.067,0.4192 -0.0209,0.50712 -0.0879,0.0879 -0.15045,-0.0683 -0.13897,-0.34726 z"
       id="path92" /><path
       style="display:inline;fill:#c2838f"
       d="m 106.77148,316.9628 c 0.0127,-0.30822 0.0754,-0.37092 0.15985,-0.15985 0.0764,0.191 0.067,0.4192 -0.0209,0.50712 -0.0879,0.0879 -0.15045,-0.0684 -0.13896,-0.34727 z"
       id="path91" /><path
       style="display:inline;fill:#c2838f"
       d="m 88.536116,318.44006 c 0,-0.3638 0.0601,-0.51263 0.13345,-0.33073 0.0734,0.1819 0.0734,0.47956 0,0.66146 -0.0734,0.1819 -0.13345,0.0331 -0.13345,-0.33073 z"
       id="path90" /><path
       style="display:inline;fill:#c2838f"
       d="m 106.52778,318.96923 c 0,-0.36381 0.0601,-0.51263 0.13345,-0.33073 0.0734,0.1819 0.0734,0.47955 0,0.66146 -0.0734,0.1819 -0.13345,0.0331 -0.13345,-0.33073 z"
       id="path89" /><path
       style="display:inline;fill:#c2838f"
       d="m 88.779806,320.40239 c 0.0127,-0.30823 0.0754,-0.37092 0.15985,-0.15986 0.0764,0.191 0.067,0.4192 -0.0209,0.50712 -0.0879,0.0879 -0.15046,-0.0683 -0.13897,-0.34726 z"
       id="path88" /><path
       style="display:inline;fill:#c2838f"
       d="m 106.24231,320.93155 c 0.0127,-0.30822 0.0754,-0.37092 0.15985,-0.15985 0.0764,0.191 0.067,0.4192 -0.0209,0.50712 -0.0879,0.0879 -0.15045,-0.0684 -0.13896,-0.34727 z"
       id="path87" /><path
       style="display:inline;fill:#c2838f"
       d="m 89.044386,322.51905 c 0.0127,-0.30822 0.0754,-0.37092 0.15986,-0.15985 0.0764,0.191 0.067,0.4192 -0.0209,0.50712 -0.0879,0.0879 -0.15045,-0.0683 -0.13897,-0.34727 z"
       id="path86" /><path
       style="display:inline;fill:#c2838f"
       d="m 105.99861,322.93798 c 0,-0.36381 0.0601,-0.51263 0.13346,-0.33073 0.0734,0.1819 0.0734,0.47955 0,0.66146 -0.0734,0.1819 -0.13346,0.0331 -0.13346,-0.33073 z"
       id="path85" /><path
       style="display:inline;fill:#c2838f"
       d="m 61.302476,314.40515 c -0.0331,-7.96726 0.0291,-14.48599 0.13821,-14.48605 0.18024,-1e-4 0.17732,10.51393 -0.007,23.81262 -0.0392,2.83765 -0.0985,-1.3593 -0.13158,-9.32657 z"
       id="path84" /><path
       style="display:inline;fill:#c2838f"
       d="m 117.28185,339.14485 c 1.49933,-0.0472 3.88058,-0.0471 5.29167,4.3e-4 1.41108,0.0475 0.18436,0.0861 -2.72606,0.0859 -2.91041,-2.4e-4 -4.06494,-0.0391 -2.56561,-0.0863 z"
       id="path83" /><path
       style="display:inline;fill:#c2838f"
       d="m 75.397456,339.34235 -5.29166,-0.14924 5.2099,-0.0577 c 3.2516,-0.036 5.27137,0.0418 5.37343,0.20691 0.0899,0.14552 0.12673,0.23863 0.0818,0.20692 -0.045,-0.0317 -2.46301,-0.12483 -5.37343,-0.20692 z"
       id="path82" /><path
       style="display:inline;fill:#c2838f"
       d="m 102.27356,343.15663 c 0.0127,-0.30822 0.0754,-0.37092 0.15985,-0.15985 0.0764,0.191 0.067,0.4192 -0.0209,0.50712 -0.0879,0.0879 -0.15045,-0.0684 -0.13896,-0.34727 z"
       id="path81" /><path
       style="display:inline;fill:#c2838f"
       d="m 93.277726,346.59622 c 0.0127,-0.30823 0.0754,-0.37092 0.15985,-0.15986 0.0764,0.191 0.067,0.4192 -0.0209,0.50712 -0.0879,0.0879 -0.15045,-0.0683 -0.13896,-0.34726 z"
       id="path80" /><path
       style="display:inline;fill:#c2838f"
       d="m 119.50948,347.70338 c 1.49558,-1.80427 5.27908,-6.3789 8.40777,-10.16585 3.1287,-3.78695 5.77784,-6.89463 5.88698,-6.90597 0.10914,-0.0113 0.19844,3.90637 0.19844,8.70601 v 8.72664 l -2.18046,1.45982 -2.18045,1.45983 h -6.42575 -6.42576 z"
       id="path79" /><path
       style="display:inline;fill:#c2838f"
       d="m 102.40182,350.52084 c 0.0548,-0.25466 0.82935,-6.05896 1.72126,-12.89844 0.89191,-6.83948 1.65145,-12.4671 1.68787,-12.50582 0.0364,-0.0387 3.33893,-0.0387 7.33893,0 l 7.27272,0.0704 -6.23598,12.89844 -6.23598,12.89844 h -2.82421 c -2.55129,0 -2.81459,-0.0447 -2.72461,-0.46302 z"
       id="path78" /><path
       style="display:inline;fill:#c2838f"
       d="m 86.871346,349.85938 c -1.36134,-2.66035 -11.60331,-23.84966 -11.74758,-24.30422 -0.15317,-0.48261 0.10056,-0.50047 7.11178,-0.50047 h 7.27061 l 0.15961,0.99219 c 0.0878,0.5457 0.81149,5.99281 1.60824,12.10469 0.79674,6.11187 1.51469,11.49945 1.59543,11.97239 l 0.14679,0.8599 h -2.78473 -2.78474 z"
       id="path77" /><path
       style="display:inline;fill:#c2838f"
       d="m 63.425066,349.47235 -2.18281,-1.49806 v -8.70372 c 0,-5.09847 0.0994,-8.66719 0.24007,-8.61553 0.13204,0.0485 3.83969,4.43398 8.23923,9.74549 4.39954,5.31151 8.17949,9.86565 8.39989,10.12031 0.3802,0.43929 0.0699,0.46268 -6.05642,0.4563 l -6.45715,-0.007 z"
       id="path76" /><path
       style="display:inline;fill:#c2838f"
       d="m 100.42148,356.91498 c 0.0127,-0.30823 0.0754,-0.37092 0.15985,-0.15986 0.0764,0.191 0.067,0.4192 -0.0209,0.50712 -0.0879,0.0879 -0.15045,-0.0684 -0.13896,-0.34726 z"
       id="path75" /><path
       style="display:inline;fill:#c2838f"
       d="m 94.865226,358.50247 c 0.0127,-0.30823 0.0754,-0.37092 0.15985,-0.15986 0.0764,0.191 0.067,0.4192 -0.0209,0.50712 -0.0879,0.0879 -0.15045,-0.0683 -0.13896,-0.34726 z"
       id="path73" /><path
       style="display:inline;fill:#c2838f"
       d="m 100.15689,359.03163 c 0.0127,-0.30822 0.0754,-0.37092 0.15986,-0.15985 0.0764,0.191 0.067,0.4192 -0.0209,0.50712 -0.0879,0.0879 -0.15045,-0.0684 -0.13897,-0.34727 z"
       id="path72" /><path
       style="display:inline;fill:#c2838f"
       d="m 96.911396,360.32806 c 0.19099,-0.0764 0.4192,-0.067 0.50711,0.0209 0.0879,0.0879 -0.0684,0.15045 -0.34726,0.13896 -0.30823,-0.0127 -0.37092,-0.0754 -0.15985,-0.15985 z"
       id="path71" /><path
       style="display:inline;fill:#c2838f"
       d="m 95.129806,360.35426 c 0.0127,-0.30822 0.0754,-0.37092 0.15985,-0.15985 0.0764,0.19099 0.067,0.4192 -0.0209,0.50712 -0.0879,0.0879 -0.15045,-0.0683 -0.13896,-0.34727 z"
       id="path70" /><path
       style="display:inline;fill:#c2838f"
       d="m 105.95684,361.99237 c 0,-0.0572 0.18478,-0.17489 0.41062,-0.26156 0.23545,-0.0904 0.34166,-0.046 0.24896,0.10399 -0.15537,0.25141 -0.65958,0.37186 -0.65958,0.15757 z"
       id="path69" /><path
       style="display:inline;fill:#c2838f"
       d="m 88.494336,364.90687 c 0,-0.0549 0.20836,-0.2633 0.46302,-0.46302 0.41964,-0.32911 0.429,-0.31975 0.0999,0.0999 -0.34564,0.44073 -0.56291,0.58088 -0.56291,0.36312 z"
       id="path68" /><path
       style="display:inline;fill:#c2838f"
       d="m 117.09139,367.02138 c 0.29986,-0.2776 16.71008,-7.06651 16.81869,-6.9579 0.11894,0.11895 -1.1373,1.12701 -6.59235,5.28999 l -2.31933,1.76996 h -4.00863 c -2.20474,0 -3.95902,-0.0459 -3.89838,-0.10205 z"
       id="path67" /><path
       style="display:inline;fill:#c2838f"
       d="m 68.361236,365.8542 c -3.43332,-2.45776 -7.70058,-6.21978 -6.58982,-5.80959 1.00829,0.37235 16.28271,6.86917 16.38105,6.96751 0.0612,0.0612 -1.72423,0.10673 -3.96768,0.10112 l -4.07899,-0.0102 z"
       id="path66" /><path
       style="display:inline;fill:#c2838f"
       d="m 71.150906,380.62535 c -4.0708,-0.36101 -7.55062,-1.27464 -9.12514,-2.39579 l -0.78351,-0.55792 v -8.05177 c 0,-4.42848 0.07,-8.05178 0.15562,-8.05178 0.0856,0 0.9488,0.72451 1.91823,1.61002 4.54251,4.14927 15.87188,10.53155 25.1072,14.14388 2.21651,0.86697 4.03221,1.64937 4.03489,1.73865 0.005,0.17474 -4.90327,0.86951 -8.99094,1.27262 -3.93777,0.38833 -9.69232,0.5248 -12.31635,0.29209 z"
       id="path65" /><path
       style="display:inline;fill:#c2838f"
       d="m 80.771806,381.49476 c 0.191,-0.0764 0.4192,-0.067 0.50712,0.0209 0.0879,0.0879 -0.0683,0.15045 -0.34726,0.13896 -0.30823,-0.0127 -0.37092,-0.0754 -0.15986,-0.15985 z"
       id="path64" /><path
       style="display:inline;fill:#c2838f"
       d="m 70.188476,381.49476 c 0.191,-0.0764 0.4192,-0.067 0.50712,0.0209 0.0879,0.0879 -0.0683,0.15045 -0.34727,0.13896 -0.30822,-0.0127 -0.37092,-0.0754 -0.15985,-0.15985 z"
       id="path63" /><path
       style="display:inline;fill:#c2838f"
       d="m 108.13965,385.1973 c 0.25466,-0.0665 0.67138,-0.0665 0.92604,0 0.25466,0.0666 0.0463,0.121 -0.46302,0.121 -0.50932,0 -0.71768,-0.0545 -0.46302,-0.121 z"
       id="path62" /><path
       style="display:inline;fill:#c2838f"
       d="m 104.96465,385.1973 c 0.25466,-0.0665 0.67138,-0.0665 0.92604,0 0.25466,0.0666 0.0463,0.121 -0.46302,0.121 -0.50932,0 -0.71768,-0.0545 -0.46302,-0.121 z"
       id="path61" /><path
       style="display:inline;fill:#c2838f"
       d="m 61.301176,390.7375 c -0.0324,-6.4393 0.0304,-11.70789 0.13951,-11.70798 0.18046,-1.4e-4 0.17675,8.85659 -0.008,19.31475 -0.0399,2.25557 -0.099,-1.16748 -0.13141,-7.60677 z"
       id="path60" /><path
       style="display:inline;fill:#c2838f"
       d="m 65.211136,402.37916 c 7e-5,-0.10914 0.98233,-0.53453 2.18281,-0.94531 6.23124,-2.13224 13.74571,-5.66093 19.8353,-9.31437 4.22578,-2.53526 7.96966,-4.09672 12.21959,-5.09641 2.555424,-0.6011 3.519334,-0.69109 7.434044,-0.69403 6.84292,-0.005 8.83617,0.60611 14.7679,4.52875 3.10619,2.05411 5.26973,3.80631 7.59056,6.14738 1.87901,1.8954 4.23216,4.83548 4.23216,5.28775 0,0.20171 -9.94715,0.28468 -34.131244,0.28468 -18.77219,0 -34.13119,-0.0893 -34.13112,-0.19844 z"
       id="path59" /><path
       style="display:inline;fill:#f07921"
       d="m 92.198046,337.55625 c -7e-4,-0.30194 -3.14695,-24.17037 -3.29582,-25.00313 l -0.13008,-0.7276 h 8.88018 8.880194 l -0.15593,0.99218 c -0.0858,0.54571 -0.80898,5.99282 -1.60716,12.10469 -0.79818,6.11188 -1.51778,11.49945 -1.59911,11.9724 l -0.14788,0.85989 h -5.411974 c -2.97658,0 -5.41217,-0.0893 -5.41242,-0.19843 z"
       id="path122" /><path
       style="display:inline;fill:#f07921"
       d="m 115.48184,338.00131 c 0,-0.31433 17.96002,-37.53823 18.30385,-37.93652 0.11934,-0.13825 0.21698,6.24998 0.21698,14.19606 v 14.44743 l -3.99112,4.78778 -3.99111,4.78779 h -5.2693 c -3.55971,0 -5.2693,-0.0917 -5.2693,-0.28254 z"
       id="path121" /><path
       style="display:inline;fill:#f07921"
       d="m 65.402926,333.59535 -3.89609,-4.6885 v -14.4056 c 0,-7.92308 0.0476,-14.35599 0.10572,-14.29535 0.0991,0.10332 18.03483,37.03124 18.33368,37.74722 0.10781,0.25828 -1.04324,0.33073 -5.25459,0.33073 h -5.39263 z"
       id="path120" /><path
       style="display:inline;fill:#f07921"
       d="m 102.25267,360.58271 c -0.3638,-0.0653 -0.75203,-0.20512 -0.86274,-0.31078 -0.11071,-0.10566 0.0373,-1.97081 0.32883,-4.14478 0.29157,-2.17397 0.53097,-3.98244 0.53202,-4.01882 10e-4,-0.0364 1.14291,-0.0661 2.53748,-0.0661 1.39757,0 2.49601,0.10724 2.4474,0.23893 -0.33658,0.91181 -4.08358,8.46587 -4.18924,8.44562 -0.0728,-0.014 -0.42995,-0.0788 -0.79375,-0.14402 z"
       id="path119" /><path
       style="display:inline;fill:#f07921"
       d="m 90.370186,357.01654 -2.33185,-4.84206 2.3887,-0.0767 c 1.52163,-0.0488 2.45355,0.0283 2.56734,0.21239 0.0983,0.15898 0.38238,1.97941 0.63139,4.04541 0.249,2.066 0.51204,3.95852 0.58453,4.20562 0.0902,0.30737 -0.12719,0.58319 -0.68823,0.87332 l -0.82002,0.42405 z"
       id="path118" /><path
       style="display:inline;fill:#f07921"
       d="m 108.4037,363.4847 -1.12502,-0.99147 4.30002,-5.21277 4.30001,-5.21277 6.06559,-0.0128 6.06559,-0.0128 -9.21234,6.21771 c -5.06679,3.41974 -9.22506,6.21739 -9.24059,6.21699 -0.0155,-3.9e-4 -0.5345,-0.44687 -1.15326,-0.99218 z"
       id="path117" /><path
       style="display:inline;fill:#f07921"
       d="m 77.725706,359.0994 c -5.41343,-3.67299 -9.92788,-6.76345 -10.03212,-6.86769 -0.10424,-0.10424 2.47946,-0.18655 5.74155,-0.18292 l 5.93107,0.007 4.95697,5.96938 4.95697,5.96938 -0.68889,0.90318 c -0.37889,0.49675 -0.76406,0.89802 -0.85593,0.8917 -0.0919,-0.006 -4.5962,-3.01665 -10.00962,-6.68963 z"
       id="path116" /><path
       style="display:inline;fill:#f07921"
       d="m 81.615166,373.29209 c -1.38244,-0.65624 -4.06135,-2.04476 -5.95312,-3.0856 l -3.43959,-1.89243 4.34642,-0.0729 4.34641,-0.0729 2.29092,0.97007 2.29092,0.97007 -0.34934,1.4841 c -0.19214,0.81626 -0.35121,1.81153 -0.35348,2.21171 -0.002,0.41612 -0.14572,0.71765 -0.33487,0.70435 -0.1819,-0.0128 -1.46182,-0.56019 -2.84427,-1.21642 z"
       id="path115" /><path
       style="display:inline;fill:#f07921"
       d="m 113.62661,374.08676 c -0.003,-1.38053 -0.39827,-3.37464 -0.92209,-4.64966 -0.38066,-0.92656 1.25423,-1.25533 6.24248,-1.25533 h 4.54048 l -4.20126,3.20181 c -2.31069,1.76099 -4.52868,3.43597 -4.92886,3.72218 l -0.7276,0.52037 z"
       id="path114" /><path
       style="display:inline;fill:#f07921"
       d="m 61.506836,390.80364 c 0,-6.33015 0.0451,-11.50937 0.10032,-11.50937 0.0552,0 0.73978,0.28943 1.52135,0.64317 2.54172,1.15041 4.96827,1.51845 10.95731,1.66191 5.90617,0.14148 11.04709,-0.23414 17.4082,-1.27192 l 3.13313,-0.51116 7.318494,2.39218 c 4.02517,1.31569 7.65334,2.5377 8.0626,2.71556 0.63144,0.27442 0.13067,0.32775 -3.30729,0.35222 -7.700284,0.0548 -12.793074,1.66221 -21.249324,6.70675 -5.68532,3.39156 -12.61353,6.51787 -20.20709,9.11832 -1.94609,0.66644 -3.5832,1.21172 -3.63802,1.21172 -0.0548,0 -0.0997,-5.17922 -0.0997,-11.50938 z"
       id="path38" /></g></svg>
