<?xml version="1.0" encoding="UTF-8" standalone="no"?>
<!-- Created with Inkscape (http://www.inkscape.org/) -->

<svg
   width="363.18466mm"
   height="322.90918mm"
   viewBox="0 0 363.18466 322.90918"
   version="1.1"
   id="svg1"
   xml:space="preserve"
   sodipodi:docname="daisy.svg"
   inkscape:version="1.4 (e7c3feb1, 2024-10-09)"
   xmlns:inkscape="http://www.inkscape.org/namespaces/inkscape"
   xmlns:sodipodi="http://sodipodi.sourceforge.net/DTD/sodipodi-0.dtd"
   xmlns="http://www.w3.org/2000/svg"
   xmlns:svg="http://www.w3.org/2000/svg"><sodipodi:namedview
     id="namedview1"
     pagecolor="#ffffff"
     bordercolor="#000000"
     borderopacity="0.25"
     inkscape:showpageshadow="2"
     inkscape:pageopacity="0.0"
     inkscape:pagecheckerboard="0"
     inkscape:deskcolor="#d1d1d1"
     inkscape:document-units="mm"
     inkscape:zoom="0.34572633"
     inkscape:cx="389.03604"
     inkscape:cy="630.55655"
     inkscape:window-width="1632"
     inkscape:window-height="767"
     inkscape:window-x="0"
     inkscape:window-y="25"
     inkscape:window-maximized="0"
     inkscape:current-layer="svg1" /><defs
     id="defs1" /><path
     style="fill-rule:evenodd;stroke-linecap:round;stroke-linejoin:round;fill:none;stroke:#000000"
     d="m 84.2299,220.07699 c 10.94864,2.31925 22.05482,4.29449 33.26361,5.88491 14.34539,2.20715 24.59513,3.16065 25.68318,3.25355 a 1.60016,1.60016 0 0 0 0.006,-0.002 c 25.67551,2.23544 49.18957,2.13305 72.96093,0.25631 -4.26392,5.9839 -8.6184,11.89551 -13.1346,17.66198 -8.36664,10.42635 -19.38656,23.33021 -31.80685,35.45675 -12.90156,12.59644 -27.16929,24.21987 -40.93755,30.97278 -13.76825,6.75291 -26.81326,8.6266 -37.87882,2.26395 h 0.004 c -7.00136,-4.04224 -11.3428,-10.83561 -13.85962,-19.26394 -2.51683,-8.42834 -3.14395,-18.43599 -2.67942,-28.50782 0.89098,-19.31797 5.71859,-38.58642 8.37881,-47.9764 z"
     id="path8" /><path
     style="fill-rule:evenodd;stroke-linecap:round;stroke-linejoin:round;fill:none;stroke:#000000"
     d="m 257.95057,165.59866 c 2.93474,6.43673 5.76288,12.91416 8.4062,19.45307 4.89275,12.53217 10.67471,28.82705 15.03113,45.90004 4.45806,17.47131 7.39109,35.63941 6.35516,50.93953 -1.03593,15.30011 -5.93529,27.53367 -16.97829,33.9354 -7.00083,4.04101 -15.05485,4.40368 -23.61148,2.36936 -8.55757,-2.03453 -17.53715,-6.49543 -26.02735,-11.93364 -16.28403,-10.43039 -30.55694,-24.24721 -37.35896,-31.24615 7.48083,-8.31996 14.74218,-16.94798 21.72219,-25.85734 9.08393,-11.31931 15.03477,-19.71901 15.66209,-20.61889 1.1e-4,-1.6e-4 0.002,-0.002 0.002,-0.002 3.1e-4,-4.5e-4 -3.2e-4,-0.002 0,-0.002 14.1813,-20.27105 26.26412,-41.09914 36.79724,-62.93724 z"
     id="path7" /><path
     style="fill-rule:evenodd;stroke-linecap:round;stroke-linejoin:round;fill:none;stroke:#000000"
     d="m 82.04399,106.40485 c 3.46349,10.63431 7.30167,21.2334 11.5254,31.72882 5.26399,13.53577 9.56679,22.89954 10.03142,23.89053 6e-5,1.2e-4 -5e-5,0.002 0,0.002 1.2e-4,2.6e-4 0.002,-2.6e-4 0.002,0 5.34909,11.45858 11.27779,22.89546 17.68936,34.11729 a 1.60016,1.60016 0 0 0 0.008,0.0114 c 5.8588,10.04253 12.10421,19.78081 18.56838,29.18943 -7.3076,-0.70002 -14.59806,-1.51431 -21.84363,-2.54093 -13.21604,-2.03243 -29.91164,-5.12655 -46.63281,-9.82213 C 54.03249,208.1064 36.83326,201.56172 24.10094,193.01452 11.36862,184.46732 3.22349,174.10899 3.20092,161.34461 c 6.1e-4,-8.08367 3.71368,-15.2395 9.75393,-21.63278 6.04074,-6.3938 14.39269,-11.94057 23.34741,-16.57419 17.17574,-8.88757 36.2801,-14.34175 45.74191,-16.73283 z"
     id="path6" /><path
     style="fill-rule:evenodd;stroke-linecap:round;stroke-linejoin:round;fill:none;stroke:#000000"
     d="m 223.47205,97.57697 c 11.72331,1.12677 23.38148,2.6737 34.9157,4.62866 10.51278,1.9189 21.74836,4.22247 33.40623,7.49618 17.35962,4.87487 34.55885,11.41954 47.29117,19.96674 12.73232,8.5472 20.87796,18.90758 20.90053,31.67197 -10e-4,8.08285 -3.71417,15.23797 -9.75392,21.63072 -6.04074,6.3938 -14.3932,11.94109 -23.34793,16.5747 -17.17593,8.88768 -36.28021,14.34127 -45.74191,16.73231 -3.52762,-10.83122 -7.45372,-21.62286 -11.76983,-32.30862 -4.90145,-12.55978 -8.70543,-20.88816 -9.49813,-22.58984 a 1.60016,1.60016 0 0 0 -0.14831,-0.71675 c -9.76099,-20.68866 -20.37771,-39.09379 -31.49007,-55.94749 -1.5661,-2.39862 -3.15174,-4.77935 -4.76353,-7.13858 z"
     id="path5" /><path
     style="fill-rule:evenodd;stroke-linecap:round;stroke-linejoin:round;fill:none;stroke:#000000"
     d="m 177.61438,95.3678 c 13.89433,-0.056 27.84039,0.62467 41.72872,1.83813 2.16568,3.11634 4.29691,6.34013 6.42545,9.5741 11.36348,17.44006 21.4946,35.89458 30.37696,54.92171 -10.52303,22.32292 -23.30439,43.92386 -37.63285,64.40279 -24.58014,2.0445 -49.66326,1.77737 -74.54842,-0.39068 -14.06078,-20.26481 -26.3727,-42.12251 -36.93779,-64.7578 -2.5e-4,-5.4e-4 2.5e-4,-0.001 0,-0.002 10.48033,-22.22639 23.1999,-43.73695 37.45507,-64.13665 10.96421,-0.9174 22.02686,-1.40479 33.13286,-1.44953 z"
     id="path4" /><path
     style="fill-rule:evenodd;stroke-linecap:round;stroke-linejoin:round;fill:none;stroke:#000000"
     d="m 106.61665,3.28712 c 3.03869,0.0212 6.17742,0.44681 9.38651,1.20974 8.55756,2.03453 17.53715,6.49543 26.02735,11.93364 16.28403,10.43039 30.55746,24.24723 37.35948,31.24616 -10.44477,11.61642 -20.44181,23.85733 -29.86536,36.58949 -3.84255,5.09055 -6.62053,8.8763 -7.1975,9.70122 a 1.60016,1.60016 0 0 0 -0.32401,0.18759 c -14.77583,21.12017 -26.44557,41.53862 -36.70732,63.06643 -3.04939,-6.6827 -5.98938,-13.40841 -8.72453,-20.20083 C 91.72463,124.56089 86.05941,108.56327 81.76701,91.74115 77.30895,74.26984 74.37746,56.10174 75.41339,40.80162 76.44925,25.50261 81.34831,13.26991 92.38961,6.86778 95.89029,4.84666 99.65422,3.74436 103.6127,3.40287 c 0.98962,-0.0854 1.99106,-0.12281 3.00395,-0.11575 z"
     id="path3" /><path
     style="fill-rule:evenodd;stroke-linecap:round;stroke-linejoin:round;fill:none;stroke:#000000"
     d="m 254.65826,3.19722 c 0.98444,-0.0322 1.96032,-0.0235 2.92695,0.0279 v 5.1e-4 c 4.63986,0.24657 9.06719,1.4732 13.21677,3.8592 6.99995,4.0424 11.34101,10.83605 13.85755,19.26342 2.51682,8.42833 3.14396,18.43444 2.67942,28.50627 -0.89098,19.31791 -5.7186,38.58847 -8.37881,47.97847 -4.00764,-0.84893 -8.04571,-1.62906 -12.09384,-2.3828 -0.0486,-0.01 -0.092,-0.0197 -0.14056,-0.0295 -2.53491,-0.47123 -5.07824,-0.90904 -7.62692,-1.34203 -20.84993,-3.81446 -37.32086,-5.45672 -38.93768,-5.59553 a 1.60016,1.60016 0 0 0 -0.30282,-0.17363 c -26.0822,-2.15154 -50.15324,-1.87907 -72.84568,-0.0899 1.65441,-2.32174 3.30427,-4.64382 4.99814,-6.93394 8.2368,-10.91254 22.59243,-28.99133 39.97689,-45.96464 12.90157,-12.59644 27.16877,-24.21987 40.93703,-30.97278 7.52952,-3.693 14.84248,-5.92584 21.73356,-6.15105 z"
     id="path2" /></svg>
