<?xml version="1.0" encoding="UTF-8" standalone="no"?>
<!-- Created with Inkscape (http://www.inkscape.org/) -->

<svg
   width="363.18466mm"
   height="322.90918mm"
   viewBox="0 0 363.18466 322.90918"
   version="1.1"
   id="svg1"
   xml:space="preserve"
   xmlns="http://www.w3.org/2000/svg"
   xmlns:svg="http://www.w3.org/2000/svg"><defs
     id="defs1" /><g
     id="layer1"
     transform="translate(709.14329,-123.73162)"><path
       d="m -489.41767,218.63627 c -27.444,-2.26387 -52.70073,-1.89738 -76.41188,0.16743 -15.51866,22.18196 -27.64594,43.52863 -38.26381,66.27451 5.33024,11.41838 11.24146,22.81807 17.632,34.00309 6.49135,11.12678 13.40826,21.94575 20.63181,32.2709 26.97018,2.34861 51.52032,2.17768 76.52763,0 14.90835,-21.31014 27.54741,-43.1938 38.43693,-66.27399 -11.81644,-25.04524 -24.84415,-46.86455 -38.55268,-66.44194 z"
       style="fill:none;fill-rule:evenodd;stroke:#000000;stroke-width:3.2;stroke-linecap:round;stroke-linejoin:round"
       id="path10781" /><g
       id="g10804"
       style="display:inline"><path
         id="path10775"
         style="fill:none;fill-rule:evenodd;stroke:#000000;stroke-width:3.2;stroke-linecap:round;stroke-linejoin:round"
         d="m -617.55455,129.2133 c -46.53125,26.97468 11.71847,152.14797 13.46119,155.86491 19.2837,-41.21638 46.09983,-80.10755 76.52763,-113.74241 -12.88838,-13.40631 -60.27586,-59.27728 -89.98882,-42.1225 z" /><path
         id="path10800"
         style="fill:none;fill-rule:evenodd;stroke:#000000;stroke-width:3.2;stroke-linecap:round;stroke-linejoin:round"
         d="m -437.54362,129.4294 c -46.62637,-26.80993 -125.90477,86.22249 -128.25237,89.59019 45.33628,-3.90801 92.42508,-0.13015 136.76762,9.40367 5.16602,-17.86483 21.19771,-81.83907 -8.51525,-98.99386 z" /><path
         id="path10801"
         style="fill:none;fill-rule:evenodd;stroke:#000000;stroke-width:3.2;stroke-linecap:round;stroke-linejoin:round"
         d="m -347.55865,285.06901 c -0.0951,-53.78458 -137.62324,-65.92548 -141.71355,-66.27471 26.05257,37.30836 46.32525,79.97739 60.23999,123.14607 18.0544,-4.45851 81.47357,-22.56178 81.47356,-56.87136 z" /><path
         id="path10802"
         style="fill:none;fill-rule:evenodd;stroke:#000000;stroke-width:3.2;stroke-linecap:round;stroke-linejoin:round"
         d="m -437.5769,440.94259 c 46.53126,-26.97464 -11.71849,-152.14796 -13.4612,-155.86489 -19.28371,41.21637 -46.09983,80.10754 -76.52763,113.7424 12.88838,13.40632 60.27586,59.27729 89.98883,42.12249 z" /><path
         id="path10803"
         style="fill:none;fill-rule:evenodd;stroke:#000000;stroke-width:3.2;stroke-linecap:round;stroke-linejoin:round"
         d="m -617.55453,440.94301 c 46.62635,26.80993 125.90475,-86.22249 128.25235,-89.59018 -45.33628,3.90799 -92.42507,0.13014 -136.76762,-9.40368 -5.16603,17.86482 -21.19771,81.83907 8.51527,98.99386 z" /><path
         id="path10804"
         style="fill:none;fill-rule:evenodd;stroke:#000000;stroke-width:3.2;stroke-linecap:round;stroke-linejoin:round"
         d="m -707.54336,285.07811 c 0.0951,53.78457 137.62324,65.92547 141.71355,66.2747 -26.05256,-37.30837 -46.32524,-79.97739 -60.23999,-123.14607 -18.0544,4.4585 -81.47357,22.56178 -81.47356,56.87137 z" /></g></g></svg>
