<?xml version="1.0" encoding="UTF-8" standalone="no"?>
<!-- Created with Inkscape (http://www.inkscape.org/) -->

<svg
   width="278.04559mm"
   height="370.93286mm"
   viewBox="0 0 278.04559 370.93286"
   version="1.1"
   id="svg1"
   xml:space="preserve"
   xmlns="http://www.w3.org/2000/svg"
   xmlns:svg="http://www.w3.org/2000/svg"><defs
     id="defs1" /><g
     id="layer1"
     transform="translate(403.09004,-438.23732)"><rect
       style="fill:none;fill-rule:evenodd;stroke:#0080ff;stroke-width:3.2;stroke-linecap:round;stroke-linejoin:round;stroke-dasharray:none"
       id="rect10762"
       width="245.15523"
       height="61.288807"
       x="-386.96072"
       y="439.83734" /><rect
       style="fill:none;fill-rule:evenodd;stroke:#0080ff;stroke-width:3.2;stroke-linecap:round;stroke-linejoin:round;stroke-dasharray:none"
       id="rect10767"
       width="245.15523"
       height="61.288807"
       x="-386.96072"
       y="746.28137" /><path
       style="fill:none;fill-rule:evenodd;stroke:#0080ff;stroke-width:3.2;stroke-linecap:round;stroke-linejoin:round;stroke-dasharray:none"
       d="m -386.96071,501.12615 c 0,0 -14.52933,40.29299 -14.52933,61.28881 -10e-6,20.99582 14.52932,61.28881 14.52932,61.28881 0,0 15.16104,40.24341 15.16104,61.28879 0,21.04539 -15.16103,61.2888 -15.16103,61.2888 h 30.64441 30.64441 c 0,0 15.16103,-40.24341 15.16103,-61.2888 0,-21.04538 -15.16104,-61.28879 -15.16104,-61.28879 0,0 -14.52934,-40.29299 -14.52935,-61.28881 0,-20.99582 14.52931,-61.28881 14.52931,-61.28881 h -30.64438 z"
       id="path10770" /><path
       style="fill:none;fill-rule:evenodd;stroke:#0080ff;stroke-width:3.2;stroke-linecap:round;stroke-linejoin:round;stroke-dasharray:none"
       d="m -325.67188,501.12616 c 0,0 -14.52933,40.29299 -14.52933,61.28881 -10e-6,20.99582 14.52932,61.28881 14.52932,61.28881 0,0 15.16104,40.24341 15.16104,61.28879 0,21.04539 -15.16103,61.2888 -15.16103,61.2888 h 30.64441 30.64441 c 0,0 15.16103,-40.24341 15.16103,-61.2888 0,-21.04538 -15.16104,-61.28879 -15.16104,-61.28879 0,0 -14.52934,-40.29299 -14.52935,-61.28881 0,-20.99582 14.52931,-61.28881 14.52931,-61.28881 h -30.64438 z"
       id="path10771" /><path
       style="fill:none;fill-rule:evenodd;stroke:#0080ff;stroke-width:3.2;stroke-linecap:round;stroke-linejoin:round;stroke-dasharray:none"
       d="m -264.38311,501.12616 c 0,0 -14.52933,40.29299 -14.52933,61.28881 -10e-6,20.99582 14.52932,61.28881 14.52932,61.28881 0,0 15.16104,40.24341 15.16104,61.28879 0,21.04539 -15.16103,61.2888 -15.16103,61.2888 h 30.64441 30.64441 c 0,0 15.16103,-40.24341 15.16103,-61.2888 0,-21.04538 -15.16104,-61.28879 -15.16104,-61.28879 0,0 -14.52934,-40.29299 -14.52935,-61.28881 0,-20.99582 14.52931,-61.28881 14.52931,-61.28881 h -30.64438 z"
       id="path10772" /><path
       style="fill:none;fill-rule:evenodd;stroke:#0080ff;stroke-width:3.2;stroke-linecap:round;stroke-linejoin:round;stroke-dasharray:none"
       d="m -203.09427,501.12616 c 0,0 -14.52933,40.29299 -14.52933,61.28881 -1e-5,20.99582 14.52932,61.28881 14.52932,61.28881 0,0 15.16104,40.24341 15.16104,61.28879 0,21.04539 -15.16103,61.2888 -15.16103,61.2888 h 30.64441 30.64441 c 0,0 15.16103,-40.24341 15.16103,-61.2888 0,-21.04538 -15.16104,-61.28879 -15.16104,-61.28879 0,0 -14.52934,-40.29299 -14.52935,-61.28881 0,-20.99582 14.52931,-61.28881 14.52931,-61.28881 h -30.64438 z"
       id="path10773" /></g></svg>
