<?xml version="1.0" encoding="UTF-8" standalone="no"?>
<!-- Created with Inkscape (http://www.inkscape.org/) -->

<svg
   width="285.33954mm"
   height="405.42572mm"
   viewBox="0 0 285.33954 405.42572"
   version="1.1"
   id="svg1"
   xml:space="preserve"
   xmlns="http://www.w3.org/2000/svg"
   xmlns:svg="http://www.w3.org/2000/svg"><defs
     id="defs1" /><g
     id="layer1"
     transform="translate(931.87875,632.45317)"><path
       style="fill:#c38490;fill-opacity:1;fill-rule:evenodd;stroke:#000000;stroke-linecap:round;stroke-linejoin:round"
       d="m -752.14479,-295.46685 h 5.2e-4 c 9.48438,-0.36744 18.78893,0.77821 27.67738,3.98425 0.004,10e-4 0.008,0.002 0.0119,0.004 10e-4,5e-4 0.003,10e-4 0.004,0.002 42.54921,15.35891 75.50742,61.93039 76.50541,63.34963 h -281.31823 c 4.83082,-1.59799 60.16013,-20.03255 93.17777,-37.81837 25.38068,-13.67201 55.47511,-28.41855 83.94113,-29.52171 z"
       id="path11040" /><path
       style="fill:#f57b20;fill-opacity:1;fill-rule:evenodd;stroke:#000000;stroke-linecap:round;stroke-linejoin:round"
       d="m -930.77936,-322.89257 c 0.34828,0.13842 6.05556,2.41265 13.71286,4.99608 7.88651,2.66075 17.41492,5.49962 24.05848,6.20324 15.5531,1.64725 38.86377,-0.17797 58.30496,-2.41019 19.36299,-2.22323 34.79945,-4.84008 34.92397,-4.8612 23.37505,9.32461 55.8841,20.68779 66.93545,24.53287 -33.92691,-7.32256 -72.32613,11.15056 -103.52546,27.95695 -34.06661,18.35087 -93.24211,37.84447 -94.41026,38.22867 z"
       id="path11039" /><path
       style="fill:#f57b20;fill-opacity:1;fill-rule:evenodd;stroke:#000000;stroke-linecap:round;stroke-linejoin:round"
       d="m -889.42375,-362.09792 h 38.21679 l 18.84743,7.76955 c -2.13492,5.76077 -3.35897,11.96196 -3.35897,18.46295 0,0.62971 0.0204,1.25933 0.0429,1.88878 -14.42391,-5.97897 -28.65905,-12.37013 -40.93548,-19.54661 -3.81316,-2.22907 -8.2457,-5.28164 -12.81266,-8.57467 z"
       id="path11038" /><path
       style="fill:#f57b20;fill-opacity:1;fill-rule:evenodd;stroke:#000000;stroke-linecap:round;stroke-linejoin:round"
       d="m -722.41017,-362.23642 h 38.91029 l -46.08401,34.42012 c 0.40792,-2.66481 0.66611,-5.35267 0.66611,-8.04912 0,-7.5653 -1.60196,-14.75032 -4.44934,-21.2695 z"
       id="path11037" /><path
       style="fill:#fdd31f;fill-opacity:1;fill-rule:evenodd;stroke:#000000;stroke-linecap:round;stroke-linejoin:round"
       d="m -647.63851,-388.27359 v 159.55874 c -1.49613,-2.12398 -34.12756,-47.99411 -76.61341,-63.32792 -10e-4,-4.3e-4 -0.003,4.3e-4 -0.004,0 l -0.0233,-0.008 c -0.0237,-0.008 -16.43268,-5.71138 -35.38492,-12.54704 z"
       id="path11036" /><path
       style="fill:#fdd31f;fill-opacity:1;fill-rule:evenodd;stroke:#000000;stroke-linecap:round;stroke-linejoin:round"
       d="m -782.31814,-388.57228 c 29.16443,0 52.8004,23.59427 52.8004,52.70686 0,2.85708 -0.24184,5.70835 -0.70487,8.52765 l -30.0452,22.44152 a 0.300001,0.300001 0 0 0 -0.0387,0.0641 c -13.46146,-4.85925 -27.97947,-10.1907 -39.33042,-14.72055 -11.09485,-4.42765 -23.33714,-9.18123 -35.43143,-14.18156 -0.029,-0.70971 -0.0486,-1.42058 -0.0486,-2.13114 0,-29.11259 23.63441,-52.70686 52.79884,-52.70686 z"
       id="path11035" /><path
       style="fill:#c38490;fill-opacity:1;fill-rule:evenodd;stroke:#000000;stroke-linecap:round;stroke-linejoin:round"
       d="m -929.42596,-394.33988 76.75811,31.64044 h -37.59564 c -17.97829,-13.06311 -37.28366,-29.98694 -39.16247,-31.64044 z"
       id="path11034" /><path
       style="fill:#c38490;fill-opacity:1;fill-rule:evenodd;stroke:#000000;stroke-linecap:round;stroke-linejoin:round"
       d="m -930.77936,-394.69904 c 0.67445,0.59549 21.4964,18.92345 40.09161,32.4373 a 0.300001,0.300001 0 0 0 0.2129,0.15245 c 4.8317,3.5047 9.52839,6.746 13.56093,9.10332 12.40283,7.25037 26.76771,13.68671 41.30653,19.70525 a 0.300001,0.300001 0 0 0 0.25993,0.16795 0.300001,0.300001 0 0 0 0.0992,-0.0233 c 11.74041,4.85269 23.56066,9.44853 34.37516,13.75368 -1.52032,0.25533 -15.49674,2.59024 -33.89819,4.70307 -19.42393,2.23023 -42.73,4.04591 -58.17423,2.41019 -6.53469,-0.6921 -16.05769,-3.52065 -23.92773,-6.17585 -7.76438,-2.61956 -13.74206,-5.00105 -13.90613,-5.06636 z"
       id="path11033" /><path
       style="fill:#faaa53;fill-opacity:1;fill-rule:evenodd;stroke:#000000;stroke-linecap:round;stroke-linejoin:round"
       d="m -835.287,-397.04876 h 18.82779 l 7.39697,15.09572 c -3.10035,1.79721 -5.89432,4.01097 -8.55865,6.37273 z"
       id="path11032" /><path
       style="fill:#c38490;fill-opacity:1;fill-rule:evenodd;stroke:#000000;stroke-linecap:round;stroke-linejoin:round"
       d="m -647.63851,-397.05676 v 8.03362 l -35.05884,26.18703 h -38.42556 z"
       id="path11031" /><path
       style="fill:#faaa53;fill-opacity:1;fill-rule:evenodd;stroke:#000000;stroke-linecap:round;stroke-linejoin:round"
       d="m -704.56061,-397.09556 h 55.58575 l -84.65219,39.41982 c -2.20281,-4.89115 -5.25034,-9.26939 -8.75399,-13.24416 z"
       id="path11030" /><path
       style="fill:#faaa53;fill-opacity:1;fill-rule:evenodd;stroke:#000000;stroke-linecap:round;stroke-linejoin:round"
       d="m -930.77936,-397.23612 h 58.57988 l 45.69386,31.457 c -2.29255,3.36758 -4.1666,7.02799 -5.64669,10.88667 l -18.87481,-7.77937 -0.006,-0.004 a 0.300001,0.300001 0 0 0 -0.006,-0.002 l -79.73983,-32.8688 z"
       id="path11029" /><path
       style="fill:#faaa53;fill-opacity:1;fill-rule:evenodd;stroke:#000000;stroke-linecap:round;stroke-linejoin:round"
       d="m -759.69161,-397.37875 h 18.93786 l -13.5878,16.17163 c -3.34245,-2.05999 -6.91753,-3.76524 -10.69547,-5.05654 z"
       id="path11028" /><path
       style="fill:#faaa53;fill-opacity:1;fill-rule:evenodd;stroke:#000000;stroke-linecap:round;stroke-linejoin:round"
       d="m -800.22661,-407.35178 h 24.72666 l -2.53318,18.39681 c -1.41772,-0.11275 -2.83829,-0.21704 -4.28501,-0.21704 -5.26876,0 -10.34649,0.79158 -15.15463,2.21123 z"
       id="path11027" /><path
       style="fill:#f57b20;fill-opacity:1;fill-rule:evenodd;stroke:#000000;stroke-linecap:round;stroke-linejoin:round"
       d="m -828.44711,-422.879 h 25.51731 l 4.87102,36.0686 c -3.6887,1.1348 -7.18983,2.68142 -10.4898,4.54494 z"
       id="path11026" /><path
       style="fill:#f57b20;fill-opacity:1;fill-rule:evenodd;stroke:#000000;stroke-linecap:round;stroke-linejoin:round"
       d="m -718.46106,-422.9767 h 50.23828 l -74.54067,51.59169 c -3.26902,-3.62569 -6.91212,-6.88423 -11.05875,-9.50537 l 13.92576,-16.57625 z"
       id="path11025" /><path
       style="fill:#f57b20;fill-opacity:1;fill-rule:evenodd;stroke:#000000;stroke-linecap:round;stroke-linejoin:round"
       d="m -908.54713,-422.9881 h 51.139 l 39.32421,47.78881 c -2.98287,2.70422 -5.72849,5.6449 -8.03723,8.95501 z"
       id="path11024" /><path
       style="fill:#f57b20;fill-opacity:1;fill-rule:evenodd;stroke:#000000;stroke-linecap:round;stroke-linejoin:round"
       d="m -772.71304,-423.17982 h 24.76748 l -17.65577,36.71093 c -3.77726,-1.24335 -7.73317,-2.08496 -11.83029,-2.45669 z"
       id="path11023" /><path
       style="fill:#fdd31f;fill-opacity:1;fill-rule:evenodd;stroke:#000000;stroke-linecap:round;stroke-linejoin:round"
       d="m -647.63851,-436.49219 v 38.77334 l -0.0491,0.0233 h -56.00743 z"
       id="path11022" /><path
       style="fill:#fdd31f;fill-opacity:1;fill-rule:evenodd;stroke:#000000;stroke-linecap:round;stroke-linejoin:round"
       d="m -930.77936,-437.56654 57.70914,39.73039 h -57.70914 z"
       id="path11021" /><path
       style="fill:#fdd31f;fill-opacity:1;fill-rule:evenodd;stroke:#000000;stroke-linecap:round;stroke-linejoin:round"
       d="m -896.08226,-470.93143 h 43.42009 l 35.90841,73.28286 h -19.02572 l -21.27312,-25.85165 z"
       id="path11020" /><path
       style="fill:#fdd31f;fill-opacity:1;fill-rule:evenodd;stroke:#000000;stroke-linecap:round;stroke-linejoin:round"
       d="m -724.2483,-471.06631 h 45.41067 l -39.97483,47.57591 -21.43745,25.51162 h -19.15232 z"
       id="path11019" /><path
       style="fill:#fdd31f;fill-opacity:1;fill-rule:evenodd;stroke:#000000;stroke-linecap:round;stroke-linejoin:round"
       d="m -809.05656,-472.74011 h 42.56433 l -8.92556,64.78881 h -24.88892 z"
       id="path11018" /><path
       style="fill:#c38490;fill-opacity:1;fill-rule:evenodd;stroke:#000000;stroke-linecap:round;stroke-linejoin:round"
       d="m -647.63851,-507.26358 v 70.04069 l -19.71507,13.64464 h -50.60156 l 39.97482,-47.57591 z"
       id="path11017" /><path
       style="fill:#c38490;fill-opacity:1;fill-rule:evenodd;stroke:#000000;stroke-linecap:round;stroke-linejoin:round"
       d="m -930.77936,-512.15424 33.84961,41.13444 39.02914,47.43173 h -51.51727 l -21.36148,-14.70711 z"
       id="path11016" /><path
       style="fill:#c38490;fill-opacity:1;fill-rule:evenodd;stroke:#000000;stroke-linecap:round;stroke-linejoin:round"
       d="m -877.94744,-523.90029 h 61.37506 l 13.56248,100.41971 h -25.73228 l -23.4549,-47.86685 z"
       id="path11015" /><path
       style="fill:#c38490;fill-opacity:1;fill-rule:evenodd;stroke:#000000;stroke-linecap:round;stroke-linejoin:round"
       d="m -758.54491,-526.03504 h 60.0723 l -49.18356,102.2537 h -24.97471 z"
       id="path11014" /><path
       style="fill:#f57b20;fill-opacity:1;fill-rule:evenodd;stroke:#000000;stroke-linecap:round;stroke-linejoin:round"
       d="m -822.78492,-574.40212 h 70.29648 l -13.92163,101.06205 h -42.72659 z"
       id="path11013" /><path
       style="fill:#f57b20;fill-opacity:1;fill-rule:evenodd;stroke:#000000;stroke-linecap:round;stroke-linejoin:round"
       d="m -647.63851,-630.33772 v 122.14035 l -30.69528,36.5311 h -45.62512 z"
       id="path11012" /><path
       style="fill:#f57b20;fill-opacity:1;fill-rule:evenodd;stroke:#000000;stroke-linecap:round;stroke-linejoin:round"
       d="m -930.77936,-630.36152 77.82419,158.82854 h -43.62111 l -34.20308,-41.5649 z"
       id="path11011" /><path
       style="fill:#faaa53;fill-opacity:1;fill-rule:evenodd;stroke:#000000;stroke-linecap:round;stroke-linejoin:round"
       d="m -744.03882,-631.35371 h 96.22255 l -50.36747,104.71712 h -60.27901 z"
       id="path11010" /><path
       style="fill:#c38490;fill-opacity:1;fill-rule:evenodd;stroke:#000000;stroke-linecap:round;stroke-linejoin:round"
       d="m -830.47644,-631.35371 h 85.83197 l -7.7618,56.3516 h -70.45875 z"
       id="path11009" /><path
       style="fill:#faaa53;fill-opacity:1;fill-rule:evenodd;stroke:#000000;stroke-linecap:round;stroke-linejoin:round"
       d="m -930.59746,-631.35371 h 99.51537 l 14.42961,106.85394 h -61.58797 z"
       id="path11008" /><path
       style="fill:none;fill-rule:evenodd;stroke:#000000;stroke-linecap:round;stroke-linejoin:round"
       d="m -931.07805,-631.95316 a 0.300031,0.300031 0 0 0 -0.0253,0.0253 0.300001,0.300001 0 0 0 -0.10749,0.006 0.300001,0.300001 0 0 0 -0.14676,0.24804 0.300031,0.300031 0 0 0 -0.0212,0.0212 v 234.11749 169.70696 a 0.300031,0.300031 0 0 0 0.0408,0.0408 0.300001,0.300001 0 0 0 -0.0253,0.0527 0.300001,0.300001 0 0 0 0.25994,0.1819 0.300031,0.300031 0 0 0 0.0253,0.0253 h 283.73823 a 0.300031,0.300031 0 0 0 0.0212,-0.0217 0.300001,0.300001 0 0 0 0.1509,-0.0331 0.300001,0.300001 0 0 0 0.12454,-0.24237 0.300031,0.300031 0 0 0 0.004,-0.004 v -169.6732 -234.15056 a 0.300031,0.300031 0 0 0 -0.004,-0.004 0.300001,0.300001 0 0 0 -0.16588,-0.26717 0.300001,0.300001 0 0 0 -0.10749,-0.006 0.300031,0.300031 0 0 0 -0.0233,-0.0233 z"
       id="path11007" /></g></svg>
