<?xml version="1.0" encoding="UTF-8" standalone="no"?>
<!-- Created with Inkscape (http://www.inkscape.org/) -->

<svg
   width="329.39236mm"
   height="316.88373mm"
   viewBox="0 0 329.39236 316.88373"
   version="1.1"
   id="svg1"
   xml:space="preserve"
   xmlns="http://www.w3.org/2000/svg"
   xmlns:svg="http://www.w3.org/2000/svg"><defs
     id="defs1" /><path
     style="fill:none;fill-rule:evenodd;stroke-linecap:round;stroke-linejoin:round;stroke:#000000"
     d="m 219.01971,191.7738 52.78695,30.38265 0.0822,60.8986 -52.78489,30.38265 -52.78541,-30.3811 0.0822,-60.90429 25.91573,-15.00942 z"
     id="path8" /><path
     style="fill:none;fill-rule:evenodd;stroke-linecap:round;stroke-linejoin:round;stroke:#000000"
     d="m 110.24443,191.7738 52.78903,30.38265 0.0822,60.8986 -52.78541,30.38265 -52.784891,-30.3811 0.08165,-60.90429 26.236642,-15.19494 z"
     id="path7" /><path
     style="fill:none;fill-rule:evenodd;stroke-linecap:round;stroke-linejoin:round;stroke:#000000"
     d="m 164.54913,97.71908 52.78696,30.38264 0.0822,60.80663 -26.23457,15.19338 -26.55084,15.28124 -52.6619,-30.49995 -0.0605,-46.00804 0.0196,-14.77533 26.65987,-15.44143 z"
     id="path6" /><path
     style="fill:none;fill-rule:evenodd;stroke-linecap:round;stroke-linejoin:round;stroke:#000000"
     d="m 273.48873,97.62348 52.62108,30.47617 0.0801,60.9043 -52.78334,30.37902 -52.78541,-30.57229 0.0822,-60.71103 26.61543,-15.41404 z"
     id="path5" /><path
     style="fill:none;fill-rule:evenodd;stroke-linecap:round;stroke-linejoin:round;stroke:#000000"
     d="m 55.818815,97.59968 52.870675,30.42811 0.0196,14.78515 -0.0605,46.09331 L 82.613567,203.9844 55.986769,219.31059 3.20136,188.93002 3.28353,128.02573 Z"
     id="path4" /><path
     style="fill:none;fill-rule:evenodd;stroke-linecap:round;stroke-linejoin:round;stroke:#000000"
     d="m 218.93599,3.5217 52.70273,30.5232 0.0801,60.80869 -26.66555,15.44557 -26.11572,15.02906 -52.66397,-30.49995 -0.0625,-46.18736 0.0196,-14.59601 z"
     id="path3" /><path
     style="fill:none;fill-rule:evenodd;stroke-linecap:round;stroke-linejoin:round;stroke:#000000"
     d="m 110.28939,3.4494 52.70324,30.52165 0.0191,14.77895 -0.062,46.10157 -26.4573,15.32465 -26.20305,15.0797 -52.785405,-30.57229 0.08216,-60.71258 z"
     id="path2" /></svg>
