<?xml version="1.0" encoding="UTF-8" standalone="no"?>
<!-- Created with Inkscape (http://www.inkscape.org/) -->

<svg
   width="329.39236mm"
   height="316.88373mm"
   viewBox="0 0 329.39236 316.88373"
   version="1.1"
   id="svg1"
   xml:space="preserve"
   xmlns="http://www.w3.org/2000/svg"
   xmlns:svg="http://www.w3.org/2000/svg"><defs
     id="defs1" /><g
     id="layer1"
     transform="translate(84.869431,-471.2908)"><path
       style="fill:none;fill-rule:evenodd;stroke:#0080ff;stroke-width:3.2;stroke-linecap:round;stroke-linejoin:round;stroke-dasharray:none"
       id="path10745"
       d="m 74.282223,522.54014 -54.386502,31.30257 -54.386505,-31.30257 0.08443,-62.75138 54.302078,-31.44881 54.302075,31.44881 z"
       transform="translate(59.867713,138.67787)" /><path
       style="fill:none;fill-rule:evenodd;stroke:#0080ff;stroke-width:3.2;stroke-linecap:round;stroke-linejoin:round;stroke-dasharray:none"
       id="path10757"
       d="m 74.282223,522.54014 -54.386502,31.30257 -54.386505,-31.30257 0.08443,-62.75138 54.302078,-31.44881 54.302075,31.44881 z"
       transform="translate(114.16978,44.623915)" /><path
       style="fill:none;fill-rule:evenodd;stroke:#0080ff;stroke-width:3.2;stroke-linecap:round;stroke-linejoin:round;stroke-dasharray:none"
       id="path10758"
       d="m 74.282223,522.54014 -54.386502,31.30257 -54.386505,-31.30257 0.08443,-62.75138 54.302078,-31.44881 54.302075,31.44881 z"
       transform="translate(168.64072,138.67787)" /><path
       style="fill:none;fill-rule:evenodd;stroke:#0080ff;stroke-width:3.2;stroke-linecap:round;stroke-linejoin:round;stroke-dasharray:none"
       id="path10759"
       d="m 74.282223,522.54014 -54.386502,31.30257 -54.386505,-31.30257 0.08443,-62.75138 54.302078,-31.44881 54.302075,31.44881 z"
       transform="translate(114.33865,232.73183)" /><path
       style="fill:none;fill-rule:evenodd;stroke:#0080ff;stroke-width:3.2;stroke-linecap:round;stroke-linejoin:round;stroke-dasharray:none"
       id="path10760"
       d="m 74.282223,522.54014 -54.386502,31.30257 -54.386505,-31.30257 0.08443,-62.75138 54.302078,-31.44881 54.302075,31.44881 z"
       transform="translate(5.5656454,232.73183)" /><path
       style="fill:none;fill-rule:evenodd;stroke:#0080ff;stroke-width:3.2;stroke-linecap:round;stroke-linejoin:round;stroke-dasharray:none"
       id="path10761"
       d="m 74.282223,522.54014 -54.386502,31.30257 -54.386505,-31.30257 0.08443,-62.75138 54.302078,-31.44881 54.302075,31.44881 z"
       transform="translate(-48.778646,138.60476)" /><path
       style="fill:none;fill-rule:evenodd;stroke:#0080ff;stroke-width:3.2;stroke-linecap:round;stroke-linejoin:round;stroke-dasharray:none"
       id="path10762"
       d="m 74.282223,522.54014 -54.386502,31.30257 -54.386505,-31.30257 0.08443,-62.75138 54.302078,-31.44881 54.302075,31.44881 z"
       transform="translate(5.5234224,44.550801)" /></g></svg>
