<?xml version="1.0" encoding="UTF-8" standalone="no"?>
<!-- Created with Inkscape (http://www.inkscape.org/) -->

<svg
   width="210mm"
   height="297mm"
   viewBox="0 0 210 297"
   version="1.1"
   id="svg1"
   inkscape:version="1.4 (e7c3feb1, 2024-10-09)"
   sodipodi:docname="mountain.svg"
   inkscape:export-filename="/Users/jamescbury/Desktop/mountain.png"
   inkscape:export-xdpi="96"
   inkscape:export-ydpi="96"
   xmlns:inkscape="http://www.inkscape.org/namespaces/inkscape"
   xmlns:sodipodi="http://sodipodi.sourceforge.net/DTD/sodipodi-0.dtd"
   xmlns="http://www.w3.org/2000/svg"
   xmlns:svg="http://www.w3.org/2000/svg">
  <sodipodi:namedview
     id="namedview1"
     pagecolor="#ffffff"
     bordercolor="#000000"
     borderopacity="0.25"
     inkscape:showpageshadow="2"
     inkscape:pageopacity="0.0"
     inkscape:pagecheckerboard="0"
     inkscape:deskcolor="#d1d1d1"
     inkscape:document-units="mm"
     inkscape:zoom="0.84808131"
     inkscape:cx="521.17644"
     inkscape:cy="646.75402"
     inkscape:window-width="1664"
     inkscape:window-height="964"
     inkscape:window-x="0"
     inkscape:window-y="25"
     inkscape:window-maximized="0"
     inkscape:current-layer="layer1" />
  <defs
     id="defs1">
    <inkscape:path-effect
       effect="simplify"
       id="path-effect12"
       is_visible="true"
       lpeversion="1.3"
       threshold="19.298246"
       steps="1"
       smooth_angles="360"
       helper_size="0"
       simplify_individual_paths="false"
       simplify_just_coalesce="false" />
    <inkscape:path-effect
       effect="simplify"
       id="path-effect11"
       is_visible="true"
       lpeversion="1.3"
       threshold="19.298246"
       steps="1"
       smooth_angles="360"
       helper_size="0"
       simplify_individual_paths="false"
       simplify_just_coalesce="false" />
    <inkscape:path-effect
       effect="simplify"
       id="path-effect10"
       is_visible="true"
       lpeversion="1.3"
       threshold="19.298246"
       steps="1"
       smooth_angles="360"
       helper_size="0"
       simplify_individual_paths="false"
       simplify_just_coalesce="false" />
    <inkscape:path-effect
       effect="simplify"
       id="path-effect9"
       is_visible="true"
       lpeversion="1.3"
       threshold="19.298246"
       steps="1"
       smooth_angles="360"
       helper_size="0"
       simplify_individual_paths="false"
       simplify_just_coalesce="false" />
    <inkscape:path-effect
       effect="simplify"
       id="path-effect8"
       is_visible="true"
       lpeversion="1.3"
       threshold="19.298246"
       steps="1"
       smooth_angles="360"
       helper_size="0"
       simplify_individual_paths="false"
       simplify_just_coalesce="false" />
    <inkscape:path-effect
       effect="simplify"
       id="path-effect7"
       is_visible="true"
       lpeversion="1.3"
       threshold="19.298246"
       steps="1"
       smooth_angles="360"
       helper_size="0"
       simplify_individual_paths="false"
       simplify_just_coalesce="false" />
    <inkscape:path-effect
       effect="simplify"
       id="path-effect6"
       is_visible="true"
       lpeversion="1.3"
       threshold="19.298246"
       steps="1"
       smooth_angles="360"
       helper_size="0"
       simplify_individual_paths="false"
       simplify_just_coalesce="false" />
    <inkscape:path-effect
       effect="simplify"
       id="path-effect5"
       is_visible="true"
       lpeversion="1.3"
       threshold="19.298246"
       steps="1"
       smooth_angles="360"
       helper_size="0"
       simplify_individual_paths="false"
       simplify_just_coalesce="false" />
    <inkscape:path-effect
       effect="simplify"
       id="path-effect4"
       is_visible="true"
       lpeversion="1.3"
       threshold="19.298246"
       steps="1"
       smooth_angles="360"
       helper_size="0"
       simplify_individual_paths="false"
       simplify_just_coalesce="false" />
    <inkscape:path-effect
       effect="simplify"
       id="path-effect3"
       is_visible="true"
       lpeversion="1.3"
       threshold="19.298246"
       steps="1"
       smooth_angles="360"
       helper_size="0"
       simplify_individual_paths="false"
       simplify_just_coalesce="false" />
  </defs>
  <g
     inkscape:label="Layer 1"
     inkscape:groupmode="layer"
     id="layer1">
    <path
       style="fill-rule:evenodd;stroke-linecap:round;stroke-linejoin:round;fill:#079a67;fill-opacity:1"
       d="m 99.592284,193.05885 c -0.22985,0.85214 -0.81498,3.12297 -2.13269,6.84558 -1.54103,4.35347 -3.69631,9.41381 -5.95312,12.10727 -2.66929,3.18575 -8.0823,6.71658 -12.80439,9.39633 -4.56183,2.5888 -8.19673,4.26058 -8.45736,4.38113 -6.08356,-3.06879 -11.74391,-6.82709 -16.86719,-11.22102 z"
       id="path88" />
    <path
       style="fill-rule:evenodd;stroke-linecap:round;stroke-linejoin:round;fill:#98a867;fill-opacity:1"
       d="m 100.83872,192.7519 c 0.54986,0.21303 8.97994,3.41461 18.9239,6.76548 a 0.55000001,0.55000001 0 0 0 0.49972,0.47697 0.55000001,0.55000001 0 0 0 0.24598,-0.23048 c 6.86323,2.2973 14.05355,4.55452 19.45307,5.6503 9.58395,1.94497 27.31041,2.54388 29.39097,2.61121 -15.32775,16.44644 -37.11731,26.79113 -61.37713,26.79113 -13.097766,0 -25.445546,-3.08342 -36.492346,-8.42997 0.8264,-0.38704 3.57577,-1.64592 7.7618,-4.02146 4.76623,-2.70479 10.22628,-6.21448 13.1036,-9.64851 2.46484,-2.94174 4.5905,-8.04393 6.14846,-12.44524 1.44706,-4.08803 2.216196,-7.0451 2.341976,-7.51943 z"
       id="path87" />
    <path
       style="fill-rule:evenodd;stroke-linecap:round;stroke-linejoin:round;fill:#99ccff;fill-opacity:1"
       d="m 66.890404,177.00247 c 9.89142,0.15944 23.95253,1.91607 25.22172,2.07584 -1.72421,1.37508 -3.45018,2.74365 -5.29684,3.93723 -13.43258,8.68213 -42.61211,21.33011 -43.29296,21.62504 -5.57124,-6.66819 -10.09153,-14.22365 -13.39453,-22.41 1.13864,-0.24561 21.92529,-4.71677 32.82797,-5.18935 1.19341,-0.0517 2.52158,-0.0615 3.93464,-0.0388 z"
       id="path86" />
    <path
       style="fill-rule:evenodd;stroke-linecap:round;stroke-linejoin:round;fill:#99ccff"
       d="m 171.35999,154.04883 19.8515,7.34167 c -1.28701,10.2536 -4.38009,19.93721 -9.0196,28.69541 L 156.89886,171.1682 c 7.14849,-3.1225 12.54062,-9.41733 14.46113,-17.11937 z"
       id="path85" />
    <path
       style="fill-rule:evenodd;stroke-linecap:round;stroke-linejoin:round;fill:#55a867;fill-opacity:1"
       d="m 134.56896,151.70324 20.89278,19.75952 a 0.55005501,0.55005501 0 0 0 0.0486,0.0413 l 26.17567,19.57606 c -3.1498,5.75936 -7.0149,11.05087 -11.37502,15.89051 -0.63722,-0.0203 -20.3792,-0.65554 -30.13046,-2.63447 -5.30796,-1.0772 -12.46574,-3.32557 -19.31097,-5.61723 0.0192,-0.59505 0.11492,-3.84424 0.47491,-8.55089 0.39124,-5.11517 1.0597,-11.18175 2.10168,-14.84561 2.32449,-8.1734 10.53756,-22.59427 11.12284,-23.61923 z"
       id="path84" />
    <path
       style="fill-rule:evenodd;stroke-linecap:round;stroke-linejoin:round;fill:#078167;fill-opacity:1"
       d="m 133.45171,151.45726 c -0.84484,1.47347 -8.68735,15.20611 -11.06444,23.56445 -1.09467,3.84911 -1.74709,9.91929 -2.14044,15.06213 -0.34847,4.5559 -0.43186,7.46558 -0.45888,8.27753 -10.09121,-3.41059 -19.10375,-6.83575 -19.10375,-6.83575 a 0.55005501,0.55005501 0 0 0 -0.0176,0 0.55000001,0.55000001 0 0 0 -0.0408,-0.0196 0.55000001,0.55000001 0 0 0 -0.20722,0.0274 0.55005501,0.55005501 0 0 0 -0.16382,0.006 l -47.759866,22.22655 c -2.91417,-2.5717 -5.66232,-5.32107 -8.19537,-8.26978 1.25421,-0.54282 29.61649,-12.83464 43.11106,-21.55683 9.56742,-6.18388 16.979226,-15.12481 26.222686,-21.40231 6.11353,-4.15186 18.3713,-10.35014 19.81843,-11.07994 z"
       id="path83" />
    <path
       style="fill-rule:evenodd;stroke-linecap:round;stroke-linejoin:round;fill:#99ccff"
       d="m 65.561804,142.38443 c 20.62811,0.11102 55.019136,5.47556 55.776956,5.59397 0.008,2.80967 0.49324,5.5049 1.34358,8.03155 -3.46351,1.9077 -7.18017,3.92898 -9.66607,5.61723 -7.13476,4.84541 -13.123696,11.13656 -19.681486,16.54266 a 0.55000001,0.55000001 0 0 0 -0.20929,-0.0879 c 0,0 -20.0351,-2.58176 -30.21676,-2.14044 -11.21408,0.48607 -32.26989,5.04791 -33.16387,5.24206 -3.65501,-9.41897 -5.73815,-19.62439 -5.73815,-30.33613 0,-0.78602 0.0953,-1.5472 0.11679,-2.32803 0.86126,-0.19519 25.0091,-5.65594 37.50986,-6.08386 1.23882,-0.0424 2.55323,-0.0586 3.92844,-0.0512 z"
       id="path82" />
    <path
       style="fill-rule:evenodd;stroke-linecap:round;stroke-linejoin:round;fill:#66b2ff"
       d="m 170.00452,137.68342 21.49791,4.52944 c 0.28996,2.83913 0.44184,5.71882 0.44184,8.63462 0,3.19348 -0.21577,6.33335 -0.56276,9.43405 l -19.76779,-7.31273 c 0.33375,-1.64329 0.56844,-3.32134 0.56844,-5.06274 0,-3.64193 -0.79659,-7.08977 -2.17764,-10.22264 z"
       id="path81" />
    <path
       style="fill-rule:evenodd;stroke-linecap:round;stroke-linejoin:round;fill:#ffb500;fill-opacity:1"
       d="m 146.75633,123.58196 c 13.4403,0 24.32461,10.88381 24.32461,24.3241 0,10.18236 -6.26263,18.87434 -15.13293,22.50198 l -21.47104,-20.30625 a 0.55005501,0.55005501 0 0 0 -0.62477,-0.092 c 0,0 -4.79758,2.4899 -10.18542,5.42758 -0.77473,-2.37564 -1.23248,-4.89528 -1.23248,-7.53132 0,-13.4403 10.88172,-24.3241 24.32203,-24.3241 z"
       id="path80" />
    <path
       style="fill-rule:evenodd;stroke-linecap:round;stroke-linejoin:round;fill:#66b2ff"
       d="m 44.444224,113.15831 c 6.61632,-0.0378 14.53482,0.0601 19.7497,0.60151 22.7695,2.36358 65.977286,12.86525 67.997916,13.35732 -6.28353,4.41307 -10.42399,11.59001 -10.75542,19.76572 -0.93034,-0.14606 -39.775756,-6.23379 -59.840266,-5.54695 -12.63624,0.43256 -36.06068,5.74106 -37.41374,6.04873 0.49855,-12.19856 3.57083,-23.70809 8.73229,-34.02325 0.34029,-0.0109 5.13527,-0.16657 11.52952,-0.20308 z"
       id="path79" />
    <path
       style="fill-rule:evenodd;stroke-linecap:round;stroke-linejoin:round;fill:#3399ff"
       d="m 59.322904,82.490414 c 0.53096,0.2301 13.93957,6.035834 31.26786,12.209074 17.673706,6.296302 39.048786,12.837512 54.042696,13.788822 5.61754,0.35641 13.75807,-1.05284 20.53931,-2.53732 6.54424,-1.43261 11.4017,-2.84508 11.76156,-2.94917 7.67883,11.04683 12.75732,24.01414 14.39033,38.05091 l -22.0095,-4.63693 c -4.20864,-8.23471 -12.68119,-13.93352 -22.55883,-13.93352 -4.86557,0 -9.36694,1.43934 -13.23227,3.81269 -0.19985,-0.0489 -45.765536,-11.19632 -69.216966,-13.63069 -10.19546,-1.05834 -29.24956,-0.46372 -30.85703,-0.41238 6.15836,-11.86814 15.05832,-22.05084 25.87284,-29.761486 z"
       id="path78" />
    <path
       style="fill-rule:evenodd;stroke-linecap:round;stroke-linejoin:round;fill:#0080ff"
       d="m 107.97523,66.878964 c 28.15763,-10e-7 53.01151,13.903849 68.24441,35.167876 -0.66981,0.19266 -5.00255,1.45579 -11.28148,2.83032 -6.74205,1.47591 -14.87034,2.85387 -20.23442,2.51354 C 129.96327,106.45548 108.59566,99.945174 90.959734,93.662342 74.233144,87.703459 61.682584,82.301341 60.346614,81.724569 73.883504,72.380035 90.278654,66.878965 107.97523,66.878964 Z"
       id="path77" />
  </g>
</svg>
