<?xml version="1.0" encoding="UTF-8" standalone="no"?>
<!-- Created with Inkscape (http://www.inkscape.org/) -->

<svg
   width="278.04559mm"
   height="370.93286mm"
   viewBox="0 0 278.04559 370.93286"
   version="1.1"
   id="svg1"
   xml:space="preserve"
   xmlns="http://www.w3.org/2000/svg"
   xmlns:svg="http://www.w3.org/2000/svg"><defs
     id="defs1" /><path
     style="fill:none;fill-rule:evenodd;stroke:#000000;stroke-linecap:round;stroke-linejoin:round"
     d="m 17.72863,309.64363 h 59.68938 61.28929 61.28876 59.68783 v 58.09 H 17.72863 Z"
     id="path7" /><path
     style="fill:none;fill-rule:evenodd;stroke:#000000;stroke-linecap:round;stroke-linejoin:round"
     d="m 201.13708,64.48909 h 57.90809 c -0.90649,2.57103 -3.50345,10.02995 -6.56446,20.73051 -3.64837,12.75377 -7.32616,28.09034 -7.32616,38.95732 1e-5,10.86698 3.67779,26.20508 7.32616,38.95886 3.64836,12.75377 7.29878,22.87302 7.29878,22.87302 a 1.60016,1.60016 0 0 0 0.008,0.0217 c 0,0 3.77237,10.01272 7.54528,22.64616 3.77291,12.63344 7.51375,27.93981 7.51375,38.07829 0,10.13848 -3.74084,25.44434 -7.51375,38.07778 -3.47635,11.64043 -6.64885,20.20337 -7.17372,21.6116 h -57.89104 c 0.95353,-2.58944 3.65408,-10.02088 6.84196,-20.69537 1.9038,-6.37481 3.81597,-13.3959 5.25187,-20.1874 0.71796,-3.39575 1.31686,-6.7334 1.73633,-9.90431 0.41948,-3.17091 0.65836,-6.17558 0.65836,-8.9023 0,-2.72673 -0.23888,-5.72932 -0.65836,-8.90023 -0.41947,-3.17091 -1.01837,-6.51062 -1.73633,-9.90637 -1.4359,-6.7915 -3.34806,-13.8126 -5.25187,-20.1874 -3.80194,-12.73063 -7.59805,-22.80784 -7.60936,-22.83788 l -0.008,-0.0196 c -0.005,-0.0151 -0.90031,-2.49767 -2.25206,-6.57221 -1.35584,-4.08686 -3.1626,-9.75569 -4.97075,-16.07653 -1.80815,-6.32084 -3.60862,-13.30705 -4.95732,-19.98018 -1.34871,-6.67313 -2.24586,-13.03318 -2.24586,-18.0976 0,-2.53221 0.22426,-5.38647 0.61701,-8.44342 0.39275,-3.05695 0.9545,-6.31607 1.62885,-9.65264 1.3487,-6.67313 3.14917,-13.65933 4.95732,-19.98017 3.32596,-11.62675 6.35482,-20.17484 6.86728,-21.6116 z"
     id="path6" /><path
     style="fill:none;fill-rule:evenodd;stroke:#000000;stroke-linecap:round;stroke-linejoin:round"
     d="m 139.84779,64.48909 h 57.9081 c -0.9065,2.57103 -3.50138,10.02995 -6.56239,20.73051 -1.82419,6.37689 -3.65568,13.40052 -5.03122,20.1874 -0.68778,3.39344 -1.26216,6.72764 -1.66398,9.89294 -0.40181,3.1653 -0.63304,6.16024 -0.63304,8.87698 0,2.71675 0.23122,5.71322 0.63304,8.87852 1.20546,9.49591 3.95892,20.51501 6.6952,30.08034 3.64837,12.75377 7.29671,22.87302 7.29671,22.87302 a 1.60016,1.60016 0 0 0 0.008,0.0217 c 0,0 0.94291,2.50328 2.35748,6.58564 1.41456,4.08235 3.30082,9.7438 5.18728,16.06052 2.82968,9.47508 5.64248,20.45484 6.87141,29.6292 0.40964,3.05812 0.64234,5.91447 0.64234,8.44909 0,2.53462 -0.2327,5.39305 -0.64234,8.45117 -1.22893,9.17436 -4.04173,20.15153 -6.87141,29.62661 -3.47636,11.64043 -6.64887,20.20337 -7.17373,21.6116 h -57.89052 c 0.38408,-1.04303 0.64234,-1.70499 1.60559,-4.48448 1.42813,-4.12095 3.33257,-9.83609 5.23637,-16.21089 2.8557,-9.56221 5.72978,-20.57898 6.98821,-30.09171 0.41948,-3.17091 0.6599,-6.17558 0.6599,-8.9023 0,-2.72673 -0.24042,-5.72932 -0.6599,-8.90023 -0.41948,-3.17091 -1.01838,-6.51062 -1.73633,-9.90637 -1.4359,-6.7915 -3.34808,-13.8126 -5.25188,-20.1874 -3.80194,-12.73063 -7.59855,-22.80784 -7.60987,-22.83788 l -0.008,-0.0196 c -0.005,-0.0151 -0.89824,-2.49767 -2.24999,-6.57221 -1.35584,-4.08686 -3.16468,-9.75569 -4.97283,-16.07653 -1.80816,-6.32084 -3.60809,-13.30705 -4.9568,-19.98018 -0.67435,-3.33657 -1.23609,-6.59568 -1.62884,-9.65264 -0.39276,-3.05695 -0.61753,-5.91275 -0.61753,-8.44496 0,-2.53221 0.22477,-5.38647 0.61753,-8.44342 1.17826,-9.17085 3.87341,-20.15155 6.58564,-29.63281 1.80814,-6.32084 3.61699,-11.98916 4.97283,-16.07602 1.13812,-3.43058 1.66057,-4.87986 1.89445,-5.53558 z"
     id="path5" /><path
     style="fill:none;fill-rule:evenodd;stroke:#000000;stroke-linecap:round;stroke-linejoin:round"
     d="m 78.56058,64.48909 h 57.90654 c -0.36628,1.03885 -0.61938,1.71557 -1.54719,4.51187 -1.36841,4.1242 -3.19102,9.84175 -5.0152,16.21864 -2.73627,9.56533 -5.49026,20.58443 -6.69571,30.08034 -0.40182,3.1653 -0.63046,6.16024 -0.63046,8.87698 1e-5,10.86698 3.6778,26.20508 7.32617,38.95886 3.64837,12.75377 7.29671,22.87302 7.29671,22.87302 a 1.60016,1.60016 0 0 0 0.008,0.0217 c 0,0 0.94291,2.50328 2.35747,6.58564 1.41456,4.08235 3.30135,9.7438 5.1878,16.06052 1.88646,6.31672 3.76499,13.30134 5.17178,19.97449 1.40679,6.67315 2.34146,13.03456 2.34146,18.1038 0,2.53462 -0.2327,5.39305 -0.64234,8.45117 -1.22893,9.17436 -4.04122,20.15153 -6.8709,29.62661 -1.88645,6.31672 -3.77324,11.97868 -5.1878,16.06104 -1.19218,3.4406 -1.74639,4.90651 -1.98644,5.55056 H 79.68995 c 0.38405,-1.04293 0.64225,-1.70473 1.60559,-4.48448 1.42813,-4.12095 3.33256,-9.83609 5.23637,-16.21089 1.9038,-6.37481 3.81596,-13.3959 5.25187,-20.1874 1.4359,-6.7915 2.39676,-13.35316 2.39676,-18.80661 0,-2.72673 -0.24096,-5.72932 -0.66043,-8.90023 -0.41948,-3.17091 -1.01838,-6.51062 -1.73633,-9.90637 -1.43591,-6.7915 -3.34807,-13.8126 -5.25187,-20.1874 -1.90381,-6.37481 -3.80824,-12.09046 -5.23637,-16.21141 -1.42388,-4.10868 -2.36527,-6.61148 -2.37092,-6.62647 l -0.008,-0.0196 c -0.005,-0.0151 -0.90031,-2.49767 -2.25206,-6.57221 -1.35584,-4.08686 -3.16415,-9.75569 -4.9723,-16.07653 -1.80815,-6.32084 -3.60862,-13.30705 -4.95732,-19.98018 -0.67435,-3.33657 -1.23609,-6.59568 -1.62884,-9.65264 -0.39276,-3.05695 -0.61702,-5.91275 -0.61702,-8.44496 0,-2.53221 0.22426,-5.38647 0.61702,-8.44342 1.17826,-9.17085 3.87394,-20.15155 6.58616,-29.63281 3.32597,-11.62675 6.35638,-20.17484 6.86883,-21.6116 z"
     id="path4" /><path
     style="fill:none;fill-rule:evenodd;stroke:#000000;stroke-linecap:round;stroke-linejoin:round"
     d="m 17.27181,64.48909 h 29.50156 28.40447 c -0.36629,1.0389 -0.61684,1.71569 -1.54461,4.51187 -1.36841,4.1242 -3.1936,9.84175 -5.01778,16.21864 -1.82418,6.37689 -3.65568,13.40052 -5.03122,20.1874 -0.68777,3.39344 -1.26216,6.72764 -1.66398,9.89294 -0.40182,3.1653 -0.63097,6.16024 -0.63097,8.87698 0,2.71675 0.22915,5.71322 0.63097,8.87852 1.20545,9.49591 3.95893,20.51501 6.6952,30.08034 1.82419,6.37688 3.64937,12.09445 5.01778,16.21865 1.36841,4.12419 2.27893,6.65437 2.27893,6.65437 a 1.60016,1.60016 0 0 0 0.008,0.0217 c 0,0 0.94292,2.50328 2.35748,6.58564 1.41456,4.08235 3.30082,9.7438 5.18728,16.06052 3.77291,12.63344 7.51375,27.93981 7.51375,38.07829 0,2.53462 -0.2332,5.39305 -0.64285,8.45117 -0.40964,3.05812 -0.99573,6.31555 -1.69912,9.65212 -1.40679,6.67316 -3.28533,13.65777 -5.17178,19.97449 -3.47635,11.64043 -6.64885,20.20337 -7.17372,21.6116 H 46.77362 18.40067 c 0.95339,-2.58907 3.65345,-10.02048 6.84145,-20.69537 3.80761,-12.74962 7.64863,-28.08711 7.64863,-38.99401 0,-10.9069 -3.84102,-26.24439 -7.64863,-38.994 -3.80193,-12.73063 -7.59597,-22.80784 -7.60729,-22.83788 l -0.008,-0.0196 c -0.0109,-0.0302 -3.61403,-10.02612 -7.22488,-22.64874 -3.6163,-12.64168 -7.20319,-27.94894 -7.20318,-38.07778 0,-10.12884 3.58688,-25.43455 7.20318,-38.07623 3.32597,-11.62675 6.35688,-20.17484 6.86934,-21.6116 z"
     id="path3" /><path
     style="fill:none;fill-rule:evenodd;stroke:#000000;stroke-linecap:round;stroke-linejoin:round"
     d="M 17.72863,3.20032 H 259.68389 V 61.28825 H 199.99606 138.7073 77.41801 46.77337 17.72863 Z"
     id="path2" /></svg>
