<?xml version="1.0" encoding="UTF-8" standalone="no"?>
<!-- Created with Inkscape (http://www.inkscape.org/) -->

<svg
   width="266.75696mm"
   height="401.63757mm"
   viewBox="0 0 266.75696 401.63757"
   version="1.1"
   id="svg1"
   xml:space="preserve"
   xmlns="http://www.w3.org/2000/svg"
   xmlns:svg="http://www.w3.org/2000/svg"><defs
     id="defs1" /><g
     id="layer1"
     transform="translate(-816.38677,259.87972)"><g
       id="g142"
       transform="translate(326.64308,-15.933809)"><path
         style="fill:#fdcc03"
         d="m 617.40519,-158.94735 -3.43958,-0.0818 -0.6018,-0.87845 c -2.45995,-3.59084 -6.37971,-15.01712 -7.18173,-20.93511 -2.07278,-15.29464 1.57834,-28.61341 11.98497,-43.71955 l 2.41314,-3.50289 0.44994,0.59247 c 4.38295,5.77138 8.76301,17.81685 10.26935,28.24143 l 0.5926,4.10104 -0.1506,4.49791 c -0.38875,11.61162 -3.95462,23.93806 -8.89978,30.76465 l -0.80962,1.11764 -0.59365,-0.0578 c -0.32651,-0.0318 -2.14147,-0.0946 -4.03324,-0.13957 z"
         id="path192" /><path
         style="fill:#fdcc03"
         d="m 632.61873,-156.14053 c -1.52796,-0.56903 -3.30025,-1.22635 -3.93842,-1.46072 l -1.16029,-0.42613 0.15947,-1.88663 c 0.18611,-2.20161 1.14586,-6.06672 2.44272,-9.8373 0.97007,-2.82045 2.66665,-9.8418 3.44721,-14.2664 l 0.46676,-2.64584 -0.0109,-5.55625 -0.0109,-5.55625 -0.43324,-2.71023 c -0.23829,-1.49063 -0.43325,-2.87521 -0.43325,-3.07685 0,-0.41592 3.40213,-4.78905 5.58384,-7.1775 0.79754,-0.87312 2.26421,-2.54 3.25925,-3.70417 1.8411,-2.15401 6.27741,-6.81641 6.36194,-6.68616 0.0742,0.11436 1.193,3.84227 1.87109,6.23469 0.34207,1.2069 0.83011,3.46909 1.08454,5.02709 l 0.46259,2.83272 0.008,4.63021 c 0.005,2.54661 -0.15396,6.04966 -0.35228,7.78455 l -0.36058,3.15435 -0.98703,1.07899 c -4.02949,4.40488 -9.39313,14.83613 -11.23441,21.84877 -0.5081,1.93514 -2.78683,12.88818 -2.78683,13.3953 0,0.21919 -0.79136,-0.01 -3.43959,-0.99624 z"
         id="path191" /><path
         style="fill:#fdcc03"
         d="m 596.89999,-155.68612 c 0,-10.29274 -6.91308,-25.96841 -15.23386,-34.54338 l -2.45315,-2.52808 -0.42039,-2.83122 c -1.21908,-8.21004 -0.45629,-21.9434 1.60231,-28.84836 l 0.13933,-0.46736 0.84069,0.5872 c 10.21038,7.1316 16.0175,13.82258 21.37871,24.63256 l 1.11675,2.25175 -0.34894,3.81515 c -0.21013,2.29745 -0.28935,5.28156 -0.19914,7.50139 l 0.14979,3.68626 1.06942,5.02708 c 1.24883,5.87048 1.54555,7.0297 2.78634,10.88571 0.94478,2.93612 1.47283,5.54495 1.47639,7.2942 l 0.002,0.98199 -1.12448,0.28724 c -5.33315,1.36232 -8.16868,2.23569 -9.36871,2.88565 l -1.41306,0.76535 z"
         id="path190" /><path
         style="fill:#fdcc03"
         d="m 588.29968,-152.04284 c -4.84343,-3.22422 -7.04434,-5.2218 -9.72198,-8.82383 -6.64845,-8.94366 -12.4968,-14.55077 -19.06488,-18.27844 l -2.85905,-1.62264 -0.62205,-0.98539 c -1.94948,-3.08818 -5.7296,-11.51912 -6.47229,-14.43541 -0.58947,-2.31464 -1.87194,-9.41967 -1.87194,-10.37077 v -0.59455 l 2.24006,0.79064 c 12.37852,4.36908 23.67387,10.95351 29.78974,17.36542 8.39354,8.79984 14.80919,23.56225 14.79913,34.05277 l -0.002,2.41274 -1.6279,1.05834 c -0.89535,0.58208 -1.69858,1.0883 -1.78497,1.12492 -0.0864,0.0366 -1.34709,-0.72558 -2.80156,-1.6938 z"
         id="path189" /><path
         style="fill:#fdcc03"
         d="m 643.99582,-150.0796 c -0.94589,-0.72253 -2.6989,-1.91387 -3.89559,-2.64742 -1.19668,-0.73355 -2.1314,-1.40655 -2.07715,-1.49555 0.0542,-0.089 0.46758,-2.30494 0.91852,-4.92431 3.82498,-22.21837 14.04035,-35.32766 34.82543,-44.69117 5.39009,-2.42819 18.38295,-5.65267 18.38295,-4.56216 0,0.59802 -2.31743,11.39006 -2.81326,13.10106 -6.02982,20.80766 -22.63938,38.67864 -43.04996,46.31943 l -0.57115,0.21381 z"
         id="path188" /><path
         style="fill:#fdcc03"
         d="m 573.61665,-137.86509 c -10.72595,-1.58611 -22.963,-6.96408 -30.96048,-13.6066 -9.03017,-7.50024 -12.42589,-12.13472 -23.29391,-31.79156 l -0.75314,-1.3622 3.88971,-0.19523 c 2.13933,-0.10737 6.15189,-0.12865 8.91678,-0.0473 l 5.02709,0.14792 2.64583,0.55121 c 19.97936,4.16232 33.34968,14.77053 43.83446,34.7789 l 2.0626,3.93612 -1.27701,1.39725 c -1.24242,1.3594 -3.70771,4.54181 -4.65588,6.01021 l -0.46982,0.7276 -0.82947,-0.0286 c -0.4562,-0.0157 -2.31775,-0.24871 -4.13676,-0.5177 z"
         id="path187" /><path
         style="fill:#fdcc03"
         d="m 654.45178,-139.20505 -2.11175,-3.53766 -2.19277,-2.22187 c -1.20603,-1.22203 -2.16074,-2.2416 -2.12159,-2.26572 0.0392,-0.0241 0.84509,-0.37925 1.79098,-0.7892 12.10563,-5.24659 21.68666,-12.68242 30.12759,-23.382 2.04884,-2.59707 9.75954,-5.35596 17.93144,-6.41587 2.19986,-0.28532 19.89546,-0.37883 20.16773,-0.10657 0.51088,0.51088 -4.55786,10.09577 -8.25077,15.60206 l -2.12938,3.175 -3.85404,3.84824 c -12.07912,12.06098 -27.18719,18.88164 -43.14465,19.478 l -4.10105,0.15326 z"
         id="path186" /><path
         style="fill:#fdcc03"
         d="m 570.44165,-126.9796 c -6.16336,-3.11874 -10.54123,-4.579 -18.08593,-6.03265 l -3.74219,-0.72101 -5.82083,-0.007 -5.82084,-0.007 -2.91041,0.73107 c -1.60073,0.40208 -3.23083,0.86011 -3.62243,1.01783 l -0.71202,0.28676 -2.46298,-1.38198 c -6.74118,-3.78248 -10.41612,-6.81658 -14.81518,-12.23173 l -2.0977,-2.58222 0.34578,-0.12448 c 6.82292,-2.45625 18.32747,-3.79443 25.99077,-3.02316 l 2.85044,0.28688 1.49499,1.13616 c 3.42066,2.59961 8.38544,5.68091 12.60749,7.8246 l 4.49792,2.28375 3.70417,1.2087 c 4.16124,1.35785 8.39194,2.35112 12.69125,2.97962 3.43092,0.50155 3.21124,0.36307 2.58371,1.62871 -0.27756,0.5598 -1.14169,2.65493 -1.92029,4.65584 -0.77859,2.00091 -1.48254,3.63185 -1.56432,3.6243 -0.0818,-0.008 -1.51791,-0.70656 -3.1914,-1.55337 z"
         id="path185" /><path
         style="fill:#fdcc03"
         d="m 661.98234,-118.73178 c -0.007,-2.25759 -0.6179,-6.48681 -1.13792,-7.87135 -0.21862,-0.58208 -0.93081,-2.31824 -1.58264,-3.85813 l -1.18514,-2.79979 4.00594,-0.3031 c 13.06402,-0.98847 26.42665,-5.95968 35.84631,-13.33567 l 1.67786,-1.31384 4.53984,-0.14301 c 5.23698,-0.16497 8.53002,0.12749 14.46172,1.28439 3.88867,0.75843 14.05867,3.09402 14.24007,3.2703 0.20321,0.19747 -4.53781,5.80183 -7.08505,8.37523 l -2.78939,2.81804 -3.70417,2.41502 c -4.69033,3.05796 -8.44437,4.98292 -13.19527,6.76615 -4.94014,1.85426 -5.02813,1.8658 -9.0476,1.18702 l -3.40805,-0.57553 -7.01829,0.11022 -7.01829,0.11023 -2.91041,0.71414 c -3.86305,0.9479 -6.41087,1.78218 -10.70338,3.50482 -4.35715,1.74858 -3.97999,1.78219 -3.98614,-0.35514 z"
         id="path184" /><path
         style="fill:#fdcc03"
         d="m 536.31041,-102.40928 -3.04271,-0.20107 -4.7625,-1.10608 c -7.03696,-1.63433 -12.76231,-3.87686 -21.359,-8.36597 -4.65877,-2.43277 -4.59652,-1.83465 -0.49844,-4.78899 14.19278,-10.23172 23.67879,-14.12057 35.48348,-14.54664 l 4.10104,-0.14803 3.30729,0.45073 c 7.60022,1.03576 11.82585,2.35282 20.24063,6.30865 1.89177,0.88934 3.47314,1.63658 3.51416,1.66054 0.041,0.024 -0.1078,1.43493 -0.33072,3.13549 -0.22293,1.70055 -0.40532,4.79242 -0.40532,6.87082 v 3.77891 l -3.37344,1.60496 c -9.53173,4.53486 -19.82534,6.209 -32.87447,5.34668 z"
         id="path183" /><path
         style="fill:#fdcc03"
         d="m 689.76873,-91.557586 c -10.14048,-0.71697 -29.81208,-8.25333 -28.97548,-11.100754 0.23533,-0.80096 1.19292,-7.87721 1.30759,-9.66259 l 0.11819,-1.84025 3.12537,-1.42142 c 20.69314,-9.41122 37.82454,-6.40183 65.10402,11.43649 3.2426,2.12037 3.19172,1.72771 0.41966,3.23877 -14.25838,7.772246 -25.91271,10.423508 -41.09935,9.349754 z"
         id="path182" /><path
         style="fill:#fdcc03"
         d="m 524.19683,-71.198216 c -5.91158,-0.357038 -10.714,-1.12103 -15.05995,-2.395815 l -1.90583,-0.559028 0.55158,-1.08962 c 3.03097,-5.987567 11.18271,-14.589334 18.41706,-19.433794 3.14453,-2.105725 9.06575,-5.389197 9.71384,-5.386567 0.29104,0.001 3.02948,0.0221 6.08542,0.0465 l 5.55625,0.04433 3.70416,-0.43061 c 7.00415,-0.81424 11.17765,-1.95922 18.32527,-5.02747 1.84241,-0.79089 3.36825,-1.41347 3.39074,-1.38352 0.0225,0.0299 0.2904,1.38119 0.59533,3.00274 0.34664,1.84332 0.84846,3.52906 1.33898,4.497922 0.43151,0.852298 1.02966,2.174498 1.32922,2.938224 0.29956,0.763725 0.89507,2.082743 1.32334,2.931151 l 0.77868,1.542559 -2.82515,0.322641 c -14.11541,1.61202 -26.85401,8.022973 -35.91557,18.075214 l -1.83459,2.035157 -3.55861,0.279947 c -3.89097,0.306092 -4.7925,0.305198 -10.01017,-0.0099 z"
         id="path181" /><path
         style="fill:#fdcc03"
         d="m 710.00936,-59.439138 c -9.80898,-0.571544 -15.56578,-1.699463 -24.02001,-4.706197 l -4.16969,-1.482946 -4.55828,-4.56811 -4.55827,-4.568109 -3.175,-2.131669 c -6.0334,-4.050776 -11.45166,-6.862924 -15.54119,-8.066084 l -2.03886,-0.599843 0.62573,-0.820373 c 3.30261,-4.329946 5.48456,-8.176986 7.01854,-12.37455 l 0.26636,-0.728888 1.28469,0.790476 c 8.93173,5.495751 21.5942,9.239272 32.81673,9.701917 l 4.29647,0.17712 2.70139,1.905108 c 7.04734,4.97002 14.2003,12.825527 17.2922,18.990589 1.32441,2.640795 3.79773,8.189102 3.79773,8.519304 0,0.135688 -9.5774,0.10566 -12.03854,-0.03775 z"
         id="path180" /><path
         style="fill:#fdcc03"
         d="m 526.90897,-42.65911 c 3.13526,-11.694304 3.86096,-13.542576 8.16872,-20.804796 4.20758,-7.093316 9.23758,-12.365178 16.33008,-17.115278 6.92577,-4.638431 19.59117,-8.849713 26.61612,-8.849937 l 1.6291,-5.2e-5 1.46876,2.182812 c 0.80782,1.200547 2.12855,2.833589 2.93496,3.628983 1.73524,1.711537 1.74102,1.767459 0.50399,4.871026 -5.08134,12.748526 -19.15089,26.715211 -32.65877,32.419982 -9.82798,4.150646 -16.81692,6.110051 -24.10082,6.756862 l -1.76243,0.156504 z"
         id="path179" /><path
         style="fill:#fdcc03"
         d="m 688.24356,-28.576734 c -19.82752,-4.233034 -33.1429,-14.041715 -41.30273,-30.425356 l -2.30606,-4.630208 -1.4935,-4.497917 c -1.91287,-5.760905 -2.40795,-7.565612 -2.13966,-7.799728 0.11885,-0.103707 1.37415,-1.03802 2.78956,-2.076251 1.41541,-1.03823 3.45072,-2.72099 4.52291,-3.739466 l 1.94943,-1.851774 1.93212,0.535416 c 12.29833,3.408042 26.93592,15.267653 32.48193,26.317385 4.01565,8.000682 6.52385,16.979918 7.62851,27.30973 l 0.17684,1.653646 -0.3649,-0.02311 c -0.2007,-0.01271 -1.9442,-0.360275 -3.87445,-0.77237 z"
         id="path178" /><path
         style="fill:#fdcc03"
         d="m 558.9092,-18.85157 -0.483,-2.976562 -0.009,-5.291667 -0.009,-5.291667 0.58867,-3.071032 c 0.32376,-1.689067 1.18537,-5.439536 1.91468,-8.334375 l 1.32602,-5.263342 0.63124,-0.529167 c 0.34718,-0.291042 1.62776,-1.30113 2.84572,-2.24464 9.71505,-7.525899 18.81993,-18.994145 21.28277,-26.807181 0.58717,-1.862724 0.26624,-1.931467 3.558,0.762098 l 2.7737,2.269651 3.63807,1.766069 3.63807,1.766069 -1.60832,2.248134 c -6.41872,8.972208 -10.65771,19.449172 -11.3587,28.073837 -0.26398,3.247795 -0.20799,3.12268 -2.76922,6.188879 -6.32708,7.574526 -10.25632,10.792092 -21.59671,17.685039 -4.13248,2.511816 -3.78816,2.586816 -4.3621,-0.950143 z"
         id="path177" /><path
         style="fill:#fdcc03"
         d="m 643.20207,-13.335945 c -5.11641,-4.563998 -9.01461,-9.014695 -12.3045,-14.048437 -5.19828,-7.9537 -6.28489,-9.959488 -7.95507,-14.684375 l -0.98204,-2.778125 -0.0713,-5.057562 c -0.10236,-7.260145 -1.26375,-14.134399 -3.15743,-18.688792 l -0.19252,-0.463021 h 1.30495 c 4.05768,0 11.96375,-2.16175 17.19195,-4.700784 1.73492,-0.842549 1.93263,-0.836482 1.93263,0.05931 0,2.940066 5.88673,16.621063 10.00139,23.243621 l 2.10536,3.388601 0.36277,2.564524 c 0.23078,1.631408 0.36277,5.019409 0.36277,9.311398 v 6.746875 l -0.46614,2.116667 c -1.23393,5.603019 -4.08211,14.570935 -4.9307,15.525065 -0.0877,0.09858 -1.52862,-1.042155 -3.20211,-2.534961 z"
         id="path176" /><path
         style="fill:#fdcc03"
         d="m 597.40363,-8.2315761 c -3.91806,-7.5465619 -5.3665,-11.5820239 -6.67011,-18.5833409 l -0.84499,-4.538215 0.0366,-6.482292 0.0366,-6.482291 0.97304,-3.528665 c 2.15901,-7.829501 4.61833,-12.966541 9.6255,-20.105783 l 2.28751,-3.261531 0.66416,0.146291 c 3.69702,0.814316 6.20756,1.269764 9.1578,1.661356 l 3.49383,0.463744 0.94949,3.051877 c 6.13732,19.726819 0.20922,39.741054 -16.72555,56.468225 l -2.38095,2.3517648 z"
         id="path147" /><path
         style="fill:#1f91c9"
         d="m 575.72387,-195.63579 c -3.28704,-3.16709 -20.07705,-11.66177 -26.28559,-13.29884 l -1.82109,-0.48019 -0.21497,-0.53061 c -0.26512,-0.6544 -2.09063,-8.07844 -5.40023,-21.96187 -1.38761,-5.82083 -2.63436,-10.91075 -2.77057,-11.31093 l -0.24765,-0.72761 h 56.73105 56.73106 l -0.10544,0.33073 c -0.15872,0.4979 -1.56008,6.73334 -3.03062,13.48496 -1.55833,7.15469 -1.00857,6.10265 -5.0509,9.66561 -3.17596,2.79932 -4.39455,4.18036 -9.21389,10.44212 -1.20002,1.55919 -2.27582,2.89296 -2.39067,2.96394 -0.11485,0.071 -0.48624,-0.84753 -0.82531,-2.04113 -2.0655,-7.27099 -5.36847,-14.32867 -10.33338,-22.08008 -2.02663,-3.16405 -13.13222,15.98581 -16.45643,28.37656 l -0.35491,1.32292 -1.42852,-2.64584 c -4.9955,-9.25242 -12.53784,-17.41087 -21.01443,-22.73101 -2.95312,-1.85346 -2.9343,-1.85508 -3.57595,0.30758 -2.40383,8.102 -2.77838,11.40221 -2.62286,23.11057 0.0597,4.49702 0.0996,8.17641 0.0887,8.17641 -0.011,0 -0.19427,-0.16798 -0.40736,-0.37329 z"
         id="path175" /><path
         style="fill:#1f91c9"
         d="m 654.08231,-200.19578 0.0326,-6.04693 -0.44615,-3.30294 c -0.53153,-3.93508 -1.17222,-6.77795 -2.42141,-10.74429 l -0.92497,-2.93689 1.21924,-5.53086 c 0.67059,-3.04197 1.65238,-7.70375 2.18177,-10.3595 l 0.96252,-4.82865 h 27.98999 27.99 l -0.75544,1.25677 c -1.88768,3.14037 -12.25859,23.12563 -14.4962,27.9349 -0.95936,2.06192 -1.75887,3.76479 -1.77669,3.78415 -0.0178,0.0194 -2.05646,0.28914 -4.53032,0.59953 -11.82981,1.48425 -24.73457,7.26096 -33.80066,15.13059 l -1.25692,1.09105 z"
         id="path174" /><path
         style="fill:#1f91c9"
         d="m 549.40728,-183.76854 c -8.9786,-2.81244 -11.67525,-3.24916 -21.29896,-3.44933 l -7.27604,-0.15134 -2.08113,0.37533 -2.08113,0.37533 -3.95941,-2.93292 c -2.17768,-1.6131 -7.25383,-5.47679 -11.28033,-8.58598 -4.0265,-3.10918 -8.30318,-6.37812 -9.50373,-7.26431 l -2.18281,-1.61124 v -18.46642 -18.46642 h 23.54792 23.54791 l 0.003,0.46302 c 0.002,0.25466 1.84719,7.89693 4.10104,16.98281 2.59477,10.46021 4.09792,17.01519 4.09792,17.87037 0,6.97859 3.44088,19.08806 7.04703,24.80058 0.34789,0.55108 0.54173,0.99527 0.43076,0.98707 -0.11096,-0.008 -1.51144,-0.42515 -3.11217,-0.92655 z"
         id="path173" /><path
         style="fill:#1f91c9"
         d="m 684.69276,-178.39532 c 4.43865,-7.31259 6.51847,-13.29339 9.31588,-26.78906 l 0.82265,-3.96875 2.46457,-4.63021 c 3.29126,-6.18333 8.87001,-16.75331 12.73838,-24.13526 l 3.15012,-6.01131 21.49739,-0.008 21.49739,-0.008 v 18.50211 18.5021 l -2.05052,1.60553 c -1.12778,0.88305 -3.89599,2.93741 -6.15156,4.56525 -5.62389,4.05875 -13.7003,9.96868 -21.4204,15.67442 l -6.47143,4.78288 -10.72648,0.002 -10.72648,0.002 -3.10164,0.58729 c -3.45185,0.6536 -8.71631,1.94364 -10.49152,2.57091 -0.63676,0.225 -1.20102,0.40909 -1.25392,0.40909 -0.0529,0 0.35551,-0.74414 0.90757,-1.65365 z"
         id="path172" /><path
         style="fill:#1f91c9"
         d="m 504.56041,-151.31917 c -1.81901,-0.70484 -5.39089,-2.13837 -7.9375,-3.18561 -2.54662,-1.04725 -5.13623,-2.08484 -5.75469,-2.30577 l -1.12448,-0.4017 v -23.40877 -23.40877 l 0.8599,0.61117 c 0.47294,0.33615 2.52677,1.9103 4.56406,3.49813 2.03729,1.58783 7.40655,5.656 11.93168,9.04039 l 8.22752,6.15342 1.31919,2.07428 c 0.72555,1.14085 2.13288,3.56255 3.12739,5.38156 5.43689,9.94432 9.93317,16.52506 14.76925,21.61619 l 1.83495,1.93173 -3.67166,0.003 -3.67166,0.003 -5.87647,0.77429 -5.87647,0.7743 -4.09164,1.07467 c -5.01971,1.31843 -4.61714,1.32896 -8.62937,-0.22574 z"
         id="path171" /><path
         style="fill:#1f91c9"
         d="m 586.51609,-147.57136 c -1.36412,-1.534 -2.76008,-5.01715 -1.59012,-3.96761 0.25555,0.22925 1.33222,0.95046 2.3926,1.60269 l 1.92796,1.18588 -0.99606,0.82103 c -1.16275,0.95844 -1.1946,0.96501 -1.73438,0.35801 z"
         id="path170" /><path
         style="fill:#1f91c9"
         d="m 730.77915,-146.96842 c -6.80827,-1.79474 -20.54608,-3.84409 -25.76884,-3.84409 h -2.53892 l 3.18681,-3.2222 c 1.75274,-1.77221 4.46081,-4.92181 6.01794,-6.9991 l 2.83113,-3.7769 3.55548,-6.91248 3.55548,-6.91248 3.05911,-2.22504 c 1.6825,-1.22377 6.02833,-4.37878 9.65738,-7.01114 6.04625,-4.38569 8.89992,-6.49238 18.00797,-13.29421 1.74625,-1.30409 3.32382,-2.5561 3.50573,-2.78224 l 0.33072,-0.41118 v 24.91785 24.91786 l -0.99218,0.42462 c -6.50393,2.78343 -20.23566,8.07562 -20.82483,8.02586 -0.15163,-0.0128 -1.76397,-0.41561 -3.58298,-0.89513 z"
         id="path169" /><path
         style="fill:#1f91c9"
         d="m 489.74374,-134.7718 v -19.67804 l 5.75469,2.21965 c 3.16508,1.22081 7.1454,2.7594 8.84517,3.4191 l 3.09048,1.19944 1.77959,2.51054 c 3.17589,4.48036 8.6867,9.30679 14.84624,13.0025 l 2.30615,1.38368 -0.91481,0.31774 c -4.99257,1.73409 -15.05237,7.66238 -22.45315,13.23175 l -2.75294,2.07168 h -5.25071 -5.25071 z"
         id="path168" /><path
         style="fill:#1f91c9"
         d="m 732.58133,-105.69701 c -1.84645,-1.06147 -4.76348,-2.81859 -6.48229,-3.90472 -5.82357,-3.67996 -13.51335,-7.60127 -19.33881,-9.86159 -2.25502,-0.87496 -2.27899,-0.83021 1.13246,-2.11433 10.32709,-3.88726 19.34066,-10.67074 25.86983,-19.46925 l 2.27571,-3.06669 1.14077,-0.42023 c 0.62742,-0.23113 5.08427,-1.91698 9.90411,-3.74633 4.81984,-1.82936 8.8382,-3.32611 8.92969,-3.32611 0.0915,0 0.16634,10.77516 0.16634,23.9448 v 23.94479 l -10.12031,-0.0252 -10.12031,-0.0252 z"
         id="path167" /><path
         style="fill:#1f91c9"
         d="m 489.74374,-91.382704 v -21.329806 h 5.30699 5.30698 l 6.26854,3.11725 c 9.07377,4.51224 14.27264,6.48082 21.21741,8.03407 1.96448,0.43938 3.6047,0.83178 3.64493,0.872 0.0402,0.0402 -1.23469,0.821706 -2.83314,1.736625 -9.13841,5.230627 -17.18713,13.022107 -22.76277,22.035236 l -1.71043,2.76495 -6.62394,1.917744 c -3.64317,1.05476 -6.89183,1.977142 -7.21926,2.049739 l -0.59531,0.131995 z"
         id="path166" /><path
         style="fill:#1f91c9"
         d="m 755.82993,-35.921833 c -0.65068,-1.005986 -29.34244,-22.021924 -30.06517,-22.021924 -0.11276,0 -0.53443,-0.744141 -0.93705,-1.653646 -5.97672,-13.50125 -10.94396,-20.379414 -19.43368,-26.909907 -1.76288,-1.356047 -3.15582,-2.514955 -3.09542,-2.575351 0.0604,-0.0604 1.928,-0.403428 4.15022,-0.762294 10.13059,-1.635977 21.18619,-5.722715 27.90219,-10.314125 l 1.85208,-1.26618 9.92188,0.0693 c 5.45703,0.0381 9.95211,0.0985 9.98906,0.13415 0.0369,0.0357 0.0369,14.818238 0,32.850122 -0.037,18.031883 -0.1648,32.634327 -0.28411,32.449875 z"
         id="path165" /><path
         style="fill:#1f91c9"
         d="m 740.9656,-16.826575 c -1.89177,-0.35408 -5.52828,-1.174399 -8.08114,-1.822931 -15.22528,-3.867855 -23.66881,-5.204845 -32.5265,-5.150408 l -5.16527,0.03175 -0.19202,-3.402826 c -0.6302,-11.168135 -4.203,-23.897277 -9.08129,-32.354804 -1.54463,-2.677917 -1.62311,-2.631541 2.3002,-1.359121 9.46018,3.06815 15.96545,3.9875 28.27207,3.995515 l 6.74687,0.0044 3.8651,2.610578 c 3.70899,2.505142 24.06823,17.629014 27.35573,20.321217 l 1.5875,1.300036 0.0699,8.085361 0.0699,8.08536 -2.02806,0.171434 c -1.11544,0.09429 -3.76627,0.161714 -5.89075,0.149833 l -3.86268,-0.0216 z"
         id="path164" /><path
         style="fill:#1f91c9"
         d="m 489.74374,-38.584919 v -28.795328 l 2.31511,-0.720992 c 10.83463,-3.374228 12.67027,-3.898625 13.27608,-3.792647 0.37438,0.06549 1.87131,0.437497 3.32652,0.826681 2.59663,0.694447 6.6553,1.418148 11.37708,2.028647 1.30969,0.169335 5.25733,0.383454 8.77254,0.475821 l 6.39128,0.167939 -1.9814,3.175 c -4.23949,6.793372 -6.38418,12.32771 -8.81777,22.754166 l -0.86457,3.704166 -1.0893,1.058334 c -0.59911,0.582083 -3.88694,3.432935 -7.30628,6.335227 -3.41935,2.902292 -7.88387,6.72854 -9.92116,8.502774 -6.48961,5.651658 -15.2,13.07554 -15.34145,13.07554 -0.0752,0 -0.13668,-12.957897 -0.13668,-28.795328 z"
         id="path163" /><path
         style="fill:#1f91c9"
         d="m 649.88764,2.1828047 c -0.14662,-0.8367448 -0.66296,-3.4297544 -1.14743,-5.7622436 l -0.88085,-4.2408894 1.21939,-3.0351517 c 4.35774,-10.846777 6.16567,-22.212353 4.98614,-31.345569 -0.26725,-2.06937 -0.36955,-2.077538 2.10493,0.168046 6.7823,6.154916 15.45528,11.250205 23.41245,13.754581 3.08568,0.971162 12.06444,3.142998 12.99371,3.142998 0.0567,0 0.10317,0.462731 0.10317,1.028291 v 1.028292 l -1.20846,0.18122 c -15.69444,2.353527 -33.89451,13.7007721 -40.36554,25.1668175 -0.98628,1.7475814 -0.89501,1.7540578 -1.21751,-0.086392 z"
         id="path162" /><path
         style="fill:#1f91c9"
         d="M 590.83976,13.194564 C 581.35643,4.454471 570.30613,0.00752331 558.05455,8.9634485e-4 L 556.38308,-7.768472e-6 556.52566,-0.46302859 c 0.0784,-0.25466146 0.63841,-2.84427081 1.24443,-5.75468741 0.60602,-2.9104166 1.17496,-5.618324 1.26431,-6.017573 l 0.16246,-0.725906 4.7625,-2.678994 c 5.7929,-3.258613 9.6761,-5.804482 13.09688,-8.586467 1.71855,-1.397634 6.73572,-6.414055 9.05513,-9.053777 l 1.22847,-1.398133 0.14045,1.13355 c 0.0773,0.623453 0.21301,1.847925 0.30169,2.72105 0.68195,6.714194 2.90475,14.300106 6.31849,21.5635417 l 2.3005,4.8947916 -0.26623,1.4552083 c -0.8501,4.6466727 -3.26307,16.7814644 -3.4176,17.1870474 l -0.18278,0.479735 z"
         id="path161" /><path
         style="fill:#1f91c9"
         d="m 497.81353,26.544014 c -0.43656,-0.05478 -2.36725,-0.334601 -4.29041,-0.621815 -1.92316,-0.287214 -3.56027,-0.522207 -3.63802,-0.522207 -0.0778,0 -0.14136,-7.247936 -0.14136,-16.1065241 v -16.106524 l 2.05052,-1.5946858 c 1.12779,-0.8770772 3.84331,-3.1243761 6.03449,-4.9939961 2.19119,-1.869621 6.28655,-5.363842 9.10081,-7.764936 2.81426,-2.401094 8.07752,-6.893835 11.69613,-9.983869 3.61862,-3.090034 6.8456,-5.673553 7.17107,-5.741154 0.32547,-0.0676 1.42521,-0.199724 2.44385,-0.293607 7.94445,-0.7322 16.80059,-3.368798 25.78879,-7.677691 2.83321,-1.358225 5.18211,-2.438682 5.21978,-2.401017 0.0377,0.03767 -0.40032,2.008924 -0.9733,4.380574 -2.5285,10.465816 -2.92455,17.349478 -1.54654,26.880248 l 0.32395,2.240533 -0.30272,1.391221 c -0.1665,0.765171 -0.81528,3.9156373 -1.44175,7.0010361 l -1.13904,5.609816 -1.05833,0.1606119 c -10.71276,1.6257601 -16.04366,4.239525 -34.79271,17.059009 -3.33726,2.281823 -6.9706,4.142118 -12.30312,6.299299 -2.18282,0.883018 -4.65676,1.911282 -5.49765,2.28503 -0.8409,0.373748 -1.6148,0.661703 -1.71979,0.639899 -0.105,-0.0218 -0.54808,-0.08447 -0.98465,-0.139251 z"
         id="path160" /><path
         style="fill:#1f91c9"
         d="m 627.1585,15.94108 -0.0363,-44.383796 0.43315,0.656545 c 4.12884,6.258307 10.1,12.896537 17.18219,19.1016996 l 1.11033,0.9728278 v 0.6829044 c 0,0.3755975 0.60435,3.6674691 1.34301,7.31527026 l 1.34301,6.63236584 -1.05687,2.4275267 c -1.97771,4.5426474 -3.22644,9.5884864 -3.75398,15.1690944 l -0.30406,3.216568 0.28717,4.148892 c 0.15795,2.281891 0.35522,4.258992 0.43838,4.393557 0.0832,0.134566 -0.84341,1.284952 -2.05905,2.556415 -5.7274,5.990357 -10.62292,12.803334 -13.49601,18.782062 -0.71679,1.491589 -1.32383,2.711953 -1.34899,2.711922 -0.0251,-3.2e-5 -0.0621,-19.972766 -0.082,-44.383854 z"
         id="path159" /><path
         style="fill:#1f91c9"
         d="m 613.64674,60.258845 c -0.4428,-0.970845 -4.03421,-5.646689 -7.05347,-9.183268 l -2.81412,-3.296289 v -2.73341 c 0,-9.181972 -2.86674,-18.808803 -7.61202,-25.561992 l -1.46131,-2.079647 1.0068,-5.857853 c 0.55374,-3.2218186 1.37829,-8.0318187 1.83234,-10.68888893 l 0.82554,-4.83103677 4.75485,-4.8268222 4.75484,-4.8268221 2.1629,-3.042141 c 1.18959,-1.673177 2.58857,-3.749512 3.10885,-4.614076 l 0.94596,-1.571935 v 41.854747 c 0,23.020111 -0.0404,41.854747 -0.0898,41.854747 -0.0494,0 -0.21201,-0.267891 -0.36134,-0.595313 z"
         id="path158" /><path
         style="fill:#1f91c9"
         d="m 746.91873,54.682516 c -5.02047,-3.666203 -11.62844,-8.580009 -14.68438,-10.919569 -4.39402,-3.36397 -7.85167,-5.93362 -9.61068,-7.142456 -0.0471,-0.03239 0.82954,-1.229692 1.94816,-2.660679 5.65123,-7.22932 9.53598,-14.394625 14.43111,-26.617749 3.30575,-8.25446578 7.69152,-16.1189689 11.01861,-19.758429 l 1.55475,-1.700733 2.30142,-0.152817 2.30142,-0.152818 0.001,11.9077172 c 5.8e-4,6.5492445 0.0796,23.6056078 0.17565,37.9030298 0.10512,15.651456 0.0784,25.988351 -0.0672,25.97782 -0.13299,-0.0096 -4.34945,-3.017113 -9.36992,-6.683317 z"
         id="path157" /><path
         style="fill:#1f91c9"
         d="m 725.84113,93.402983 -18.29948,-0.137367 -1.67656,-2.37685 C 695.72477,76.512942 674.65496,69.248583 659.05899,74.75116 c -0.61754,0.217882 -1.15639,0.362561 -1.19744,0.321509 -0.14194,-0.141941 10.94064,-20.846643 11.69847,-21.855321 0.0397,-0.0529 1.31666,0.154268 2.83759,0.460378 17.85485,3.593545 32.90939,-0.624516 46.27358,-12.96518 l 2.47153,-2.282238 7.30897,5.457238 c 9.12937,6.816439 25.41769,18.786231 26.71649,19.633136 1.26806,0.82686 1.18324,-0.331154 1.1619,15.863887 l -0.0186,14.14563 -6.08542,0.0051 c -3.34698,0.0028 -14.32018,-0.05674 -24.38489,-0.132292 z"
         id="path156" /><path
         style="fill:#1f91c9"
         d="M 489.74374,60.996412 V 27.506577 l 0.59531,0.144698 c 0.32743,0.07959 2.28002,0.35666 4.33909,0.615724 l 3.74378,0.471025 1.85022,1.640344 c 2.69542,2.389674 4.456,4.348591 9.08867,10.112569 9.80332,12.197295 17.35685,20.342527 21.64715,23.342858 0.39424,0.275698 0.55065,0.542972 0.39688,0.678147 -0.90321,0.793957 -8.77993,6.554408 -14.93818,10.924675 -6.96581,4.943357 -25.26574,17.982106 -26.25099,18.703898 l -0.47193,0.345732 z"
         id="path155" /><path
         style="fill:#1f91c9"
         d="m 627.19952,101.31678 c 0.15531,-16.687014 0.23908,-18.001778 1.45168,-22.782535 3.37336,-13.299697 11.8031,-28.118811 17.59358,-30.928743 l 1.32291,-0.641969 h 2.91042 2.91041 l 1.45521,0.487344 c 0.80037,0.268039 2.94349,1.115429 4.7625,1.883089 1.81901,0.767659 4.20026,1.72523 5.29167,2.127936 1.09141,0.402705 2.06882,0.806577 2.17204,0.897494 0.10322,0.09092 -0.65388,1.652478 -1.68243,3.470137 -2.75061,4.860853 -10.53205,19.464093 -10.83564,20.33497 l -0.26154,0.750272 -2.30253,1.560837 c -6.38038,4.325127 -11.4737,11.370422 -13.13848,18.173728 l -0.63377,2.589974 -2.2031,2.315686 c -3.75097,3.94268 -6.36877,8.19946 -7.97408,12.96658 -0.35519,1.05477 -0.72161,1.99358 -0.81426,2.08623 -0.0927,0.0927 -0.10372,-6.78831 -0.0246,-15.29103 z"
         id="path154" /><path
         style="fill:#1f91c9"
         d="m 613.89135,120.03206 c -0.37148,-3.10854 -7.3313,-12.22973 -11.41461,-14.95943 l -1.43471,-0.9591 -1.0353,-2.50276 c -1.39557,-3.373724 -2.50176,-4.995577 -5.3393,-7.828355 l -2.39765,-2.393618 -2.4564,-1.516304 c -5.2673,-3.251436 -11.9166,-5.078991 -16.77922,-4.611755 l -1.27521,0.122532 -1.63636,-3.070285 c -0.90001,-1.688657 -2.19094,-4.031661 -2.86875,-5.206676 l -1.23238,-2.13639 3.99603,-0.315336 c 2.26506,-0.178741 5.14215,-0.59546 6.64187,-0.962012 l 2.64584,-0.646675 3.17957,-1.591823 c 3.74105,-1.872917 6.37135,-3.581486 9.15171,-5.944698 l 2.01865,-1.715778 1.73144,-2.625752 c 1.67395,-2.538562 2.4416,-3.307673 3.94358,-3.951082 l 0.71036,-0.304303 0.79664,0.228472 c 4.1178,1.180969 10.39454,9.987056 12.4042,17.402734 l 0.69983,2.582367 0.0874,17.991666 c 0.0785,16.154131 0.0229,26.254311 -0.13727,24.914361 z"
         id="path153" /><path
         style="fill:#1f91c9"
         d="m 753.79789,148.89187 c -2.00788,-1.45563 -20.26521,-15.03692 -23.72452,-17.64825 l -1.36724,-1.03208 -3.11102,-4.18546 c -5.52638,-7.43499 -8.72108,-12.75957 -11.163,-18.60526 -2.17994,-5.21853 -4.00667,-9.240505 -4.68491,-10.314904 -0.38615,-0.611694 -0.63873,-1.17553 -0.56129,-1.252968 0.19157,-0.191565 46.65259,-0.238041 46.84378,-0.04686 0.0836,0.08357 0.12161,12.428892 0.0846,27.434062 l -0.0674,27.28212 z"
         id="path152" /><path
         style="fill:#1f91c9"
         d="m 668.09762,156.69947 c -0.14314,-0.5457 -0.55971,-2.18281 -0.92571,-3.63802 -0.98338,-3.90989 -4.8815,-17.89709 -5.18005,-18.58698 l -0.25762,-0.59531 h 0.36334 c 0.19983,0 1.12001,0.22884 2.04485,0.50854 4.33958,1.31243 8.92847,1.8734 15.30061,1.87041 7.31348,-0.003 10.07121,-0.37891 18.64457,-2.53852 2.61086,-0.65767 6.30179,-1.506 8.20209,-1.88518 l 3.45507,-0.68943 7.9375,-0.0998 7.9375,-0.0998 0.7065,0.47469 c 0.38858,0.26108 4.31764,3.16218 8.73125,6.44689 7.81792,5.81828 17.7387,13.10162 19.9915,14.67677 l 1.11883,0.78228 0.006,1.7643 c 0.003,0.97036 0.0779,1.95263 0.16624,2.18281 l 0.1606,0.41852 h -44.07123 -44.07123 z"
         id="path151" /><path
         style="fill:#1f91c9"
         d="m 627.39563,141.75051 0.0952,-15.94114 0.70644,-3.20476 c 1.62342,-7.36465 4.76454,-13.981 8.74682,-18.42403 l 0.88848,-0.99128 0.15147,3.10795 0.15148,3.10795 0.69642,2.11667 c 3.09442,9.40497 9.43725,16.21552 19.47669,20.91291 l 0.9514,0.44515 0.68653,2.41784 c 2.11289,7.44127 2.70626,9.62982 4.26023,15.71316 l 1.70658,6.68073 H 646.6069 627.30037 Z"
         id="path150" /><path
         style="fill:#1f91c9"
         d="m 576.14437,149.8203 c 0.1139,-4.32924 0.21683,-8.15268 0.22874,-8.49652 l 0.0217,-0.62518 1.45521,-0.46475 c 13.81469,-4.41202 23.77406,-16.66633 23.9138,-29.42429 l 0.031,-2.82896 0.76082,0.7123 c 5.67653,5.31454 9.38924,11.74422 11.02943,19.10084 l 0.50142,2.24896 0.006,13.82448 0.006,13.82448 h -19.0803 -19.0803 z"
         id="path149" /><path
         style="fill:#1f91c9"
         d="m 519.22853,152.94196 4.77875,-4.7497 2.10013,-0.95477 c 2.25288,-1.02422 6.12841,-2.21919 9.54486,-2.94304 l 2.11334,-0.44776 14.02292,-0.18854 14.02292,-0.18854 2.24895,-0.44068 c 2.28197,-0.44715 4.93193,-1.09083 5.69269,-1.38277 l 0.41803,-0.16041 -0.15239,4.86181 c -0.0838,2.67399 -0.22057,6.32032 -0.30388,8.10295 l -0.15148,3.24115 h -29.55679 -29.5568 z"
         id="path148" /><path
         style="fill:#1f91c9"
         d="M 489.74374,127.57891 V 97.466172 l 0.8599,-0.636825 c 1.58743,-1.175628 20.39036,-14.605883 24.93698,-17.811589 2.47385,-1.744253 7.50337,-5.413527 11.17671,-8.153943 3.67334,-2.740415 6.77673,-4.982574 6.89643,-4.982574 0.1197,0 1.46002,0.631095 2.97849,1.402432 6.12809,3.112876 17.90992,6.653496 23.92753,7.190582 1.01865,0.09092 2.10644,0.217616 2.41732,0.281555 l 0.56525,0.116252 2.83374,5.312727 c 1.55855,2.922 2.79247,5.340375 2.74204,5.374167 -0.0504,0.03379 -1.48904,0.439058 -3.19691,0.90059 -14.19538,3.836136 -25.04498,14.734384 -30.74527,30.883154 -4.31201,12.21578 -6.63998,18.04903 -9.82003,24.60625 l -1.41147,2.91042 -6.36416,6.41614 -6.36416,6.41615 h -10.71619 -10.7162 z"
         id="path146" /><path
         style="fill:#56981c"
         d="m 536.52538,-102.30991 c 0.191,-0.0764 0.4192,-0.067 0.50712,0.0209 0.0879,0.0879 -0.0684,0.15046 -0.34727,0.13897 -0.30822,-0.0127 -0.37092,-0.0754 -0.15985,-0.15985 z"
         id="path491" /><path
         style="fill:#56981c"
         d="m 697.12745,-91.197414 c 0.191,-0.07643 0.4192,-0.06703 0.50712,0.02089 0.0879,0.08792 -0.0684,0.150452 -0.34726,0.138964 -0.30823,-0.0127 -0.37092,-0.07539 -0.15986,-0.159854 z"
         id="path490" /><path
         style="fill:#56981c"
         d="m 651.9542,-33.491848 c 0.0127,-0.308224 0.0754,-0.370919 0.15986,-0.159852 0.0764,0.190996 0.067,0.419199 -0.0209,0.507118 -0.0879,0.08792 -0.15045,-0.06835 -0.13897,-0.347266 z"
         id="path489" /><path
         style="fill:#56981c"
         d="m 599.8104,-8.8311525 c 0,-0.054942 0.20836,-0.2633015 0.46302,-0.4630208 l 0.46302,-0.363126 -0.36312,0.4630208 c -0.34565,0.4407292 -0.56292,0.5808872 -0.56292,0.363126 z"
         id="path488" /><path
         style="fill:#56981c"
         d="m 679.71457,12.403048 c 0,-4.8957783 6.09772,-18.8725694 12.38012,-28.376905 l 3.82549,-5.787391 6.11855,0.140825 6.11854,0.140824 4.23334,0.691642 c 6.87857,1.123821 30.40537,6.795465 29.50104,7.111861 -0.21829,0.07637 -1.82563,0.571861 -3.57188,1.101092 -14.51116,4.3978657 -29.54758,10.6950304 -50.86614,21.3024416 -4.25649,2.1178864 -7.73906,3.7719114 -7.73906,3.6756104 z"
         id="path487" /><path
         style="fill:#56981c"
         d="m 726.94269,17.95419 c -13.6301,-3.919817 -27.60953,-6.517301 -35.83858,-6.65908 -3.40682,-0.0587 -3.3021,-0.007 -1.53382,-0.757333 0.76399,-0.324184 5.08,-2.4628819 9.59115,-4.7526624 14.88167,-7.5536844 32.3245,-14.409072 44.31771,-17.4177706 1.23692,-0.310303 2.45353,-0.624692 2.70357,-0.698641 l 0.45462,-0.134453 -1.47447,2.330267 c -1.85207,2.9270172 -5.81709,10.99543152 -8.29642,16.8823501 -3.46156,8.2191509 -3.72478,8.8327739 -4.57805,10.6727199 l -0.8478,1.828138 z"
         id="path486" /><path
         style="fill:#56981c"
         d="m 520.83228,31.206436 c -2.74627,-0.208114 -11.66782,-1.864192 -17.85937,-3.315177 l -0.66146,-0.155012 4.61367,-1.829765 c 5.08906,-2.018299 7.65895,-3.3925 13.77487,-7.365867 2.25557,-1.465391 4.26093,-2.664635 4.45635,-2.664985 3.43925,-0.0062 13.69079,3.582306 20.09638,7.034588 3.05271,1.645258 10.84562,6.844663 10.88717,7.263896 0.008,0.07915 -3.34925,0.2961 -7.46021,0.482105 -4.11097,0.186006 -9.37948,0.443189 -11.70782,0.571518 -4.95567,0.273137 -12.38353,0.263334 -16.13958,-0.0213 z"
         id="path485" /><path
         style="fill:#56981c"
         d="m 646.2975,34.040929 c -0.0749,-0.195193 -0.27913,-1.490534 -0.45384,-2.878534 l -0.31765,-2.523638 0.30226,-3.629365 c 1.81026,-21.7361857 17.91164,-38.683008 42.82987,-45.078744 2.21155,-0.567637 4.01866,-0.957453 4.01579,-0.866257 -0.003,0.09119 -0.89136,1.535029 -1.97443,3.208518 -7.64279,11.809196 -11.3051,20.3121216 -12.83417,29.797564 l -0.3037,1.884023 -0.61366,0.279602 c -4.86199,2.215268 -19.78325,11.789156 -25.75282,16.523706 -5.05202,4.006826 -4.70835,3.776446 -4.89765,3.283125 z"
         id="path484" /><path
         style="fill:#56981c"
         d="m 599.6725,44.680843 c -8.52864,-7.062241 -23.04684,-12.8833 -34.25793,-13.735689 -5.46609,-0.415591 -5.18252,-0.329617 -7.67292,-2.326316 -7.65175,-6.13486 -19.53245,-12.315082 -27.1691,-14.133097 -3.00551,-0.715507 -3.05017,-0.460272 0.49765,-2.844082 27.67781,-18.5969107 61.57078,-7.2342509 69.45042,23.283333 l 0.649,2.513541 0.14109,3.571875 c 0.0776,1.964532 0.0371,3.839484 -0.0899,4.166561 l -0.231,0.594686 z"
         id="path483" /><path
         style="fill:#56981c"
         d="M 703.63261,46.524774 C 688.98312,36.256636 675.57094,29.573066 663.91696,26.733636 l -2.43615,-0.593555 3.49448,-2.116482 c 1.92197,-1.164065 3.61355,-2.208543 3.75907,-2.321062 0.14552,-0.11252 3.5197,-2.070765 7.49817,-4.351657 l 7.23359,-4.147077 4.67266,0.160626 c 8.08128,0.277801 12.60965,0.885876 23.78432,3.19379 6.95883,1.437214 9.71315,2.132009 14.49042,3.655293 l 3.70417,1.181114 -0.0844,0.349037 c -0.1247,0.515811 -2.33763,4.29161 -3.84865,6.566745 -4.73094,7.123346 -12.58314,14.557645 -19.50933,18.471014 l -1.48195,0.837319 z"
         id="path482" /><path
         style="fill:#56981c"
         d="m 518.80636,48.232286 c -2.88247,-3.247904 -6.77495,-7.920727 -9.78056,-11.7413 -0.96377,-1.225099 -2.42229,-2.976094 -3.24114,-3.8911 -1.95235,-2.181584 -1.95673,-2.177037 1.41529,-1.46692 5.56923,1.172828 10.73376,1.956295 14.61223,2.216698 l 3.90585,0.26224 8.40504,-0.271287 c 4.62277,-0.149208 11.85786,-0.334434 16.07796,-0.411613 l 7.67292,-0.140326 -0.39688,0.278428 c -0.85208,0.597779 -9.32061,5.75193 -12.83229,7.810044 -10.80518,6.332661 -17.27909,9.333777 -22.24998,10.31445 l -0.81874,0.161523 z"
         id="path481" /><path
         style="fill:#56981c"
         d="m 545.70311,68.501168 c -5.48341,-1.866138 -9.19177,-3.86867 -14.14107,-7.636248 -2.79094,-2.124563 -8.0245,-6.932098 -7.76761,-7.1353 0.11707,-0.0926 1.10582,-0.459814 2.19723,-0.816032 5.30645,-1.731946 14.33192,-6.699638 31.17429,-17.158573 l 4.31908,-2.682107 h 2.0988 c 6.00784,0 13.74134,1.905696 20.08699,4.949851 l 3.57187,1.713511 -2.51354,0.991079 c -8.73815,3.445419 -17.19075,8.987619 -22.97155,15.061985 -2.71649,2.85445 -9.40507,10.764597 -11.04326,13.060155 -0.69231,0.970118 -1.25133,0.931262 -5.01123,-0.348321 z"
         id="path480" /><path
         style="fill:#56981c"
         d="m 561.48282,72.228539 c -2.37304,-0.248472 -5.99967,-0.918971 -7.72333,-1.427909 l -1.06025,-0.313054 1.82877,-2.633896 c 8.5643,-12.334801 20.52563,-21.788209 32.31468,-25.539288 l 3.53114,-1.123549 1.34485,0.745149 c 7.76409,4.301894 17.46919,14.261734 20.43778,20.974239 1.92139,4.3446 2.55012,7.790572 0.7503,4.112306 -1.91728,-3.918329 -6.13322,-9.121533 -8.91268,-10.999796 l -1.40555,-0.949825 -2.03959,-0.440798 -2.03959,-0.440797 -0.91965,0.303513 c -1.09876,0.362622 -2.06826,1.451286 -4.13171,4.639532 -6.34262,9.800035 -17.96811,14.560797 -31.97517,13.094173 z"
         id="path479" /><path
         style="fill:#56981c"
         d="m 627.26507,72.56197 c 0.2574,-8.751632 4.30854,-17.389721 13.37023,-28.508853 3.41767,-4.19365 9.57617,-9.735798 15.9918,-14.391322 l 1.91566,-1.390105 1.52392,0.17995 c 10.09394,1.191927 25.55484,8.258162 38.9111,17.783889 l 3.52051,2.510837 -2.19759,0.90749 c -3.30441,1.364546 -6.28328,2.16167 -9.84085,2.633337 l -3.20466,0.424878 -3.43958,-0.159198 c -9.5816,-0.443475 -14.65227,-1.619833 -23.28334,-5.401552 -5.37503,-2.355084 -7.36844,-2.965913 -9.67912,-2.965913 h -1.81817 l -1.74383,0.656377 c -7.14246,2.688415 -15.86478,15.816517 -19.47384,29.310393 -0.51083,1.909941 -0.64392,1.526706 -0.55224,-1.590208 z"
         id="path478" /><path
         style="fill:#56981c"
         d="m 641.21191,96.907544 c 2.94182,-15.681216 21.56932,-24.967162 40.49549,-20.187297 l 3.09538,0.781748 3.73974,1.849999 c 6.27004,3.101695 11.02247,7.0198 14.89463,12.279753 1.31817,1.790609 1.32142,1.857615 0.0724,1.48896 -5.88359,-1.736555 -18.93316,-1.166714 -30.43053,1.328822 l -2.26993,0.492695 -3.5509,-0.503162 -3.55091,-0.503162 -5.42395,-2.67e-4 -5.42396,-2.68e-4 -2.38125,0.504728 c -2.63694,0.558924 -5.5399,1.546733 -7.89906,2.687862 L 641.03,97.877237 Z"
         id="path477" /><path
         style="fill:#56981c"
         d="m 542.04698,107.75155 c 2.08106,-3.27234 3.98839,-5.61895 7.06593,-8.693255 l 3.20652,-3.203154 2.51267,-1.653189 c 3.98858,-2.624241 8.00756,-4.508931 11.90539,-5.583001 l 1.98437,-0.546806 3.96875,-0.147284 c 6.21779,-0.230747 10.53275,0.761111 15.21354,3.497061 l 2.24896,1.314527 2.78127,2.778125 2.78127,2.778125 1.09733,2.050521 c 0.60354,1.12779 1.05822,2.05052 1.01042,2.05052 -0.0478,0 -0.84068,-0.20616 -1.76194,-0.45814 l -1.67502,-0.45815 -4.7625,0.008 -4.76249,0.008 -2.38125,0.46478 c -3.49407,0.68199 -5.70824,1.38901 -8.46247,2.70222 l -2.45337,1.16975 -2.215,-0.29886 c -6.3114,-0.85158 -19.13407,0.62888 -25.80788,2.97969 -1.1889,0.41878 -2.22922,0.76142 -2.31182,0.76142 -0.0826,0 0.2852,-0.68461 0.81732,-1.52136 z"
         id="path476" /><path
         style="fill:#56981c"
         d="m 715.91672,119.90836 c -5.52505,-4.33233 -9.42278,-7.07749 -14.31441,-10.08161 -7.66031,-4.70447 -18.8939,-10.378098 -26.51795,-13.393138 l -0.52917,-0.209266 2.38125,-0.325945 c 1.30969,-0.17927 3.81,-0.531973 5.55625,-0.783785 1.94718,-0.280787 5.60262,-0.508317 9.45256,-0.588365 l 6.27755,-0.130524 2.71828,0.452765 c 1.49505,0.24902 3.30603,0.649589 4.0244,0.890153 l 1.30613,0.437387 0.96439,1.5875 c 1.47145,2.422168 3.99826,7.471968 6.09003,12.170838 2.5231,5.66778 3.85738,8.27958 5.6432,11.04635 0.82185,1.27331 1.44327,2.3151 1.38092,2.3151 -0.0624,0 -2.05739,-1.52436 -4.43343,-3.38746 z"
         id="path475" /><path
         style="fill:#56981c"
         d="m 690.31194,132.64213 c -5.61324,-3.93166 -16.90341,-23.96239 -19.17439,-34.018702 l -0.16432,-0.727604 h 0.37631 c 0.20697,0 1.59134,0.422923 3.07637,0.939828 14.28105,4.970908 30.22704,14.679488 47.84855,29.132188 l 0.62345,0.51133 -4.06303,0.0232 c -6.11311,0.0349 -11.46876,0.80153 -21.0227,3.00945 -2.48835,0.57506 -5.07437,1.14833 -5.74672,1.27394 l -1.22244,0.22838 z"
         id="path474" /><path
         style="fill:#56981c"
         d="m 671.90232,133.75512 c -19.33778,-2.96299 -31.87525,-14.94139 -31.87525,-30.45387 v -1.93891 l 0.88088,-0.67188 c 5.12905,-3.912119 16.12124,-5.678535 25.16961,-4.044692 l 1.84111,0.332446 0.21451,1.054118 c 1.65659,8.140758 8.76344,21.876258 16.25087,31.408258 1.79741,2.28822 3.26801,4.20314 3.26801,4.25539 0,0.15994 -0.45156,0.17954 -7.01145,0.30431 l -6.35,0.12077 z"
         id="path473" /><path
         style="fill:#56981c"
         d="m 530.90156,134.80304 c 2.29913,-5.54922 4.0873,-10.20241 5.79474,-15.07909 2.52072,-7.19952 2.13114,-6.6707 6.14485,-8.34116 6.5331,-2.719 16.13527,-4.14886 25.07295,-3.73361 l 0.77973,0.0362 -2.31928,1.45618 c -8.21308,5.15665 -27.37384,20.44922 -36.09248,28.80611 l -1.13354,1.08651 z"
         id="path472" /><path
         style="fill:#56981c"
         d="m 559.59831,141.35364 c 0.003,-0.10914 0.31948,-0.4961 0.70438,-0.8599 6.05085,-5.71927 11.6619,-18.79874 12.58025,-29.32486 l 0.3078,-3.52798 1.59856,-0.80695 c 2.63445,-1.32986 4.62345,-1.97245 7.6909,-2.48468 l 2.91041,-0.48601 4.49792,-0.007 4.49791,-0.007 2.06562,0.75995 2.06562,0.75996 0.43813,0.66866 0.43812,0.66867 -0.006,3.73075 -0.006,3.73076 -0.7204,2.63641 c -2.66003,9.73482 -10.65237,17.3748 -22.92775,21.91695 -4.82554,1.78554 -16.15809,3.63456 -16.13501,2.63258 z"
         id="path471" /><path
         style="fill:#56981c"
         d="m 530.35728,141.15485 c 3.98379,-3.91537 16.84301,-15.10905 22.225,-19.3464 5.28937,-4.16442 13.96639,-10.29319 17.15871,-12.11957 l 1.28371,-0.73444 -0.14531,0.75455 c -0.0799,0.415 -0.22237,1.52845 -0.31656,2.47433 -1.03273,10.37175 -5.04714,19.47763 -11.64291,26.40966 l -2.83665,2.98126 -7.83591,-0.12577 -7.83591,-0.12577 -2.64584,0.40668 c -2.21596,0.3406 -7.37839,1.55933 -9.92187,2.34231 l -0.66146,0.20363 z"
         id="path470" /><path
         style="fill:#56981c"
         d="m 616.47915,65.238008 v -92.453649 l 1.22355,-3.25937 c 0.67295,-1.792654 1.62847,-4.859818 2.12339,-6.81592 1.06697,-4.217107 0.95753,-4.042721 1.54914,-2.468621 0.26101,0.694469 1.17116,2.659823 2.02257,4.367456 l 1.54802,3.104785 v 94.989484 94.989487 h -4.23334 -4.23333 z"
         id="path145" /><path
         style="fill:#bc4b00"
         d="m 646.50936,-219.60398 c 0.71666,-0.72761 1.36255,-1.32292 1.43531,-1.32292 0.0728,0 -0.45406,0.59531 -1.17073,1.32292 -0.71666,0.7276 -1.36255,1.32292 -1.43531,1.32292 -0.0728,0 0.45407,-0.59532 1.17073,-1.32292 z"
         id="path403" /><path
         style="fill:#bc4b00"
         d="m 642.6729,-215.47054 c 0,-0.0549 0.20836,-0.2633 0.46302,-0.46302 l 0.46302,-0.36313 -0.36312,0.46302 c -0.34565,0.44073 -0.56292,0.58089 -0.56292,0.36313 z"
         id="path402" /><path
         style="fill:#bc4b00"
         d="m 641.0854,-213.61846 c 0,-0.0549 0.20836,-0.2633 0.46302,-0.46302 l 0.46302,-0.36313 -0.36312,0.46302 c -0.34565,0.44073 -0.56292,0.58089 -0.56292,0.36313 z"
         id="path401" /><path
         style="fill:#bc4b00"
         d="m 591.33851,-216.09825 -2.50832,-2.57969 2.57969,2.50832 c 1.41883,1.37957 2.57969,2.54043 2.57969,2.57968 0,0.19173 -0.32136,-0.11233 -2.65106,-2.50831 z"
         id="path400" /><path
         style="fill:#bc4b00"
         d="m 639.4979,-211.76638 c 0,-0.0549 0.20836,-0.2633 0.46302,-0.46302 l 0.46302,-0.36312 -0.36312,0.46302 c -0.34565,0.44073 -0.56292,0.58089 -0.56292,0.36312 z"
         id="path399" /><path
         style="fill:#bc4b00"
         d="m 595.27874,-211.86488 -0.36313,-0.46302 0.46302,0.36313 c 0.25466,0.19972 0.46302,0.40808 0.46302,0.46302 0,0.21776 -0.21727,0.0776 -0.56291,-0.36313 z"
         id="path398" /><path
         style="fill:#bc4b00"
         d="m 578.13546,-211.5562 c 0.0127,-0.30822 0.0754,-0.37092 0.15985,-0.15985 0.0764,0.191 0.067,0.4192 -0.0209,0.50712 -0.0879,0.0879 -0.15045,-0.0684 -0.13896,-0.34727 z"
         id="path397" /><path
         style="fill:#bc4b00"
         d="m 637.11665,-209.1205 c 0,-0.0549 0.20836,-0.2633 0.46302,-0.46302 l 0.46302,-0.36313 -0.36312,0.46302 c -0.34565,0.44073 -0.56292,0.58089 -0.56292,0.36313 z"
         id="path396" /><path
         style="fill:#bc4b00"
         d="m 689.45454,-208.4076 c 0.19099,-0.0764 0.4192,-0.067 0.50712,0.0209 0.0879,0.0879 -0.0684,0.15045 -0.34727,0.13896 -0.30822,-0.0127 -0.37092,-0.0754 -0.15985,-0.15985 z"
         id="path395" /><path
         style="fill:#bc4b00"
         d="m 577.91671,-207.5654 c 0.003,-0.58208 0.0571,-0.78905 0.12041,-0.45994 0.0633,0.32912 0.0609,0.80537 -0.005,1.05834 -0.0662,0.25296 -0.11801,-0.0163 -0.11507,-0.5984 z"
         id="path394" /><path
         style="fill:#bc4b00"
         d="m 651.73012,-205.84561 c 0,-0.50932 0.0544,-0.71768 0.121,-0.46302 0.0666,0.25466 0.0666,0.67138 0,0.92604 -0.0666,0.25466 -0.121,0.0463 -0.121,-0.46302 z"
         id="path393" /><path
         style="fill:#bc4b00"
         d="m 632.88332,-203.58103 c 0,-0.2097 0.10796,-0.44799 0.23991,-0.52954 0.13195,-0.0815 0.17759,0.09 0.10143,0.38126 -0.16156,0.6178 -0.34134,0.6959 -0.34134,0.14828 z"
         id="path392" /><path
         style="fill:#bc4b00"
         d="m 577.93467,-203.72894 c 0,-0.94589 0.048,-1.33284 0.10672,-0.8599 0.0587,0.47295 0.0587,1.24685 0,1.71979 -0.0587,0.47295 -0.10672,0.086 -0.10672,-0.85989 z"
         id="path391" /><path
         style="fill:#bc4b00"
         d="m 633.16879,-202.0312 c 0.0127,-0.30822 0.0754,-0.37092 0.15985,-0.15985 0.0764,0.191 0.067,0.4192 -0.0209,0.50712 -0.0879,0.0879 -0.15045,-0.0684 -0.13896,-0.34727 z"
         id="path390" /><path
         style="fill:#bc4b00"
         d="m 631.05212,-200.70828 c 0.0127,-0.30823 0.0754,-0.37092 0.15985,-0.15985 0.0764,0.19099 0.067,0.4192 -0.0209,0.50711 -0.0879,0.0879 -0.15046,-0.0683 -0.13897,-0.34726 z"
         id="path389" /><path
         style="fill:#bc4b00"
         d="m 578.15635,-199.76019 c 0,-0.3638 0.0601,-0.51263 0.13345,-0.33073 0.0734,0.1819 0.0734,0.47956 0,0.66146 -0.0734,0.1819 -0.13345,0.0331 -0.13345,-0.33073 z"
         id="path388" /><path
         style="fill:#bc4b00"
         d="m 631.31671,-198.8562 c 0.0127,-0.30822 0.0754,-0.37092 0.15985,-0.15985 0.0764,0.191 0.067,0.4192 -0.0209,0.50712 -0.0879,0.0879 -0.15045,-0.0683 -0.13896,-0.34727 z"
         id="path387" /><path
         style="fill:#bc4b00"
         d="m 651.73546,-198.56957 c 0.003,-0.58208 0.0571,-0.78905 0.1204,-0.45993 0.0633,0.32912 0.0609,0.80537 -0.005,1.05833 -0.0662,0.25297 -0.118,-0.0163 -0.11506,-0.5984 z"
         id="path386" /><path
         style="fill:#bc4b00"
         d="m 633.72865,-198.0404 c 0.005,-0.43656 0.0647,-0.58312 0.13177,-0.32569 0.0671,0.25743 0.0627,0.61462 -0.01,0.79375 -0.0725,0.17913 -0.12736,-0.0315 -0.12197,-0.46806 z"
         id="path385" /><path
         style="fill:#bc4b00"
         d="m 578.40004,-197.2687 c 0.0127,-0.30822 0.0754,-0.37092 0.15985,-0.15985 0.0764,0.191 0.067,0.4192 -0.0209,0.50712 -0.0879,0.0879 -0.15046,-0.0684 -0.13897,-0.34727 z"
         id="path384" /><path
         style="fill:#bc4b00"
         d="m 631.58129,-196.73953 c 0.0127,-0.30823 0.0754,-0.37092 0.15985,-0.15985 0.0764,0.19099 0.067,0.4192 -0.0209,0.50711 -0.0879,0.0879 -0.15045,-0.0683 -0.13896,-0.34726 z"
         id="path383" /><path
         style="fill:#bc4b00"
         d="m 603.82093,-196.84977 c 0,-0.36381 0.0601,-0.51264 0.13345,-0.33073 0.0734,0.1819 0.0734,0.47955 0,0.66145 -0.0734,0.18191 -0.13345,0.0331 -0.13345,-0.33072 z"
         id="path382" /><path
         style="fill:#bc4b00"
         d="m 651.44593,-195.26227 c 0,-0.36381 0.0601,-0.51264 0.13345,-0.33073 0.0734,0.1819 0.0734,0.47955 0,0.66145 -0.0734,0.18191 -0.13345,0.0331 -0.13345,-0.33072 z"
         id="path381" /><path
         style="fill:#bc4b00"
         d="m 578.66463,-195.15203 c 0.0127,-0.30823 0.0754,-0.37092 0.15985,-0.15985 0.0764,0.19099 0.067,0.4192 -0.0209,0.50711 -0.0879,0.0879 -0.15045,-0.0683 -0.13896,-0.34726 z"
         id="path380" /><path
         style="fill:#bc4b00"
         d="m 603.55635,-194.20394 c 0,-0.3638 0.0601,-0.51263 0.13345,-0.33073 0.0734,0.1819 0.0734,0.47956 0,0.66146 -0.0734,0.1819 -0.13345,0.0331 -0.13345,-0.33073 z"
         id="path379" /><path
         style="fill:#bc4b00"
         d="m 651.16045,-193.03537 c 0.0127,-0.30822 0.0754,-0.37091 0.15986,-0.15985 0.0764,0.191 0.067,0.4192 -0.0209,0.50712 -0.0879,0.0879 -0.15045,-0.0683 -0.13897,-0.34727 z"
         id="path378" /><path
         style="fill:#bc4b00"
         d="m 654.97602,-192.35186 c 0.26339,-0.29104 0.53843,-0.52916 0.61119,-0.52916 0.0728,0 -0.0832,0.23812 -0.3466,0.52916 -0.26339,0.29104 -0.53842,0.52917 -0.61118,0.52917 -0.0728,0 0.0832,-0.23813 0.34659,-0.52917 z"
         id="path377" /><path
         style="fill:#bc4b00"
         d="m 576.22874,-192.28576 -0.36313,-0.46302 0.46302,0.36312 c 0.44073,0.34565 0.58089,0.56292 0.36313,0.56292 -0.0549,0 -0.2633,-0.20836 -0.46302,-0.46302 z"
         id="path376" /><path
         style="fill:#bc4b00"
         d="m 605.69796,-192.4842 c 0.003,-0.58208 0.0571,-0.78905 0.12041,-0.45994 0.0633,0.32912 0.0609,0.80537 -0.005,1.05834 -0.0662,0.25296 -0.11801,-0.0163 -0.11507,-0.5984 z"
         id="path375" /><path
         style="fill:#bc4b00"
         d="m 603.29176,-191.82274 c 0,-0.3638 0.0601,-0.51263 0.13345,-0.33073 0.0734,0.1819 0.0734,0.47956 0,0.66146 -0.0734,0.1819 -0.13345,0.0331 -0.13345,-0.33073 z"
         id="path374" /><path
         style="fill:#bc4b00"
         d="m 653.12394,-190.49982 c 0.26339,-0.29105 0.53842,-0.52917 0.61118,-0.52917 0.0728,0 -0.0832,0.23812 -0.3466,0.52917 -0.26338,0.29104 -0.53842,0.52916 -0.61118,0.52916 -0.0728,0 0.0832,-0.23812 0.3466,-0.52916 z"
         id="path373" /><path
         style="fill:#bc4b00"
         d="m 649.0229,-189.2768 c 0,-0.0549 0.20836,-0.2633 0.46302,-0.46302 l 0.46302,-0.36313 -0.36312,0.46302 c -0.34565,0.44073 -0.56292,0.58089 -0.56292,0.36313 z"
         id="path372" /><path
         style="fill:#bc4b00"
         d="m 634.04171,-192.08732 c 0,-1.67349 0.043,-2.3581 0.0955,-1.52136 0.0525,0.83675 0.0525,2.20596 0,3.04271 -0.0525,0.83674 -0.0955,0.15213 -0.0955,-1.52135 z"
         id="path371" /><path
         style="fill:#bc4b00"
         d="m 579.13915,-189.63993 -0.36312,-0.46302 0.46302,0.36313 c 0.25466,0.19972 0.46302,0.40807 0.46302,0.46302 0,0.21776 -0.21727,0.0776 -0.56292,-0.36313 z"
         id="path370" /><path
         style="fill:#bc4b00"
         d="m 583.1079,-188.5816 -0.36312,-0.46302 0.46302,0.36313 c 0.44073,0.34564 0.58089,0.56292 0.36313,0.56292 -0.0549,0 -0.26331,-0.20836 -0.46303,-0.46303 z"
         id="path369" /><path
         style="fill:#bc4b00"
         d="m 631.60218,-187.58941 c 0,-0.3638 0.0601,-0.51263 0.13345,-0.33073 0.0734,0.1819 0.0734,0.47956 0,0.66146 -0.0734,0.1819 -0.13345,0.0331 -0.13345,-0.33073 z"
         id="path368" /><path
         style="fill:#bc4b00"
         d="m 584.43082,-186.9941 -0.36312,-0.46302 0.46302,0.36313 c 0.44073,0.34564 0.58088,0.56292 0.36312,0.56292 -0.0549,0 -0.2633,-0.20836 -0.46302,-0.46303 z"
         id="path367" /><path
         style="fill:#bc4b00"
         d="m 581.5204,-186.9941 -0.36312,-0.46302 0.46302,0.36313 c 0.25466,0.19972 0.46302,0.40808 0.46302,0.46302 0,0.21776 -0.21727,0.0776 -0.56292,-0.36313 z"
         id="path366" /><path
         style="fill:#bc4b00"
         d="m 633.71884,-186.26649 c 0,-0.3638 0.0601,-0.51263 0.13346,-0.33073 0.0734,0.1819 0.0734,0.47956 0,0.66146 -0.0734,0.1819 -0.13346,0.0331 -0.13346,-0.33073 z"
         id="path365" /><path
         style="fill:#bc4b00"
         d="m 631.31671,-185.09792 c 0.0127,-0.30822 0.0754,-0.37091 0.15985,-0.15985 0.0764,0.191 0.067,0.4192 -0.0209,0.50712 -0.0879,0.0879 -0.15045,-0.0683 -0.13896,-0.34727 z"
         id="path364" /><path
         style="fill:#bc4b00"
         d="m 534.39218,-184.85422 c 0.1819,-0.0734 0.47955,-0.0734 0.66146,0 0.1819,0.0734 0.0331,0.13345 -0.33073,0.13345 -0.36381,0 -0.51263,-0.0601 -0.33073,-0.13345 z"
         id="path363" /><path
         style="fill:#bc4b00"
         d="m 521.42759,-184.85422 c 0.18191,-0.0734 0.47956,-0.0734 0.66146,0 0.1819,0.0734 0.0331,0.13345 -0.33073,0.13345 -0.3638,0 -0.51263,-0.0601 -0.33073,-0.13345 z"
         id="path362" /><path
         style="fill:#bc4b00"
         d="m 605.69796,-185.07587 c 0.003,-0.58208 0.0571,-0.78905 0.12041,-0.45993 0.0633,0.32912 0.0609,0.80537 -0.005,1.05833 -0.0662,0.25297 -0.11801,-0.0163 -0.11507,-0.5984 z"
         id="path361" /><path
         style="fill:#bc4b00"
         d="m 603.29176,-184.41441 c 0,-0.3638 0.0601,-0.51263 0.13345,-0.33073 0.0734,0.1819 0.0734,0.47956 0,0.66146 -0.0734,0.1819 -0.13345,0.0331 -0.13345,-0.33073 z"
         id="path360" /><path
         style="fill:#bc4b00"
         d="m 605.91671,-181.65833 c 0.0127,-0.30823 0.0754,-0.37092 0.15985,-0.15985 0.0764,0.19099 0.067,0.41919 -0.0209,0.50711 -0.0879,0.0879 -0.15045,-0.0684 -0.13896,-0.34726 z"
         id="path359" /><path
         style="fill:#bc4b00"
         d="m 630.78754,-181.39375 c 0.0127,-0.30822 0.0754,-0.37092 0.15985,-0.15985 0.0764,0.191 0.067,0.4192 -0.0209,0.50712 -0.0879,0.0879 -0.15045,-0.0684 -0.13896,-0.34727 z"
         id="path358" /><path
         style="fill:#bc4b00"
         d="m 705.04842,-178.25581 c 0.47294,-0.0587 1.24685,-0.0587 1.71979,0 0.47294,0.0587 0.086,0.10672 -0.8599,0.10672 -0.94588,0 -1.33283,-0.048 -0.85989,-0.10672 z"
         id="path357" /><path
         style="fill:#bc4b00"
         d="m 701.21196,-178.24681 c 0.25466,-0.0666 0.67138,-0.0666 0.92604,0 0.25466,0.0666 0.0463,0.121 -0.46302,0.121 -0.50932,0 -0.71768,-0.0545 -0.46302,-0.121 z"
         id="path356" /><path
         style="fill:#bc4b00"
         d="m 698.16925,-177.97507 c 0.1819,-0.0734 0.47956,-0.0734 0.66146,0 0.1819,0.0734 0.0331,0.13345 -0.33073,0.13345 -0.3638,0 -0.51263,-0.06 -0.33073,-0.13345 z"
         id="path355" /><path
         style="fill:#bc4b00"
         d="m 565.38082,-175.08787 -0.36312,-0.46302 0.46302,0.36313 c 0.25466,0.19972 0.46302,0.40808 0.46302,0.46302 0,0.21776 -0.21727,0.0776 -0.56292,-0.36313 z"
         id="path354" /><path
         style="fill:#bc4b00"
         d="m 567.24663,-173.50037 -0.64143,-0.7276 0.7276,0.64143 c 0.68006,0.59952 0.84894,0.81378 0.64143,0.81378 -0.0474,0 -0.37481,-0.32742 -0.7276,-0.72761 z"
         id="path353" /><path
         style="fill:#bc4b00"
         d="m 566.58006,-170.98682 -0.50403,-0.59532 0.59531,0.50403 c 0.55945,0.47366 0.71576,0.6866 0.50403,0.6866 -0.0502,0 -0.3181,-0.26789 -0.59531,-0.59531 z"
         id="path352" /><path
         style="fill:#bc4b00"
         d="m 678.12707,-169.43307 c 0,-0.0549 0.20835,-0.2633 0.46302,-0.46302 l 0.46302,-0.36313 -0.36313,0.46302 c -0.34564,0.44073 -0.56291,0.58089 -0.56291,0.36313 z"
         id="path351" /><path
         style="fill:#bc4b00"
         d="m 674.68748,-168.63932 c 0,-0.055 0.20836,-0.2633 0.46302,-0.46302 l 0.46302,-0.36313 -0.36312,0.46302 c -0.34565,0.44073 -0.56292,0.58089 -0.56292,0.36313 z"
         id="path350" /><path
         style="fill:#bc4b00"
         d="m 572.66547,-168.07641 -0.50402,-0.59531 0.59531,0.50403 c 0.55945,0.47366 0.71576,0.68659 0.50403,0.68659 -0.0502,0 -0.3181,-0.26789 -0.59532,-0.59531 z"
         id="path349" /><path
         style="fill:#bc4b00"
         d="m 676.27498,-167.31641 c 0,-0.0549 0.20836,-0.2633 0.46302,-0.46302 l 0.46302,-0.36312 -0.36312,0.46302 c -0.34565,0.44073 -0.56292,0.58088 -0.56292,0.36312 z"
         id="path348" /><path
         style="fill:#bc4b00"
         d="m 570.54881,-167.01807 -0.50403,-0.59532 0.59531,0.50403 c 0.55945,0.47366 0.71576,0.6866 0.50403,0.6866 -0.0502,0 -0.3181,-0.26789 -0.59531,-0.59531 z"
         id="path347" /><path
         style="fill:#bc4b00"
         d="m 674.81977,-165.62901 c 0.26339,-0.29104 0.53842,-0.52917 0.61118,-0.52917 0.0728,0 -0.0832,0.23813 -0.34659,0.52917 -0.26339,0.29104 -0.53842,0.52916 -0.61118,0.52916 -0.0728,0 0.0832,-0.23812 0.34659,-0.52916 z"
         id="path346" /><path
         style="fill:#bc4b00"
         d="m 670.18957,-163.79349 c 0,-0.0728 0.71437,-0.83922 1.5875,-1.70323 0.87312,-0.86401 1.5875,-1.5114 1.5875,-1.43864 0,0.0728 -0.71438,0.83921 -1.5875,1.70322 -0.87313,0.86402 -1.5875,1.51141 -1.5875,1.43865 z"
         id="path345" /><path
         style="fill:#bc4b00"
         d="m 671.77707,-162.27222 c 0,-0.0455 0.38695,-0.43249 0.85989,-0.85989 l 0.8599,-0.77711 -0.77711,0.8599 c -0.72437,0.80154 -0.94268,0.98151 -0.94268,0.7771 z"
         id="path344" /><path
         style="fill:#bc4b00"
         d="m 668.0729,-162.02474 c 0,-0.0549 0.20836,-0.2633 0.46302,-0.46302 l 0.46302,-0.36313 -0.36313,0.46302 c -0.34564,0.44073 -0.56291,0.58089 -0.56291,0.36313 z"
         id="path343" /><path
         style="fill:#bc4b00"
         d="m 639.25421,-162.07924 c 0.0127,-0.30822 0.0754,-0.37091 0.15985,-0.15985 0.0764,0.191 0.067,0.4192 -0.0209,0.50712 -0.0879,0.0879 -0.15045,-0.0684 -0.13896,-0.34727 z"
         id="path342" /><path
         style="fill:#bc4b00"
         d="m 627.61254,-161.0209 c 0.0127,-0.30823 0.0754,-0.37092 0.15985,-0.15985 0.0764,0.19099 0.067,0.41919 -0.0209,0.50711 -0.0879,0.0879 -0.15045,-0.0683 -0.13896,-0.34726 z"
         id="path341" /><path
         style="fill:#bc4b00"
         d="m 669.39582,-160.17271 c 0,-0.0549 0.20836,-0.2633 0.46302,-0.46302 l 0.46302,-0.36312 -0.36313,0.46302 c -0.34564,0.44073 -0.56291,0.58088 -0.56291,0.36312 z"
         id="path340" /><path
         style="fill:#bc4b00"
         d="m 638.98962,-160.49174 c 0.0127,-0.30822 0.0754,-0.37091 0.15985,-0.15985 0.0764,0.191 0.067,0.4192 -0.0209,0.50712 -0.0879,0.0879 -0.15046,-0.0684 -0.13897,-0.34727 z"
         id="path339" /><path
         style="fill:#bc4b00"
         d="m 534.15999,-159.4775 -0.36313,-0.46302 0.46303,0.36313 c 0.25466,0.19971 0.46302,0.40807 0.46302,0.46302 0,0.21776 -0.21728,0.0776 -0.56292,-0.36313 z"
         id="path338" /><path
         style="fill:#bc4b00"
         d="m 615.76255,-158.94635 c 0.98832,-0.051 2.53613,-0.0507 3.43958,8.4e-4 0.90346,0.0515 0.0948,0.0933 -1.79694,0.0928 -1.89177,-4.6e-4 -2.63096,-0.0426 -1.64264,-0.0936 z"
         id="path337" /><path
         style="fill:#bc4b00"
         d="m 596.39171,-159.16882 c 0.0127,-0.30822 0.0754,-0.37092 0.15985,-0.15985 0.0764,0.19099 0.067,0.4192 -0.0209,0.50712 -0.0879,0.0879 -0.15045,-0.0683 -0.13896,-0.34727 z"
         id="path336" /><path
         style="fill:#bc4b00"
         d="m 627.36884,-158.48531 c 0,-0.3638 0.0601,-0.51263 0.13346,-0.33073 0.0734,0.1819 0.0734,0.47956 0,0.66146 -0.0734,0.1819 -0.13346,0.0331 -0.13346,-0.33073 z"
         id="path335" /><path
         style="fill:#bc4b00"
         d="m 580.88025,-157.75771 -1.04589,-1.12448 1.12448,1.04589 c 1.04576,0.97266 1.24606,1.20307 1.04589,1.20307 -0.0432,0 -0.54925,-0.50601 -1.12448,-1.12448 z"
         id="path334" /><path
         style="fill:#bc4b00"
         d="m 596.68698,-157.0301 c 0.005,-0.43657 0.0647,-0.58313 0.13178,-0.3257 0.0671,0.25743 0.0627,0.61462 -0.01,0.79375 -0.0725,0.17913 -0.12736,-0.0315 -0.12197,-0.46805 z"
         id="path333" /><path
         style="fill:#bc4b00"
         d="m 704.05623,-155.3931 c 0,-0.0455 0.38695,-0.43249 0.8599,-0.8599 l 0.85989,-0.7771 -0.7771,0.85989 c -0.72437,0.80155 -0.94269,0.98151 -0.94269,0.77711 z"
         id="path332" /><path
         style="fill:#bc4b00"
         d="m 703.13019,-154.51656 c 0.26339,-0.29104 0.53842,-0.52917 0.61118,-0.52917 0.0728,0 -0.0832,0.23813 -0.3466,0.52917 -0.26339,0.29104 -0.53842,0.52916 -0.61118,0.52916 -0.0728,0 0.0832,-0.23812 0.3466,-0.52916 z"
         id="path331" /><path
         style="fill:#bc4b00"
         d="m 539.72996,-153.92125 -0.64143,-0.7276 0.7276,0.64143 c 0.68006,0.59952 0.84894,0.81377 0.64144,0.81377 -0.0474,0 -0.37482,-0.32742 -0.72761,-0.7276 z"
         id="path330" /><path
         style="fill:#bc4b00"
         d="m 594.60769,-154.51656 c 0,-1.09141 0.0467,-1.53789 0.10379,-0.99219 0.0571,0.5457 0.0571,1.43867 0,1.98438 -0.0571,0.5457 -0.10379,0.0992 -0.10379,-0.99219 z"
         id="path329" /><path
         style="fill:#bc4b00"
         d="m 700.08748,-151.70604 c 0,-0.0549 0.20836,-0.2633 0.46302,-0.46302 l 0.46302,-0.36313 -0.36312,0.46302 c -0.34565,0.44073 -0.56292,0.58089 -0.56292,0.36313 z"
         id="path328" /><path
         style="fill:#bc4b00"
         d="m 542.09749,-151.80454 -0.36313,-0.46302 0.46302,0.36312 c 0.25467,0.19972 0.46303,0.40808 0.46303,0.46302 0,0.21776 -0.21728,0.0776 -0.56292,-0.36312 z"
         id="path327" /><path
         style="fill:#bc4b00"
         d="m 535.20246,-151.25768 c 0.191,-0.0764 0.4192,-0.067 0.50712,0.0209 0.0879,0.0879 -0.0684,0.15045 -0.34726,0.13896 -0.30823,-0.0127 -0.37092,-0.0754 -0.15986,-0.15985 z"
         id="path326" /><path
         style="fill:#bc4b00"
         d="m 538.11288,-150.9931 c 0.191,-0.0764 0.4192,-0.067 0.50712,0.0209 0.0879,0.0879 -0.0684,0.15045 -0.34727,0.13897 -0.30822,-0.0127 -0.37092,-0.0754 -0.15985,-0.15986 z"
         id="path325" /><path
         style="fill:#bc4b00"
         d="m 523.29621,-150.9931 c 0.191,-0.0764 0.4192,-0.067 0.50712,0.0209 0.0879,0.0879 -0.0684,0.15045 -0.34726,0.13897 -0.30823,-0.0127 -0.37092,-0.0754 -0.15986,-0.15986 z"
         id="path324" /><path
         style="fill:#bc4b00"
         d="m 645.0204,-149.15871 -0.36312,-0.46302 0.46302,0.36313 c 0.44073,0.34564 0.58088,0.56291 0.36312,0.56291 -0.0549,0 -0.2633,-0.20836 -0.46302,-0.46302 z"
         id="path323" /><path
         style="fill:#bc4b00"
         d="m 710.60467,-148.34175 c 0.1819,-0.0734 0.47955,-0.0734 0.66146,0 0.1819,0.0734 0.0331,0.13345 -0.33073,0.13345 -0.36381,0 -0.51263,-0.06 -0.33073,-0.13345 z"
         id="path322" /><path
         style="fill:#bc4b00"
         d="m 701.36079,-148.34775 c 0.19099,-0.0764 0.4192,-0.067 0.50712,0.0209 0.0879,0.0879 -0.0684,0.15045 -0.34727,0.13896 -0.30822,-0.0127 -0.37092,-0.0754 -0.15985,-0.15985 z"
         id="path321" /><path
         style="fill:#bc4b00"
         d="m 713.26704,-148.08317 c 0.19099,-0.0764 0.4192,-0.067 0.50712,0.0209 0.0879,0.0879 -0.0684,0.15045 -0.34727,0.13896 -0.30822,-0.0127 -0.37092,-0.0754 -0.15985,-0.15985 z"
         id="path320" /><path
         style="fill:#bc4b00"
         d="m 514.73022,-142.41232 -0.7771,-0.8599 0.85989,0.7771 c 0.47294,0.42741 0.8599,0.81437 0.8599,0.8599 0,0.20441 -0.21832,0.0244 -0.94269,-0.7771 z"
         id="path319" /><path
         style="fill:#bc4b00"
         d="m 516.44663,-140.69253 -0.64143,-0.72761 0.7276,0.64144 c 0.68006,0.59951 0.84894,0.81377 0.64144,0.81377 -0.0474,0 -0.37482,-0.32742 -0.72761,-0.7276 z"
         id="path318" /><path
         style="fill:#bc4b00"
         d="m 518.81416,-138.57587 -0.36313,-0.46302 0.46302,0.36313 c 0.44073,0.34564 0.58089,0.56291 0.36313,0.56291 -0.0549,0 -0.2633,-0.20836 -0.46302,-0.46302 z"
         id="path317" /><path
         style="fill:#bc4b00"
         d="m 728.2656,-138.11285 c 0.26339,-0.29104 0.53842,-0.52916 0.61119,-0.52916 0.0728,0 -0.0832,0.23812 -0.3466,0.52916 -0.26339,0.29105 -0.53842,0.52917 -0.61118,0.52917 -0.0728,0 0.0832,-0.23812 0.34659,-0.52917 z"
         id="path316" /><path
         style="fill:#bc4b00"
         d="m 574.36079,-137.76442 c 0.191,-0.0764 0.4192,-0.067 0.50712,0.0209 0.0879,0.0879 -0.0684,0.15045 -0.34726,0.13896 -0.30823,-0.0127 -0.37092,-0.0754 -0.15986,-0.15985 z"
         id="path315" /><path
         style="fill:#bc4b00"
         d="m 576.21288,-137.49984 c 0.19099,-0.0764 0.4192,-0.067 0.50712,0.0209 0.0879,0.0879 -0.0684,0.15045 -0.34727,0.13897 -0.30822,-0.0127 -0.37092,-0.0754 -0.15985,-0.15986 z"
         id="path314" /><path
         style="fill:#bc4b00"
         d="m 662.71509,-135.90682 c 0.1819,-0.0734 0.47955,-0.0734 0.66146,0 0.1819,0.0734 0.0331,0.13345 -0.33073,0.13345 -0.36381,0 -0.51263,-0.0601 -0.33073,-0.13345 z"
         id="path313" /><path
         style="fill:#bc4b00"
         d="m 571.45038,-135.91282 c 0.19099,-0.0764 0.4192,-0.067 0.50712,0.0209 0.0879,0.0879 -0.0684,0.15045 -0.34727,0.13897 -0.30822,-0.0127 -0.37092,-0.0754 -0.15985,-0.15986 z"
         id="path312" /><path
         style="fill:#bc4b00"
         d="m 657.55571,-135.66023 c 0.54571,-0.0571 1.43867,-0.0571 1.98438,0 0.5457,0.0571 0.0992,0.10378 -0.99219,0.10378 -1.09141,0 -1.53789,-0.0467 -0.99219,-0.10378 z"
         id="path311" /><path
         style="fill:#bc4b00"
         d="m 574.62538,-135.38365 c 0.19099,-0.0764 0.4192,-0.067 0.50712,0.0209 0.0879,0.0879 -0.0684,0.15045 -0.34727,0.13896 -0.30822,-0.0127 -0.37092,-0.0754 -0.15985,-0.15985 z"
         id="path310" /><path
         style="fill:#bc4b00"
         d="m 668.02329,-134.32532 c 0.191,-0.0764 0.4192,-0.067 0.50712,0.0209 0.0879,0.0879 -0.0684,0.15045 -0.34727,0.13897 -0.30822,-0.0127 -0.37092,-0.0754 -0.15985,-0.15986 z"
         id="path309" /><path
         style="fill:#bc4b00"
         d="m 663.77342,-133.79064 c 0.1819,-0.0734 0.47956,-0.0734 0.66146,0 0.1819,0.0734 0.0331,0.13345 -0.33073,0.13345 -0.3638,0 -0.51263,-0.06 -0.33073,-0.13345 z"
         id="path308" /><path
         style="fill:#bc4b00"
         d="m 546.17117,-133.79864 c 0.25743,-0.0671 0.61462,-0.0627 0.79375,0.01 0.17913,0.0725 -0.0315,0.12736 -0.46806,0.12197 -0.43656,-0.005 -0.58312,-0.0647 -0.32569,-0.13177 z"
         id="path307" /><path
         style="fill:#bc4b00"
         d="m 538.36093,-133.79064 c 0.1819,-0.0734 0.47955,-0.0734 0.66145,0 0.18191,0.0734 0.0331,0.13345 -0.33072,0.13345 -0.36381,0 -0.51263,-0.06 -0.33073,-0.13345 z"
         id="path306" /><path
         style="fill:#bc4b00"
         d="m 660.20658,-133.53418 c 0.25743,-0.0671 0.61462,-0.0627 0.79375,0.01 0.17913,0.0725 -0.0315,0.12737 -0.46806,0.12197 -0.43656,-0.005 -0.58312,-0.0647 -0.32569,-0.13177 z"
         id="path305" /><path
         style="fill:#bc4b00"
         d="m 548.9608,-133.53118 c 0.19099,-0.0764 0.4192,-0.067 0.50711,0.0209 0.0879,0.0879 -0.0684,0.15045 -0.34726,0.13897 -0.30823,-0.0127 -0.37092,-0.0754 -0.15985,-0.15986 z"
         id="path304" /><path
         style="fill:#bc4b00"
         d="m 542.46197,-131.69109 c 0.5457,-0.0571 1.43867,-0.0571 1.98437,0 0.54571,0.0571 0.0992,0.10378 -0.99218,0.10378 -1.09141,0 -1.53789,-0.0467 -0.99219,-0.10378 z"
         id="path303" /><path
         style="fill:#bc4b00"
         d="m 547.90246,-131.41451 c 0.191,-0.0764 0.4192,-0.067 0.50712,0.0209 0.0879,0.0879 -0.0684,0.15045 -0.34726,0.13896 -0.30823,-0.0127 -0.37092,-0.0754 -0.15986,-0.15985 z"
         id="path302" /><path
         style="fill:#bc4b00"
         d="m 539.17121,-131.41451 c 0.191,-0.0764 0.4192,-0.067 0.50712,0.0209 0.0879,0.0879 -0.0684,0.15045 -0.34726,0.13896 -0.30823,-0.0127 -0.37092,-0.0754 -0.15986,-0.15985 z"
         id="path301" /><path
         style="fill:#bc4b00"
         d="m 549.73801,-131.14441 c 0.1819,-0.0734 0.47956,-0.0734 0.66146,0 0.1819,0.0734 0.0331,0.13345 -0.33073,0.13345 -0.3638,0 -0.51263,-0.0601 -0.33073,-0.13345 z"
         id="path300" /><path
         style="fill:#bc4b00"
         d="m 551.87121,-130.88534 c 0.191,-0.0764 0.4192,-0.067 0.50712,0.0209 0.0879,0.0879 -0.0684,0.15045 -0.34727,0.13896 -0.30822,-0.0127 -0.37091,-0.0754 -0.15985,-0.15985 z"
         id="path299" /><path
         style="fill:#bc4b00"
         d="m 661.21462,-124.77353 c 0.0127,-0.30822 0.0754,-0.37092 0.15985,-0.15985 0.0764,0.191 0.067,0.4192 -0.0209,0.50712 -0.0879,0.0879 -0.15046,-0.0683 -0.13897,-0.34727 z"
         id="path298" /><path
         style="fill:#bc4b00"
         d="m 693.67134,-122.67775 c 0.1819,-0.0734 0.47955,-0.0734 0.66145,0 0.1819,0.0734 0.0331,0.13345 -0.33073,0.13345 -0.3638,0 -0.51263,-0.0601 -0.33072,-0.13345 z"
         id="path297" /><path
         style="fill:#bc4b00"
         d="m 681.23592,-122.67775 c 0.1819,-0.0734 0.47956,-0.0734 0.66146,0 0.1819,0.0734 0.0331,0.13345 -0.33073,0.13345 -0.3638,0 -0.51263,-0.0601 -0.33073,-0.13345 z"
         id="path296" /><path
         style="fill:#bc4b00"
         d="m 661.4792,-122.92144 c 0.0127,-0.30823 0.0754,-0.37092 0.15986,-0.15986 0.0764,0.191 0.067,0.4192 -0.0209,0.50712 -0.0879,0.0879 -0.15045,-0.0683 -0.13897,-0.34726 z"
         id="path295" /><path
         style="fill:#bc4b00"
         d="m 679.13579,-122.41868 c 0.191,-0.0764 0.4192,-0.067 0.50712,0.0209 0.0879,0.0879 -0.0684,0.15045 -0.34727,0.13897 -0.30822,-0.0127 -0.37092,-0.0754 -0.15985,-0.15986 z"
         id="path294" /><path
         style="fill:#bc4b00"
         d="m 573.10838,-121.59853 c 0.0127,-0.30822 0.0754,-0.37092 0.15985,-0.15985 0.0764,0.191 0.067,0.4192 -0.0209,0.50712 -0.0879,0.0879 -0.15045,-0.0684 -0.13896,-0.34727 z"
         id="path293" /><path
         style="fill:#bc4b00"
         d="m 692.89412,-120.56659 c 0.191,-0.0764 0.4192,-0.067 0.50712,0.0209 0.0879,0.0879 -0.0684,0.15046 -0.34727,0.13897 -0.30822,-0.0127 -0.37092,-0.0754 -0.15985,-0.15985 z"
         id="path292" /><path
         style="fill:#bc4b00"
         d="m 682.42654,-120.56859 c 0.25467,-0.0666 0.67138,-0.0666 0.92605,0 0.25466,0.0665 0.0463,0.121 -0.46303,0.121 -0.50932,0 -0.71768,-0.0545 -0.46302,-0.121 z"
         id="path291" /><path
         style="fill:#bc4b00"
         d="m 695.01079,-120.30236 c 0.19099,-0.0764 0.4192,-0.067 0.50712,0.0209 0.0879,0.0879 -0.0684,0.15045 -0.34727,0.13896 -0.30822,-0.0127 -0.37092,-0.0754 -0.15985,-0.15985 z"
         id="path290" /><path
         style="fill:#bc4b00"
         d="m 680.45871,-120.30236 c 0.19099,-0.0764 0.41919,-0.067 0.50711,0.0209 0.0879,0.0879 -0.0684,0.15045 -0.34726,0.13896 -0.30823,-0.0127 -0.37092,-0.0754 -0.15985,-0.15985 z"
         id="path289" /><path
         style="fill:#bc4b00"
         d="m 661.77448,-120.51849 c 0.005,-0.43657 0.0647,-0.58313 0.13177,-0.3257 0.0671,0.25743 0.0627,0.61462 -0.01,0.79375 -0.0725,0.17913 -0.12736,-0.0315 -0.12197,-0.46805 z"
         id="path288" /><path
         style="fill:#bc4b00"
         d="m 572.84379,-119.74679 c 0.0127,-0.30823 0.0754,-0.37092 0.15985,-0.15986 0.0764,0.191 0.067,0.4192 -0.0209,0.50712 -0.0879,0.0879 -0.15046,-0.0683 -0.13897,-0.34726 z"
         id="path287" /><path
         style="fill:#bc4b00"
         d="m 572.6001,-117.2112 c 0,-0.3638 0.0601,-0.51263 0.13345,-0.33073 0.0734,0.1819 0.0734,0.47956 0,0.66146 -0.0734,0.1819 -0.13345,0.0331 -0.13345,-0.33073 z"
         id="path286" /><path
         style="fill:#bc4b00"
         d="m 662.04887,-112.97787 c 0,-0.50932 0.0545,-0.71768 0.121,-0.46302 0.0666,0.25466 0.0666,0.67138 0,0.92604 -0.0665,0.25466 -0.121,0.0463 -0.121,-0.46302 z"
         id="path285" /><path
         style="fill:#bc4b00"
         d="m 661.74379,-110.22179 c 0.0127,-0.30823 0.0754,-0.37092 0.15985,-0.15986 0.0764,0.191 0.067,0.4192 -0.0209,0.50712 -0.0879,0.0879 -0.15045,-0.0683 -0.13896,-0.34726 z"
         id="path284" /><path
         style="fill:#bc4b00"
         d="m 661.4792,-108.10513 c 0.0127,-0.30822 0.0754,-0.37092 0.15986,-0.15985 0.0764,0.191 0.067,0.4192 -0.0209,0.50712 -0.0879,0.0879 -0.15045,-0.0683 -0.13897,-0.34727 z"
         id="path283" /><path
         style="fill:#bc4b00"
         d="m 549.87534,-102.57789 c 0.25743,-0.0671 0.61462,-0.0627 0.79375,0.01 0.17913,0.0725 -0.0315,0.12737 -0.46806,0.12197 -0.43656,-0.005 -0.58312,-0.0647 -0.32569,-0.13177 z"
         id="path282" /><path
         style="fill:#bc4b00"
         d="m 533.87955,-102.57489 c 0.19099,-0.0764 0.4192,-0.067 0.50711,0.0209 0.0879,0.0879 -0.0684,0.15045 -0.34726,0.13897 -0.30823,-0.0127 -0.37092,-0.0754 -0.15985,-0.15986 z"
         id="path281" /><path
         style="fill:#bc4b00"
         d="m 546.70034,-102.31292 c 0.25743,-0.0671 0.61462,-0.0627 0.79375,0.01 0.17913,0.0725 -0.0315,0.12736 -0.46806,0.12197 -0.43656,-0.005 -0.58312,-0.0647 -0.32569,-0.13178 z"
         id="path280" /><path
         style="fill:#bc4b00"
         d="m 537.56718,-102.31592 c 0.32742,-0.0631 0.8632,-0.0631 1.19062,0 0.32742,0.0631 0.0595,0.11466 -0.59531,0.11466 -0.65484,0 -0.92274,-0.0516 -0.59531,-0.11466 z"
         id="path279" /><path
         style="fill:#bc4b00"
         d="m 554.78163,-100.98702 c 0.191,-0.0764 0.4192,-0.067 0.50712,0.0209 0.0879,0.0879 -0.0684,0.15045 -0.34727,0.13897 -0.30822,-0.0127 -0.37092,-0.0754 -0.15985,-0.15986 z"
         id="path278" /><path
         style="fill:#bc4b00"
         d="m 550.81288,-100.45785 c 0.191,-0.0764 0.4192,-0.067 0.50712,0.0209 0.0879,0.0879 -0.0684,0.15045 -0.34727,0.13896 -0.30822,-0.0127 -0.37092,-0.0754 -0.15985,-0.15985 z"
         id="path277" /><path
         style="fill:#bc4b00"
         d="m 547.75867,-100.19588 c 0.25743,-0.0671 0.61462,-0.0627 0.79375,0.01 0.17913,0.0725 -0.0315,0.12737 -0.46806,0.12197 -0.43656,-0.005 -0.58312,-0.0647 -0.32569,-0.13177 z"
         id="path276" /><path
         style="fill:#bc4b00"
         d="m 536.64114,-100.19491 c 0.25466,-0.0665 0.67138,-0.0665 0.92604,0 0.25466,0.0666 0.0463,0.121 -0.46302,0.121 -0.50933,0 -0.71769,-0.0544 -0.46302,-0.121 z"
         id="path275" /><path
         style="fill:#bc4b00"
         d="m 709.0337,-92.520354 c 0.191,-0.07643 0.4192,-0.06703 0.50712,0.02089 0.0879,0.08792 -0.0684,0.150453 -0.34726,0.138964 -0.30823,-0.0127 -0.37092,-0.07539 -0.15986,-0.159852 z"
         id="path274" /><path
         style="fill:#bc4b00"
         d="m 706.12329,-91.991188 c 0.19099,-0.07643 0.4192,-0.06703 0.50712,0.02089 0.0879,0.08792 -0.0684,0.150452 -0.34727,0.138964 -0.30822,-0.0127 -0.37092,-0.07539 -0.15985,-0.159854 z"
         id="path273" /><path
         style="fill:#bc4b00"
         d="m 685.48579,-91.991188 c 0.19099,-0.07643 0.4192,-0.06703 0.50712,0.02089 0.0879,0.08792 -0.0684,0.150452 -0.34727,0.138964 -0.30822,-0.0127 -0.37092,-0.07539 -0.15985,-0.159854 z"
         id="path272" /><path
         style="fill:#bc4b00"
         d="m 576.46092,-91.721092 c 0.18191,-0.0734 0.47956,-0.0734 0.66146,0 0.1819,0.0734 0.0331,0.133452 -0.33073,0.133452 -0.3638,0 -0.51263,-0.06005 -0.33073,-0.133452 z"
         id="path271" /><path
         style="fill:#bc4b00"
         d="m 701.34425,-91.456509 c 0.1819,-0.0734 0.47956,-0.0734 0.66146,0 0.1819,0.0734 0.0331,0.133452 -0.33073,0.133452 -0.3638,0 -0.51263,-0.06005 -0.33073,-0.133452 z"
         id="path270" /><path
         style="fill:#bc4b00"
         d="m 691.15779,-91.463709 c 0.25467,-0.06655 0.67138,-0.06655 0.92605,0 0.25466,0.06655 0.0463,0.121 -0.46303,0.121 -0.50932,0 -0.71768,-0.05445 -0.46302,-0.121 z"
         id="path269" /><path
         style="fill:#bc4b00"
         d="m 574.34426,-91.456509 c 0.1819,-0.0734 0.47956,-0.0734 0.66146,0 0.1819,0.0734 0.0331,0.133452 -0.33073,0.133452 -0.3638,0 -0.51263,-0.06005 -0.33073,-0.133452 z"
         id="path268" /><path
         style="fill:#bc4b00"
         d="m 572.50871,-91.197438 c 0.191,-0.07643 0.4192,-0.06703 0.50712,0.02089 0.0879,0.08792 -0.0684,0.150452 -0.34727,0.138964 -0.30822,-0.0127 -0.37092,-0.07539 -0.15985,-0.159854 z"
         id="path267" /><path
         style="fill:#bc4b00"
         d="m 520.69999,-90.587425 c 0,-0.05494 0.20836,-0.263302 0.46302,-0.463021 l 0.46302,-0.363126 -0.36312,0.463021 c -0.34565,0.440729 -0.56292,0.580887 -0.56292,0.363126 z"
         id="path266" /><path
         style="fill:#bc4b00"
         d="m 687.07329,-89.609938 c 0.19099,-0.07643 0.4192,-0.06703 0.50712,0.02089 0.0879,0.08792 -0.0684,0.150453 -0.34727,0.138965 -0.30822,-0.0127 -0.37092,-0.07539 -0.15985,-0.159853 z"
         id="path265" /><path
         style="fill:#bc4b00"
         d="m 689.31075,-89.347968 c 0.25743,-0.06708 0.61461,-0.06267 0.79375,0.0098 0.17913,0.07248 -0.0315,0.127362 -0.46806,0.12197 -0.43656,-0.0054 -0.58313,-0.06469 -0.32569,-0.131774 z"
         id="path264" /><path
         style="fill:#bc4b00"
         d="m 575.15454,-89.345368 c 0.191,-0.07643 0.4192,-0.06703 0.50712,0.02089 0.0879,0.08792 -0.0684,0.150453 -0.34726,0.138964 -0.30823,-0.0127 -0.37092,-0.07539 -0.15986,-0.159852 z"
         id="path263" /><path
         style="fill:#bc4b00"
         d="m 693.01491,-89.083398 c 0.25743,-0.06708 0.61462,-0.06267 0.79375,0.0098 0.17913,0.07247 -0.0315,0.127362 -0.46805,0.121969 -0.43657,-0.0054 -0.58313,-0.06469 -0.3257,-0.131773 z"
         id="path262" /><path
         style="fill:#bc4b00"
         d="m 571.71496,-88.816202 c 0.191,-0.07643 0.4192,-0.06703 0.50712,0.02089 0.0879,0.08792 -0.0684,0.150453 -0.34727,0.138965 -0.30822,-0.0127 -0.37092,-0.07539 -0.15985,-0.159853 z"
         id="path261" /><path
         style="fill:#bc4b00"
         d="m 518.84791,-89.032336 c 0.34177,-0.363802 0.68094,-0.661458 0.7537,-0.661458 0.0728,0 -0.14735,0.297656 -0.48912,0.661458 -0.34177,0.363802 -0.68094,0.661458 -0.7537,0.661458 -0.0728,0 0.14734,-0.297656 0.48912,-0.661458 z"
         id="path260" /><path
         style="fill:#bc4b00"
         d="m 515.40832,-85.592753 c 0.34178,-0.363802 0.68094,-0.661458 0.7537,-0.661458 0.0728,0 -0.14734,0.297656 -0.48911,0.661458 -0.34178,0.363802 -0.68094,0.661459 -0.7537,0.661459 -0.0728,0 0.14734,-0.297657 0.48911,-0.661459 z"
         id="path259" /><path
         style="fill:#bc4b00"
         d="m 582.57874,-85.129732 -0.36313,-0.463021 0.46302,0.363126 c 0.44073,0.345644 0.58089,0.562916 0.36313,0.562916 -0.0549,0 -0.2633,-0.20836 -0.46302,-0.463021 z"
         id="path258" /><path
         style="fill:#bc4b00"
         d="m 705.75088,-83.145357 -0.50402,-0.595313 0.59531,0.504028 c 0.55944,0.473662 0.71576,0.686597 0.50403,0.686597 -0.0502,0 -0.3181,-0.26789 -0.59532,-0.595312 z"
         id="path257" /><path
         style="fill:#bc4b00"
         d="m 512.76249,-82.649939 c 0,-0.05494 0.20836,-0.263302 0.46302,-0.463021 l 0.46302,-0.363126 -0.36312,0.463021 c -0.34565,0.440729 -0.56292,0.580887 -0.56292,0.363126 z"
         id="path256" /><path
         style="fill:#bc4b00"
         d="m 646.90623,-80.449943 c 0,-0.07276 0.71438,-0.839212 1.5875,-1.703227 0.87313,-0.864014 1.5875,-1.511403 1.5875,-1.438643 0,0.07276 -0.71437,0.839212 -1.5875,1.703227 -0.87312,0.864014 -1.5875,1.511404 -1.5875,1.438643 z"
         id="path255" /><path
         style="fill:#bc4b00"
         d="m 645.31873,-79.210356 c 0,-0.05494 0.20836,-0.263302 0.46302,-0.463021 l 0.46303,-0.363126 -0.36313,0.463021 c -0.34564,0.440729 -0.56292,0.580887 -0.56292,0.363126 z"
         id="path254" /><path
         style="fill:#bc4b00"
         d="m 711.16623,-77.721399 -0.36312,-0.463021 0.46302,0.363126 c 0.44073,0.345644 0.58088,0.562916 0.36312,0.562916 -0.0549,0 -0.2633,-0.208359 -0.46302,-0.463021 z"
         id="path253" /><path
         style="fill:#bc4b00"
         d="m 590.78082,-77.721399 -0.36313,-0.463021 0.46303,0.363126 c 0.44072,0.345644 0.58088,0.562916 0.36312,0.562916 -0.0549,0 -0.2633,-0.208359 -0.46302,-0.463021 z"
         id="path252" /><path
         style="fill:#bc4b00"
         d="m 545.57082,-76.299939 c 0,-0.05494 0.20836,-0.263302 0.46302,-0.463021 l 0.46302,-0.363126 -0.36312,0.463021 c -0.34565,0.440729 -0.56292,0.580887 -0.56292,0.363126 z"
         id="path251" /><path
         style="fill:#bc4b00"
         d="m 542.39582,-76.59692 c 0.49366,-0.509323 0.95709,-0.926041 1.02985,-0.926041 0.0728,0 -0.27161,0.416718 -0.76526,0.926041 -0.49366,0.509323 -0.95709,0.926042 -1.02985,0.926042 -0.0728,0 0.27161,-0.416719 0.76526,-0.926042 z"
         id="path250" /><path
         style="fill:#bc4b00"
         d="m 672.27248,-74.810982 -0.36312,-0.463021 0.46302,0.363126 c 0.25466,0.199719 0.46302,0.408079 0.46302,0.463021 0,0.217761 -0.21727,0.0776 -0.56292,-0.363126 z"
         id="path249" /><path
         style="fill:#bc4b00"
         d="m 714.07665,-74.281815 -0.36313,-0.463021 0.46302,0.363126 c 0.25466,0.199719 0.46302,0.408078 0.46302,0.463021 0,0.217761 -0.21727,0.0776 -0.56291,-0.363126 z"
         id="path248" /><path
         style="fill:#bc4b00"
         d="m 538.95624,-72.860356 c 0,-0.05494 0.20836,-0.263302 0.46302,-0.463021 l 0.46302,-0.363126 -0.36313,0.463021 c -0.34564,0.440729 -0.56291,0.580887 -0.56291,0.363126 z"
         id="path247" /><path
         style="fill:#bc4b00"
         d="m 674.66746,-72.694316 -0.64144,-0.727604 0.72761,0.641433 c 0.40018,0.352789 0.7276,0.68021 0.7276,0.727605 0,0.207505 -0.21426,0.03862 -0.81377,-0.641434 z"
         id="path246" /><path
         style="fill:#bc4b00"
         d="m 515.09413,-72.147452 c 0.191,-0.07643 0.4192,-0.06703 0.50712,0.02089 0.0879,0.08792 -0.0684,0.150453 -0.34727,0.138964 -0.30822,-0.0127 -0.37092,-0.07539 -0.15985,-0.159852 z"
         id="path245" /><path
         style="fill:#bc4b00"
         d="m 671.61964,-72.297441 -0.50403,-0.595312 0.59531,0.504028 c 0.55945,0.473662 0.71576,0.686597 0.50403,0.686597 -0.0502,0 -0.3181,-0.267891 -0.59531,-0.595313 z"
         id="path244" /><path
         style="fill:#bc4b00"
         d="m 516.94621,-71.882869 c 0.191,-0.07643 0.4192,-0.06703 0.50712,0.02089 0.0879,0.08792 -0.0684,0.150452 -0.34726,0.138964 -0.30823,-0.0127 -0.37092,-0.07539 -0.15986,-0.159854 z"
         id="path243" /><path
         style="fill:#bc4b00"
         d="m 613.96561,-71.615559 c -8.48207,-1.055011 -14.30708,-3.151551 -20.90208,-7.523086 l -2.91042,-1.929185 -2.91042,-2.92392 -2.91041,-2.923919 -2.86308,-4.803892 c -4.84774,-8.133907 -6.42172,-13.906319 -6.3735,-23.374239 l 0.0209,-4.10104 0.71958,-3.43667 c 3.86962,-18.48114 19.37006,-32.4092 37.83787,-33.99954 l 3.29825,-0.28403 3.25917,0.27231 c 26.67035,2.22838 44.36595,26.93036 38.33096,53.50769 -4.13811,18.223691 -26.18971,33.809021 -44.5968,31.519521 z"
         id="path242" /><path
         style="fill:#bc4b00"
         d="m 536.11197,-71.355345 c 0.25466,-0.06655 0.67138,-0.06655 0.92604,0 0.25466,0.06655 0.0463,0.121 -0.46302,0.121 -0.50932,0 -0.71768,-0.05445 -0.46302,-0.121 z"
         id="path241" /><path
         style="fill:#bc4b00"
         d="m 521.69218,-71.348145 c 0.1819,-0.0734 0.47955,-0.0734 0.66146,0 0.1819,0.0734 0.0331,0.133452 -0.33073,0.133452 -0.36381,0 -0.51263,-0.06005 -0.33073,-0.133452 z"
         id="path240" /><path
         style="fill:#bc4b00"
         d="m 540.67603,-71.437495 c 0.26339,-0.291041 0.53842,-0.529166 0.61118,-0.529166 0.0728,0 -0.0832,0.238125 -0.3466,0.529166 -0.26339,0.291042 -0.53842,0.529167 -0.61118,0.529167 -0.0728,0 0.0832,-0.238125 0.3466,-0.529167 z"
         id="path239" /><path
         style="fill:#bc4b00"
         d="m 532.41284,-71.091682 c 0.25743,-0.06708 0.61462,-0.06267 0.79375,0.0098 0.17913,0.07248 -0.0315,0.127362 -0.46806,0.12197 -0.43656,-0.0054 -0.58312,-0.06469 -0.32569,-0.131774 z"
         id="path238" /><path
         style="fill:#bc4b00"
         d="m 526.19318,-71.095482 c 0.32912,-0.06329 0.80537,-0.06088 1.05833,0.0053 0.25297,0.06622 -0.0163,0.118003 -0.5984,0.115066 -0.58208,-0.0029 -0.78905,-0.05712 -0.45993,-0.120405 z"
         id="path237" /><path
         style="fill:#bc4b00"
         d="m 621.19204,-69.23701 c 0.191,-0.07643 0.4192,-0.06703 0.50712,0.02089 0.0879,0.08792 -0.0684,0.150453 -0.34727,0.138964 -0.30822,-0.0127 -0.37091,-0.07539 -0.15985,-0.159852 z"
         id="path236" /><path
         style="fill:#bc4b00"
         d="m 614.43367,-69.23961 c 0.25743,-0.06708 0.61462,-0.06267 0.79375,0.0098 0.17913,0.07248 -0.0315,0.127362 -0.46806,0.12197 -0.43656,-0.0054 -0.58312,-0.06469 -0.32569,-0.131774 z"
         id="path235" /><path
         style="fill:#bc4b00"
         d="m 538.42707,-68.891567 c 0,-0.05494 0.20836,-0.263302 0.46302,-0.463021 l 0.46302,-0.363126 -0.36312,0.463021 c -0.34565,0.440729 -0.56292,0.580887 -0.56292,0.363126 z"
         id="path234" /><path
         style="fill:#bc4b00"
         d="m 679.02797,-68.328652 -0.50403,-0.595312 0.59531,0.504028 c 0.55945,0.473662 0.71576,0.686597 0.50403,0.686597 -0.0502,0 -0.3181,-0.267891 -0.59531,-0.595313 z"
         id="path233" /><path
         style="fill:#bc4b00"
         d="m 675.74582,-68.394792 c -1.08413,-1.091407 -1.9116,-1.984375 -1.83884,-1.984375 0.0728,0 1.0193,0.892968 2.10342,1.984375 1.08412,1.091406 1.9116,1.984375 1.83884,1.984375 -0.0728,0 -1.0193,-0.892969 -2.10342,-1.984375 z"
         id="path232" /><path
         style="fill:#bc4b00"
         d="m 680.73915,-66.344272 -0.36313,-0.46302 0.46302,0.363126 c 0.25467,0.199719 0.46303,0.408078 0.46303,0.46302 0,0.217762 -0.21728,0.0776 -0.56292,-0.363126 z"
         id="path231" /><path
         style="fill:#bc4b00"
         d="m 575.73332,-64.658229 c 0,-0.05494 0.20836,-0.263301 0.46302,-0.463021 l 0.46302,-0.363126 -0.36312,0.463021 c -0.34565,0.440729 -0.56292,0.580887 -0.56292,0.363126 z"
         id="path230" /><path
         style="fill:#bc4b00"
         d="m 577.05624,-62.806146 c 0,-0.05494 0.20836,-0.263301 0.46302,-0.46302 l 0.46302,-0.363126 -0.36313,0.46302 c -0.34564,0.44073 -0.56291,0.580887 -0.56291,0.363126 z"
         id="path229" /><path
         style="fill:#bc4b00"
         d="m 574.14582,-62.806146 c 0,-0.05494 0.20836,-0.263301 0.46302,-0.46302 l 0.46302,-0.363126 -0.36312,0.46302 c -0.34565,0.44073 -0.56292,0.580887 -0.56292,0.363126 z"
         id="path228" /><path
         style="fill:#bc4b00"
         d="m 700.56704,-60.241158 c 0.19099,-0.07643 0.4192,-0.06703 0.50712,0.02089 0.0879,0.08792 -0.0684,0.150453 -0.34727,0.138964 -0.30822,-0.0127 -0.37092,-0.07539 -0.15985,-0.159852 z"
         id="path227" /><path
         style="fill:#bc4b00"
         d="m 702.94829,-59.976575 c 0.19099,-0.07643 0.4192,-0.06703 0.50712,0.02089 0.0879,0.08792 -0.0684,0.150453 -0.34727,0.138965 -0.30822,-0.0127 -0.37092,-0.07539 -0.15985,-0.159853 z"
         id="path226" /><path
         style="fill:#bc4b00"
         d="m 705.45033,-59.714605 c 0.25743,-0.06708 0.61462,-0.06267 0.79375,0.0098 0.17913,0.07248 -0.0315,0.127362 -0.46806,0.12197 -0.43656,-0.0054 -0.58312,-0.06469 -0.32569,-0.131774 z"
         id="path225" /><path
         style="fill:#bc4b00"
         d="m 709.41768,-59.456528 c 0.40218,-0.06082 0.9975,-0.05919 1.32292,0.0036 0.32542,0.0628 -0.004,0.11256 -0.73124,0.110574 -0.72761,-0.002 -0.99386,-0.05337 -0.59168,-0.114186 z"
         id="path224" /><path
         style="fill:#bc4b00"
         d="m 573.88124,-59.398958 c 1.2305,-1.236927 2.2968,-2.248959 2.36956,-2.248959 0.0728,0 -0.87448,1.012032 -2.10498,2.248959 -1.2305,1.236927 -2.29681,2.248958 -2.36957,2.248958 -0.0728,0 0.87449,-1.012031 2.10499,-2.248958 z"
         id="path223" /><path
         style="fill:#bc4b00"
         d="m 568.72186,-57.414583 c 0.26339,-0.291042 0.53842,-0.529167 0.61118,-0.529167 0.0728,0 -0.0832,0.238125 -0.34659,0.529167 -0.26339,0.291041 -0.53842,0.529166 -0.61118,0.529166 -0.0728,0 0.0832,-0.238125 0.34659,-0.529166 z"
         id="path222" /><path
         style="fill:#bc4b00"
         d="m 619.14587,-56.775174 c 0.0127,-0.308224 0.0754,-0.370919 0.15986,-0.159852 0.0764,0.190996 0.067,0.419199 -0.0209,0.507118 -0.0879,0.08792 -0.15046,-0.06835 -0.13897,-0.347266 z"
         id="path221" /><path
         style="fill:#bc4b00"
         d="m 566.4729,-55.397811 c 0,-0.05494 0.20836,-0.263302 0.46303,-0.463021 l 0.46302,-0.363126 -0.36313,0.463021 c -0.34564,0.440729 -0.56292,0.580887 -0.56292,0.363126 z"
         id="path220" /><path
         style="fill:#bc4b00"
         d="m 621.55782,-55.430211 c 0.005,-0.436563 0.0647,-0.583125 0.13177,-0.325694 0.0671,0.257431 0.0627,0.614619 -0.01,0.79375 -0.0725,0.179132 -0.12736,-0.03149 -0.12196,-0.468056 z"
         id="path219" /><path
         style="fill:#bc4b00"
         d="m 619.44115,-54.371878 c 0.005,-0.436562 0.0647,-0.583125 0.13177,-0.325694 0.0671,0.257431 0.0627,0.614619 -0.01,0.79375 -0.0725,0.179132 -0.12736,-0.03149 -0.12197,-0.468056 z"
         id="path218" /><path
         style="fill:#bc4b00"
         d="m 568.45728,-54.239586 c 0.26339,-0.291042 0.53842,-0.529167 0.61118,-0.529167 0.0728,0 -0.0832,0.238125 -0.3466,0.529167 -0.26339,0.291041 -0.53842,0.529166 -0.61118,0.529166 -0.0728,0 0.0832,-0.238125 0.3466,-0.529166 z"
         id="path217" /><path
         style="fill:#bc4b00"
         d="m 621.8501,-50.53542 c 0,-0.800364 0.0496,-1.127786 0.11023,-0.727604 0.0606,0.400182 0.0606,1.055026 0,1.455208 -0.0606,0.400183 -0.11023,0.07276 -0.11023,-0.727604 z"
         id="path216" /><path
         style="fill:#bc4b00"
         d="m 561.97499,-48.932305 c 0,-0.136932 0.1177,-0.32171 0.26155,-0.410617 0.14998,-0.09269 0.19434,0.01351 0.10398,0.248969 -0.17589,0.458368 -0.36553,0.542233 -0.36553,0.161648 z"
         id="path215" /><path
         style="fill:#bc4b00"
         d="m 619.43134,-48.418753 c 0,-0.363802 0.0601,-0.51263 0.13346,-0.330729 0.0734,0.181901 0.0734,0.479557 0,0.661458 -0.0734,0.181901 -0.13346,0.03307 -0.13346,-0.330729 z"
         id="path214" /><path
         style="fill:#bc4b00"
         d="m 658.77873,-42.796357 -0.36312,-0.463021 0.46302,0.363126 c 0.25466,0.199719 0.46302,0.408079 0.46302,0.463021 0,0.217761 -0.21727,0.0776 -0.56292,-0.363126 z"
         id="path213" /><path
         style="fill:#bc4b00"
         d="m 651.71051,-41.539586 c 0,-0.363803 0.0601,-0.512631 0.13345,-0.33073 0.0734,0.181901 0.0734,0.479558 0,0.661459 -0.0734,0.181901 -0.13345,0.03307 -0.13345,-0.330729 z"
         id="path212" /><path
         style="fill:#bc4b00"
         d="m 589.77712,-40.635593 c 0.0127,-0.308225 0.0754,-0.37092 0.15986,-0.159853 0.0764,0.190996 0.067,0.419199 -0.0209,0.507118 -0.0879,0.08792 -0.15045,-0.06835 -0.13897,-0.347265 z"
         id="path211" /><path
         style="fill:#bc4b00"
         d="m 527.65034,-39.606274 c 0.25743,-0.06708 0.61462,-0.06267 0.79375,0.0098 0.17913,0.07248 -0.0315,0.127362 -0.46806,0.12197 -0.43656,-0.0054 -0.58312,-0.06469 -0.32569,-0.131774 z"
         id="path210" /><path
         style="fill:#bc4b00"
         d="m 587.39587,-39.577264 c 0.0127,-0.308225 0.0754,-0.370919 0.15986,-0.159853 0.0764,0.190997 0.067,0.4192 -0.0209,0.507119 -0.0879,0.08792 -0.15045,-0.06835 -0.13897,-0.347266 z"
         id="path209" /><path
         style="fill:#bc4b00"
         d="m 690.84795,-38.254347 c 0.0127,-0.308225 0.0754,-0.37092 0.15986,-0.159853 0.0764,0.190996 0.067,0.419199 -0.0209,0.507118 -0.0879,0.08792 -0.15046,-0.06835 -0.13897,-0.347265 z"
         id="path208" /><path
         style="fill:#bc4b00"
         d="m 652.0287,-36.247924 c 0,-1.382448 0.0446,-1.947995 0.0991,-1.256771 0.0545,0.691224 0.0545,1.822318 0,2.513542 -0.0545,0.691224 -0.0991,0.125677 -0.0991,-1.256771 z"
         id="path207" /><path
         style="fill:#bc4b00"
         d="m 583.40624,-33.966569 c 0,-0.05494 0.20836,-0.263301 0.46302,-0.463021 l 0.46302,-0.363126 -0.36313,0.463021 c -0.34564,0.440729 -0.56291,0.580887 -0.56291,0.363126 z"
         id="path206" /><path
         style="fill:#bc4b00"
         d="m 589.77712,-32.168931 c 0.0127,-0.308224 0.0754,-0.370919 0.15986,-0.159852 0.0764,0.190996 0.067,0.419199 -0.0209,0.507118 -0.0879,0.08792 -0.15045,-0.06835 -0.13897,-0.347266 z"
         id="path205" /><path
         style="fill:#bc4b00"
         d="m 582.08332,-32.411466 c 0.34177,-0.363802 0.68094,-0.661458 0.7537,-0.661458 0.0728,0 -0.14734,0.297656 -0.48912,0.661458 -0.34177,0.363802 -0.68094,0.661459 -0.7537,0.661459 -0.0728,0 0.14735,-0.297657 0.48912,-0.661459 z"
         id="path204" /><path
         style="fill:#bc4b00"
         d="m 558.29171,-31.639764 c 0.0127,-0.308225 0.0754,-0.370919 0.15985,-0.159853 0.0764,0.190996 0.067,0.4192 -0.0209,0.507118 -0.0879,0.08792 -0.15045,-0.06835 -0.13896,-0.347265 z"
         id="path203" /><path
         style="fill:#bc4b00"
         d="m 692.17087,-30.052264 c 0.0127,-0.308225 0.0754,-0.370919 0.15985,-0.159853 0.0764,0.190996 0.067,0.4192 -0.0209,0.507118 -0.0879,0.08792 -0.15045,-0.06835 -0.13896,-0.347265 z"
         id="path202" /><path
         style="fill:#bc4b00"
         d="m 651.68962,-29.258514 c 0.0127,-0.308225 0.0754,-0.370919 0.15985,-0.159853 0.0764,0.190996 0.067,0.4192 -0.0209,0.507118 -0.0879,0.08792 -0.15046,-0.06835 -0.13897,-0.347265 z"
         id="path201" /><path
         style="fill:#bc4b00"
         d="m 590.83546,-25.554348 c 0.0127,-0.308224 0.0754,-0.370919 0.15985,-0.159852 0.0764,0.190996 0.067,0.419199 -0.0209,0.507118 -0.0879,0.08792 -0.15045,-0.06835 -0.13896,-0.347266 z"
         id="path200" /><path
         style="fill:#bc4b00"
         d="m 558.3224,-22.886466 c 0.005,-0.436562 0.0647,-0.583124 0.13178,-0.325693 0.0671,0.257431 0.0627,0.614618 -0.01,0.79375 -0.0725,0.179131 -0.12736,-0.03149 -0.12197,-0.468057 z"
         id="path199" /><path
         style="fill:#bc4b00"
         d="m 558.55629,-20.262681 c 0.0127,-0.308225 0.0754,-0.370919 0.15986,-0.159853 0.0764,0.190997 0.067,0.4192 -0.0209,0.507119 -0.0879,0.08792 -0.15046,-0.06835 -0.13897,-0.347266 z"
         id="path198" /><path
         style="fill:#bc4b00"
         d="m 636.28915,-20.042195 -0.36312,-0.463021 0.46302,0.363126 c 0.25466,0.199719 0.46302,0.408079 0.46302,0.463021 0,0.217761 -0.21727,0.0776 -0.56292,-0.363126 z"
         id="path197" /><path
         style="fill:#bc4b00"
         d="m 639.09108,-16.999487 -1.31297,-1.389062 1.38906,1.31297 c 0.76399,0.722134 1.38906,1.347212 1.38906,1.389063 0,0.19743 -0.24512,-0.02223 -1.46515,-1.312971 z"
         id="path196" /><path
         style="fill:#bc4b00"
         d="m 604.44061,-13.758341 c 0.26339,-0.291042 0.53842,-0.529167 0.61118,-0.529167 0.0728,0 -0.0832,0.238125 -0.3466,0.529167 -0.26339,0.291042 -0.53842,0.529167 -0.61118,0.529167 -0.0728,0 0.0832,-0.238125 0.3466,-0.529167 z"
         id="path195" /><path
         style="fill:#bc4b00"
         d="m 642.91746,-13.427612 -0.64143,-0.727604 0.7276,0.641433 c 0.40018,0.352788 0.7276,0.68021 0.7276,0.727604 0,0.207506 -0.21426,0.03862 -0.81377,-0.641433 z"
         id="path194" /><path
         style="fill:#bc4b00"
         d="m 644.75582,-11.840112 -0.36313,-0.463021 0.46302,0.363126 c 0.25466,0.19972 0.46302,0.408079 0.46302,0.463021 0,0.217761 -0.21727,0.0776 -0.56291,-0.363126 z"
         id="path193" /><path
         style="fill:#bc4b00"
         d="m 601.13332,-10.186466 c 0.34177,-0.363802 0.68094,-0.661458 0.7537,-0.661458 0.0728,0 -0.14734,0.297656 -0.48912,0.661458 -0.34177,0.3638021 -0.68094,0.6614584 -0.7537,0.6614584 -0.0728,0 0.14734,-0.2976563 0.48912,-0.6614584 z"
         id="path144" /></g></g></svg>
