<?xml version="1.0" encoding="UTF-8" standalone="no"?>
<!-- Created with Inkscape (http://www.inkscape.org/) -->

<svg
   width="285.33954mm"
   height="405.42572mm"
   viewBox="0 0 285.33954 405.42572"
   version="1.1"
   id="svg1"
   xml:space="preserve"
   sodipodi:docname="sunrise.svg"
   inkscape:version="1.4 (e7c3feb1, 2024-10-09)"
   xmlns:inkscape="http://www.inkscape.org/namespaces/inkscape"
   xmlns:sodipodi="http://sodipodi.sourceforge.net/DTD/sodipodi-0.dtd"
   xmlns="http://www.w3.org/2000/svg"
   xmlns:svg="http://www.w3.org/2000/svg"><sodipodi:namedview
     id="namedview1"
     pagecolor="#ffffff"
     bordercolor="#000000"
     borderopacity="0.25"
     inkscape:showpageshadow="2"
     inkscape:pageopacity="0.0"
     inkscape:pagecheckerboard="0"
     inkscape:deskcolor="#d1d1d1"
     inkscape:document-units="mm"
     inkscape:zoom="0.34491304"
     inkscape:cx="481.28073"
     inkscape:cy="708.87432"
     inkscape:window-width="1456"
     inkscape:window-height="870"
     inkscape:window-x="0"
     inkscape:window-y="25"
     inkscape:window-maximized="0"
     inkscape:current-layer="svg1" /><defs
     id="defs1"><inkscape:path-effect
       effect="simplify"
       id="path-effect69"
       is_visible="true"
       lpeversion="1.3"
       threshold="19.298246"
       steps="1"
       smooth_angles="360"
       helper_size="0"
       simplify_individual_paths="false"
       simplify_just_coalesce="false" /><inkscape:path-effect
       effect="simplify"
       id="path-effect68"
       is_visible="true"
       lpeversion="1.3"
       threshold="19.298246"
       steps="1"
       smooth_angles="360"
       helper_size="0"
       simplify_individual_paths="false"
       simplify_just_coalesce="false" /><inkscape:path-effect
       effect="simplify"
       id="path-effect67"
       is_visible="true"
       lpeversion="1.3"
       threshold="19.298246"
       steps="1"
       smooth_angles="360"
       helper_size="0"
       simplify_individual_paths="false"
       simplify_just_coalesce="false" /><inkscape:path-effect
       effect="simplify"
       id="path-effect66"
       is_visible="true"
       lpeversion="1.3"
       threshold="19.298246"
       steps="1"
       smooth_angles="360"
       helper_size="0"
       simplify_individual_paths="false"
       simplify_just_coalesce="false" /><inkscape:path-effect
       effect="simplify"
       id="path-effect65"
       is_visible="true"
       lpeversion="1.3"
       threshold="19.298246"
       steps="1"
       smooth_angles="360"
       helper_size="0"
       simplify_individual_paths="false"
       simplify_just_coalesce="false" /><inkscape:path-effect
       effect="simplify"
       id="path-effect64"
       is_visible="true"
       lpeversion="1.3"
       threshold="19.298246"
       steps="1"
       smooth_angles="360"
       helper_size="0"
       simplify_individual_paths="false"
       simplify_just_coalesce="false" /><inkscape:path-effect
       effect="simplify"
       id="path-effect61"
       is_visible="true"
       lpeversion="1.3"
       threshold="19.298246"
       steps="1"
       smooth_angles="360"
       helper_size="0"
       simplify_individual_paths="false"
       simplify_just_coalesce="false" /><inkscape:path-effect
       effect="simplify"
       id="path-effect59"
       is_visible="true"
       lpeversion="1.3"
       threshold="19.298246"
       steps="1"
       smooth_angles="360"
       helper_size="0"
       simplify_individual_paths="false"
       simplify_just_coalesce="false" /><inkscape:path-effect
       effect="simplify"
       id="path-effect57"
       is_visible="true"
       lpeversion="1.3"
       threshold="19.298246"
       steps="1"
       smooth_angles="360"
       helper_size="0"
       simplify_individual_paths="false"
       simplify_just_coalesce="false" /><inkscape:path-effect
       effect="simplify"
       id="path-effect55"
       is_visible="true"
       lpeversion="1.3"
       threshold="19.298246"
       steps="1"
       smooth_angles="360"
       helper_size="0"
       simplify_individual_paths="false"
       simplify_just_coalesce="false" /><inkscape:path-effect
       effect="simplify"
       id="path-effect53"
       is_visible="true"
       lpeversion="1.3"
       threshold="19.298246"
       steps="1"
       smooth_angles="360"
       helper_size="0"
       simplify_individual_paths="false"
       simplify_just_coalesce="false" /><inkscape:path-effect
       effect="simplify"
       id="path-effect51"
       is_visible="true"
       lpeversion="1.3"
       threshold="19.298246"
       steps="1"
       smooth_angles="360"
       helper_size="0"
       simplify_individual_paths="false"
       simplify_just_coalesce="false" /><inkscape:path-effect
       effect="simplify"
       id="path-effect49"
       is_visible="true"
       lpeversion="1.3"
       threshold="19.298246"
       steps="1"
       smooth_angles="360"
       helper_size="0"
       simplify_individual_paths="false"
       simplify_just_coalesce="false" /><inkscape:path-effect
       effect="simplify"
       id="path-effect47"
       is_visible="true"
       lpeversion="1.3"
       threshold="19.298246"
       steps="1"
       smooth_angles="360"
       helper_size="0"
       simplify_individual_paths="false"
       simplify_just_coalesce="false" /><inkscape:path-effect
       effect="simplify"
       id="path-effect45"
       is_visible="true"
       lpeversion="1.3"
       threshold="19.298246"
       steps="1"
       smooth_angles="360"
       helper_size="0"
       simplify_individual_paths="false"
       simplify_just_coalesce="false" /><inkscape:path-effect
       effect="simplify"
       id="path-effect43"
       is_visible="true"
       lpeversion="1.3"
       threshold="19.298246"
       steps="1"
       smooth_angles="360"
       helper_size="0"
       simplify_individual_paths="false"
       simplify_just_coalesce="false" /><inkscape:path-effect
       effect="simplify"
       id="path-effect41"
       is_visible="true"
       lpeversion="1.3"
       threshold="19.298246"
       steps="1"
       smooth_angles="360"
       helper_size="0"
       simplify_individual_paths="false"
       simplify_just_coalesce="false" /><inkscape:path-effect
       effect="simplify"
       id="path-effect39"
       is_visible="true"
       lpeversion="1.3"
       threshold="19.298246"
       steps="1"
       smooth_angles="360"
       helper_size="0"
       simplify_individual_paths="false"
       simplify_just_coalesce="false" /><inkscape:path-effect
       effect="simplify"
       id="path-effect37"
       is_visible="true"
       lpeversion="1.3"
       threshold="19.298246"
       steps="1"
       smooth_angles="360"
       helper_size="0"
       simplify_individual_paths="false"
       simplify_just_coalesce="false" /><inkscape:path-effect
       effect="simplify"
       id="path-effect35"
       is_visible="true"
       lpeversion="1.3"
       threshold="19.298246"
       steps="1"
       smooth_angles="360"
       helper_size="0"
       simplify_individual_paths="false"
       simplify_just_coalesce="false" /><inkscape:path-effect
       effect="simplify"
       id="path-effect33"
       is_visible="true"
       lpeversion="1.3"
       threshold="19.298246"
       steps="1"
       smooth_angles="360"
       helper_size="0"
       simplify_individual_paths="false"
       simplify_just_coalesce="false" /><inkscape:path-effect
       effect="simplify"
       id="path-effect31"
       is_visible="true"
       lpeversion="1.3"
       threshold="19.298246"
       steps="1"
       smooth_angles="360"
       helper_size="0"
       simplify_individual_paths="false"
       simplify_just_coalesce="false" /><inkscape:path-effect
       effect="simplify"
       id="path-effect29"
       is_visible="true"
       lpeversion="1.3"
       threshold="19.298246"
       steps="1"
       smooth_angles="360"
       helper_size="0"
       simplify_individual_paths="false"
       simplify_just_coalesce="false" /><inkscape:path-effect
       effect="simplify"
       id="path-effect27"
       is_visible="true"
       lpeversion="1.3"
       threshold="19.298246"
       steps="1"
       smooth_angles="360"
       helper_size="0"
       simplify_individual_paths="false"
       simplify_just_coalesce="false" /><inkscape:path-effect
       effect="simplify"
       id="path-effect25"
       is_visible="true"
       lpeversion="1.3"
       threshold="19.298246"
       steps="1"
       smooth_angles="360"
       helper_size="0"
       simplify_individual_paths="false"
       simplify_just_coalesce="false" /><inkscape:path-effect
       effect="simplify"
       id="path-effect24"
       is_visible="true"
       lpeversion="1.3"
       threshold="19.298246"
       steps="1"
       smooth_angles="360"
       helper_size="0"
       simplify_individual_paths="false"
       simplify_just_coalesce="false" /><inkscape:path-effect
       effect="simplify"
       id="path-effect23"
       is_visible="true"
       lpeversion="1.3"
       threshold="19.298246"
       steps="1"
       smooth_angles="360"
       helper_size="0"
       simplify_individual_paths="false"
       simplify_just_coalesce="false" /><inkscape:path-effect
       effect="simplify"
       id="path-effect22"
       is_visible="true"
       lpeversion="1.3"
       threshold="19.298246"
       steps="1"
       smooth_angles="360"
       helper_size="0"
       simplify_individual_paths="false"
       simplify_just_coalesce="false" /><inkscape:path-effect
       effect="simplify"
       id="path-effect21"
       is_visible="true"
       lpeversion="1.3"
       threshold="19.298246"
       steps="1"
       smooth_angles="360"
       helper_size="0"
       simplify_individual_paths="false"
       simplify_just_coalesce="false" /><inkscape:path-effect
       effect="simplify"
       id="path-effect20"
       is_visible="true"
       lpeversion="1.3"
       threshold="19.298246"
       steps="1"
       smooth_angles="360"
       helper_size="0"
       simplify_individual_paths="false"
       simplify_just_coalesce="false" /><inkscape:path-effect
       effect="simplify"
       id="path-effect19"
       is_visible="true"
       lpeversion="1.3"
       threshold="19.298246"
       steps="1"
       smooth_angles="360"
       helper_size="0"
       simplify_individual_paths="false"
       simplify_just_coalesce="false" /><inkscape:path-effect
       effect="simplify"
       id="path-effect18"
       is_visible="true"
       lpeversion="1.3"
       threshold="19.298246"
       steps="1"
       smooth_angles="360"
       helper_size="0"
       simplify_individual_paths="false"
       simplify_just_coalesce="false" /><inkscape:path-effect
       effect="simplify"
       id="path-effect16"
       is_visible="true"
       lpeversion="1.3"
       threshold="19.298246"
       steps="1"
       smooth_angles="360"
       helper_size="0"
       simplify_individual_paths="false"
       simplify_just_coalesce="false" /><inkscape:path-effect
       effect="simplify"
       id="path-effect15"
       is_visible="true"
       lpeversion="1.3"
       threshold="19.298246"
       steps="1"
       smooth_angles="360"
       helper_size="0"
       simplify_individual_paths="false"
       simplify_just_coalesce="false" /><inkscape:path-effect
       effect="simplify"
       id="path-effect14"
       is_visible="true"
       lpeversion="1.3"
       threshold="19.298246"
       steps="1"
       smooth_angles="360"
       helper_size="0"
       simplify_individual_paths="false"
       simplify_just_coalesce="false" /><inkscape:path-effect
       effect="simplify"
       id="path-effect12"
       is_visible="true"
       lpeversion="1.3"
       threshold="19.298246"
       steps="1"
       smooth_angles="360"
       helper_size="0"
       simplify_individual_paths="false"
       simplify_just_coalesce="false" /><inkscape:path-effect
       effect="simplify"
       id="path-effect10"
       is_visible="true"
       lpeversion="1.3"
       threshold="19.298246"
       steps="1"
       smooth_angles="360"
       helper_size="0"
       simplify_individual_paths="false"
       simplify_just_coalesce="false" /><inkscape:path-effect
       effect="simplify"
       id="path-effect8"
       is_visible="true"
       lpeversion="1.3"
       threshold="19.298246"
       steps="1"
       smooth_angles="360"
       helper_size="0"
       simplify_individual_paths="false"
       simplify_just_coalesce="false" /><inkscape:path-effect
       effect="simplify"
       id="path-effect6"
       is_visible="true"
       lpeversion="1.3"
       threshold="19.298246"
       steps="1"
       smooth_angles="360"
       helper_size="0"
       simplify_individual_paths="false"
       simplify_just_coalesce="false" /></defs><path
     style="fill:#4c6d70;fill-rule:evenodd;stroke-linecap:round;stroke-linejoin:round;fill-opacity:1"
     d="m 190.47468,336.83215 c 3.65319,0.0733 7.27168,0.43342 10.81846,1.1188 0.4466,0.0995 0.88874,0.215 1.33584,0.31264 a 1,1 0 0 0 0.0196,-0.0114 c 3.38191,0.74359 6.6978,1.77288 9.88467,3.24011 16.75891,7.71578 30.88669,20.14067 43.92962,33.15819 9.42092,9.40256 18.31007,19.33704 26.664,29.69741 L 6.8243896,403.59397 C 31.904465,394.64875 57.189275,385.95598 81.296847,374.465 109.45959,361.04111 136.9928,345.12578 167.64868,339.14054 c 7.44777,-1.45409 15.20051,-2.4613 22.826,-2.30839 z"
     id="path111" /><path
     style="fill:#6b8444;fill-rule:evenodd;stroke-linecap:round;stroke-linejoin:round;fill-opacity:1"
     d="m 2.1445719,308.35741 c 6.1820612,2.6041 12.4547891,4.98979 18.8184901,7.09 12.231029,4.0366 25.128719,7.7495 38.359415,6.87658 19.055552,-1.25724 37.560368,-6.33773 55.757833,-11.49025 23.9653,9.80792 48.69666,17.71841 73.77121,24.07037 -7.27887,0.009 -14.5952,0.90853 -21.58783,2.27376 -31.08807,6.06962 -58.76379,22.10346 -86.82829,35.48052 -25.246923,12.03406 -51.880449,21.03053 -78.2908281,30.49581 z"
     id="path110" /><path
     style="fill:#ea95bf;fill-rule:evenodd;stroke-linecap:round;stroke-linejoin:round"
     d="m 265.93157,270.59382 c -11.47822,10.10314 -23.52274,19.73262 -36.99774,26.88673 -9.10122,4.83199 -18.54943,8.95122 -28.12542,12.79302 0.95804,-3.18428 1.69269,-6.44796 1.9141,-9.79475 0.57721,-8.72508 -1.08793,-17.47234 -4.49378,-25.4491 l 9.63662,-4.37544 z"
     id="path109" /><path
     style="fill:#e374ab;fill-rule:evenodd;stroke-linecap:round;stroke-linejoin:round"
     d="m 79.341927,270.47083 18.878951,7.32617 c -2.639731,6.99095 -3.841832,14.46836 -3.30109,21.99607 C 87.367886,296.28784 79.879392,292.64556 72.521672,288.74413 62.173826,283.25719 52.191033,277.0862 42.464591,270.53542 Z"
     id="path108" /><path
     style="fill:#ac9c5c;fill-rule:evenodd;stroke-linecap:round;stroke-linejoin:round"
     d="m 283.99197,256.23891 0.28939,146.37867 c -8.2879,-10.24225 -17.08282,-20.07755 -26.40614,-29.38271 -13.10325,-13.07771 -27.39504,-25.68065 -44.50633,-33.55867 -3.78755,-1.74378 -7.71945,-2.92322 -11.72642,-3.69745 -3.07405,-0.68581 -6.14246,-1.39801 -9.20305,-2.15594 -9.63915,-2.38707 -19.21113,-5.06955 -28.72435,-7.94732 22.48392,-7.60775 45.08407,-15.43926 66.15617,-26.6268 13.88791,-7.37333 26.20587,-17.27561 37.87676,-27.57609 0.46407,-0.40958 0.90874,-0.84231 1.37097,-1.25419 a 1,1 0 0 0 0.25218,-0.23048 c 5.02255,-4.48363 9.91127,-9.12338 14.62082,-13.94902 z"
     id="path107" /><path
     style="fill:#ffb500;fill-rule:evenodd;stroke-linecap:round;stroke-linejoin:round"
     d="m 149.32629,244.44377 c 10.06226,0.16695 20.12431,3.1248 28.58585,8.72091 15.31108,10.12612 24.02852,28.8349 22.81463,47.18369 -0.24466,3.69829 -1.07411,7.34844 -2.25826,10.89029 -12.52483,4.93438 -25.2907,9.33788 -38.05815,13.65239 -21.64473,-6.69224 -42.87811,-14.71302 -63.463306,-24.15253 -1.79317,-18.82286 7.954276,-37.8651 23.791316,-48.27509 8.46271,-5.5627 18.52566,-8.18662 28.58792,-8.01966 z"
     id="path106" /><path
     style="fill:#b42b6f;fill-rule:evenodd;stroke-linecap:round;stroke-linejoin:round"
     d="m 6.0373576,242.02583 68.1736164,26.45523 -34.756018,0.0605 C 27.733,260.4573 16.567317,251.60238 6.0373576,242.02554 Z"
     id="path105" /><path
     style="fill:#9acc7f;fill-rule:evenodd;stroke-linecap:round;stroke-linejoin:round;fill-opacity:1"
     d="m 2.1445719,241.26618 c 20.8482741,19.38312 44.3254781,35.92956 69.4391721,49.24609 13.205036,7.00196 26.757467,13.31717 40.546876,19.06241 -17.40321,4.90604 -34.980026,9.57091 -52.940951,10.75593 -12.771896,0.84265 -25.420652,-2.76357 -37.599772,-6.78305 -6.582249,-2.17233 -13.0731753,-4.61238 -19.4453251,-7.32462 z"
     id="path104" /><path
     style="fill:#ffcc7f;fill-rule:evenodd;stroke-linecap:round;stroke-linejoin:round"
     d="m 63.380627,239.92415 40.342243,26.91618 c -1.88368,2.87432 -3.4143,5.9469 -4.740281,9.10746 L 6.4549032,240.04271 Z"
     id="path103" /><path
     style="fill:#ffcc7f;fill-rule:evenodd;stroke-linecap:round;stroke-linejoin:round"
     d="m 114.70101,236.30318 6.60373,13.57643 c -0.54386,0.32769 -1.13153,0.56209 -1.66398,0.91209 -2.44676,1.6083 -4.70281,3.46394 -6.85178,5.43533 L 96.658183,236.4295 Z"
     id="path102" /><path
     style="fill:#b42b6f;fill-rule:evenodd;stroke-linecap:round;stroke-linejoin:round"
     d="m 283.95321,236.11766 0.0331,17.30075 c -5.05825,5.27286 -10.37819,10.29773 -15.83572,15.17375 l -55.86946,0.0589 z"
     id="path101" /><path
     style="fill:#ffcc7f;fill-rule:evenodd;stroke-linecap:round;stroke-linejoin:round"
     d="m 280.15034,235.64689 -82.67195,37.52536 c -1.83234,-3.9003 -4.15643,-7.54253 -6.84351,-10.90218 l 38.78522,-26.50381 z"
     id="path100" /><path
     style="fill:#ffcc7f;fill-rule:evenodd;stroke-linecap:round;stroke-linejoin:round"
     d="m 172.1621,234.97096 a 1,1 0 0 0 0.26562,0.26768 l 18.28105,0.0646 -12.98422,15.47037 c -3.38865,-2.10609 -6.99758,-3.78664 -10.74404,-5.09529 z"
     id="path99" /><path
     style="fill:#ffcc7f;fill-rule:evenodd;stroke-linecap:round;stroke-linejoin:round"
     d="m 154.54095,225.60616 -2.42155,17.05839 c -5.70037,-0.37548 -11.42032,0.0683 -16.94574,1.449 l -2.53111,-18.41593 z"
     id="path98" /><path
     style="fill:#ea95bf;fill-rule:evenodd;stroke-linecap:round;stroke-linejoin:round"
     d="m 22.640479,210.33836 h 50.179882 l 38.546999,47.3108 c -2.37317,2.34061 -4.55683,4.85258 -6.4766,7.56802 z"
     id="path97" /><path
     style="fill:#ea95bf;fill-rule:evenodd;stroke-linecap:round;stroke-linejoin:round"
     d="m 104.04119,209.80919 h 24.40007 l 4.78162,34.80046 c -3.5334,1.02831 -6.91043,2.5265 -10.16217,4.30878 l -6.50813,-13.38265 a 1,1 0 0 0 0.047,-0.24649 1,1 0 0 0 -0.56224,-0.81029 z"
     id="path96" /><path
     style="fill:#ea95bf;fill-rule:evenodd;stroke-linecap:round;stroke-linejoin:round"
     d="m 214.74245,209.77969 49.12103,0.0274 -35.06453,23.96081 h -0.17415 a 1,1 0 0 0 -0.88263,0.72089 l -38.33978,26.19892 c -2.90179,-3.3589 -6.23916,-6.34072 -9.9534,-8.85734 z"
     id="path95" /><path
     style="fill:#ea95bf;fill-rule:evenodd;stroke-linecap:round;stroke-linejoin:round"
     d="m 158.80839,209.77169 23.30659,0.0351 -17.0093,35.15393 c -3.58002,-1.10761 -7.27078,-1.74722 -10.99054,-2.12494 z"
     id="path94" /><path
     style="fill:#ffb500;fill-rule:evenodd;stroke-linecap:round;stroke-linejoin:round"
     d="M 2.1445719,199.0664 60.392696,237.93173 2.1445719,238.05265 Z"
     id="path93" /><path
     style="fill:#ffb500;fill-rule:evenodd;stroke-linecap:round;stroke-linejoin:round"
     d="m 283.8788,198.55067 0.0687,35.08623 -51.5922,0.12092 z"
     id="path92" /><path
     style="fill:#ffb500;fill-rule:evenodd;stroke-linecap:round;stroke-linejoin:round"
     d="m 36.422066,162.50171 42.460974,0.15451 34.84955,71.65454 -18.695497,0.13074 -19.767786,-24.26156 a 1,1 0 0 0 0.617534,-0.84181 1,1 0 0 0 -0.999939,-1.00046 h -1.117245 z"
     id="path91" /><path
     style="fill:#ffb500;fill-rule:evenodd;stroke-linecap:round;stroke-linejoin:round"
     d="m 207.76561,161.38653 44.87892,0.12299 -60.26196,71.79924 -19.38434,-0.0687 z"
     id="path90" /><path
     style="fill:#ffb500;fill-rule:evenodd;stroke-linecap:round;stroke-linejoin:round"
     d="m 163.80292,160.37109 -8.97878,63.23438 -22.45703,0.0935 -8.68164,-63.16204 z"
     id="path89" /><path
     style="fill:#b42b6f;fill-rule:evenodd;stroke-linecap:round;stroke-linejoin:round"
     d="m 283.73824,127.57413 0.13487,68.60356 a 1,1 0 0 0 -0.0935,0.0196 l -16.99225,11.61117 -50.36747,-0.0274 z"
     id="path88" /><path
     style="fill:#b42b6f;fill-rule:evenodd;stroke-linecap:round;stroke-linejoin:round"
     d="M 2.1445719,123.59762 71.189453,208.33767 H 19.642729 L 2.1445719,196.6619 Z"
     id="path87" /><path
     style="fill:#b42b6f;fill-rule:evenodd;stroke-linecap:round;stroke-linejoin:round"
     d="m 55.086043,109.15251 h 59.519367 l 13.56041,98.65599 h -24.60315 a 1,1 0 0 0 -0.41238,0.17002 z"
     id="path86" /><path
     style="fill:#b42b6f;fill-rule:evenodd;stroke-linecap:round;stroke-linejoin:round"
     d="m 173.48037,106.43536 58.61916,0.0667 -49.01768,101.30647 -23.99027,-0.0372 z"
     id="path85" /><path
     style="fill:#ff8107;fill-rule:evenodd;stroke-linecap:round;stroke-linejoin:round"
     d="m 109.63465,58.29515 h 68.66248 l -14.21102,100.07606 -40.674,0.16588 -6.90449,-50.22639 a 1,1 0 0 0 0.0667,-0.15813 1,1 0 0 0 -0.15606,-0.50436 z"
     id="path84" /><path
     style="fill:#ff8107;fill-rule:evenodd;stroke-linecap:round;stroke-linejoin:round"
     d="M 2.1445719,4.8751546 77.908423,160.65221 34.787024,160.49615 2.1445719,120.43141 Z"
     id="path83" /><path
     style="fill:#ff8107;fill-rule:evenodd;stroke-linecap:round;stroke-linejoin:round"
     d="m 283.49432,4.8710205 0.23823,119.5999395 -29.41422,35.04282 -45.58792,-0.12506 z"
     id="path82" /><path
     style="fill:#b42bbb;fill-rule:evenodd;stroke-linecap:round;stroke-linejoin:round;fill-opacity:1"
     d="m 188.37507,1.5291056 h 94.51567 L 233.06639,104.5037 l -59.30284,-0.0661 6.58617,-46.382696 a 1,1 0 0 0 0.41961,-0.76016 1,1 0 0 0 -0.22634,-0.607198 z"
     id="path81" /><path
     style="fill:#ff3530;fill-rule:evenodd;stroke-linecap:round;stroke-linejoin:round"
     d="m 101.83203,1.5291056 h 84.52352 l -7.77524,54.7656494 h -69.22109 z"
     id="path80" /><path
     style="fill:#b42bbb;fill-rule:evenodd;stroke-linecap:round;stroke-linejoin:round;fill-opacity:1"
     d="M 2.7419515,1.5291056 H 99.814579 L 114.33204,107.15212 H 54.113493 Z"
     id="path79" /></svg>
